<?xml version="1.0" encoding="UTF-8" standalone="no"?>
<!DOCTYPE svg PUBLIC "-//W3C//DTD SVG 1.1//EN"
 "http://www.w3.org/Graphics/SVG/1.1/DTD/svg11.dtd">
<!-- Generated by graphviz version 2.43.0 (0)
 -->
<!-- Title: G Pages: 1 -->
<svg width="2065pt" height="1204pt"
 viewBox="0.00 0.00 2064.64 1203.53" xmlns="http://www.w3.org/2000/svg" xmlns:xlink="http://www.w3.org/1999/xlink">
<g id="graph0" class="graph" transform="scale(1 1) rotate(0) translate(4 1199.53)">
<title>G</title>
<polygon fill="white" stroke="transparent" points="-4,4 -4,-1199.53 2060.64,-1199.53 2060.64,4 -4,4"/>
<!-- https://w3id.org/oseg/ont/otrl#ODRL4 -->
<g id="node1" class="node">
<title>https://w3id.org/oseg/ont/otrl#ODRL4</title>
<ellipse fill="none" stroke="#e377c2" cx="1412.36" cy="-805.26" rx="69.09" ry="16.03"/>
<text text-anchor="middle" x="1412.36" y="-801.56" font-family="Times,serif" font-size="14.00">otrl:ODRL4</text>
</g>
<!-- https://w3id.org/oseg/ont/otrl#ODRL -->
<g id="node15" class="node">
<title>https://w3id.org/oseg/ont/otrl#ODRL</title>
<ellipse fill="none" stroke="#e377c2" cx="1933.6" cy="-713.26" rx="62.87" ry="16.03"/>
<text text-anchor="middle" x="1933.6" y="-709.56" font-family="Times,serif" font-size="14.00">otrl:ODRL</text>
</g>
<!-- https://w3id.org/oseg/ont/otrl#ODRL4&#45;&gt;https://w3id.org/oseg/ont/otrl#ODRL -->
<g id="edge10" class="edge">
<title>https://w3id.org/oseg/ont/otrl#ODRL4&#45;&gt;https://w3id.org/oseg/ont/otrl#ODRL</title>
<path fill="none" stroke="black" d="M1473.76,-797.66C1548.86,-787.8 1680.78,-769.12 1792.57,-746.26 1820.87,-740.48 1852.18,-733.18 1878,-726.93"/>
<polygon fill="black" stroke="black" points="1879.09,-730.26 1887.98,-724.49 1877.43,-723.46 1879.09,-730.26"/>
</g>
<!-- https://w3id.org/oseg/ont/otrl#ODRL3 -->
<g id="node2" class="node">
<title>https://w3id.org/oseg/ont/otrl#ODRL3</title>
<ellipse fill="none" stroke="#e377c2" cx="1412.36" cy="-754.26" rx="69.09" ry="16.03"/>
<text text-anchor="middle" x="1412.36" y="-750.56" font-family="Times,serif" font-size="14.00">otrl:ODRL3</text>
</g>
<!-- https://w3id.org/oseg/ont/otrl#ODRL3&#45;&gt;https://w3id.org/oseg/ont/otrl#ODRL -->
<g id="edge34" class="edge">
<title>https://w3id.org/oseg/ont/otrl#ODRL3&#45;&gt;https://w3id.org/oseg/ont/otrl#ODRL</title>
<path fill="none" stroke="black" d="M1478.33,-749.13C1576.59,-741.37 1762.21,-726.72 1863.09,-718.75"/>
<polygon fill="black" stroke="black" points="1863.48,-722.23 1873.18,-717.96 1862.93,-715.25 1863.48,-722.23"/>
</g>
<!-- https://w3id.org/oseg/ont/otrl#ODRL2 -->
<g id="node3" class="node">
<title>https://w3id.org/oseg/ont/otrl#ODRL2</title>
<ellipse fill="none" stroke="#e377c2" cx="1412.36" cy="-703.26" rx="69.09" ry="16.03"/>
<text text-anchor="middle" x="1412.36" y="-699.56" font-family="Times,serif" font-size="14.00">otrl:ODRL2</text>
</g>
<!-- https://w3id.org/oseg/ont/otrl#ODRL2&#45;&gt;https://w3id.org/oseg/ont/otrl#ODRL -->
<g id="edge50" class="edge">
<title>https://w3id.org/oseg/ont/otrl#ODRL2&#45;&gt;https://w3id.org/oseg/ont/otrl#ODRL</title>
<path fill="none" stroke="black" d="M1481.5,-704.58C1579.66,-706.47 1760.04,-709.94 1860.4,-711.87"/>
<polygon fill="black" stroke="black" points="1860.39,-715.37 1870.45,-712.07 1860.52,-708.37 1860.39,-715.37"/>
</g>
<!-- https://w3id.org/oseg/ont/otrl#ODRL1 -->
<g id="node4" class="node">
<title>https://w3id.org/oseg/ont/otrl#ODRL1</title>
<ellipse fill="none" stroke="#e377c2" cx="1412.36" cy="-640.26" rx="69.09" ry="16.03"/>
<text text-anchor="middle" x="1412.36" y="-636.56" font-family="Times,serif" font-size="14.00">otrl:ODRL1</text>
</g>
<!-- https://w3id.org/oseg/ont/otrl#ODRL1&#45;&gt;https://w3id.org/oseg/ont/otrl#ODRL -->
<g id="edge51" class="edge">
<title>https://w3id.org/oseg/ont/otrl#ODRL1&#45;&gt;https://w3id.org/oseg/ont/otrl#ODRL</title>
<path fill="none" stroke="black" d="M1468.67,-649.93C1510.36,-657.07 1568.97,-666.81 1620.57,-674.26 1704.76,-686.43 1802.07,-698.23 1865.34,-705.61"/>
<polygon fill="black" stroke="black" points="1865.24,-709.12 1875.58,-706.8 1866.05,-702.17 1865.24,-709.12"/>
</g>
<!-- https://w3id.org/oseg/ont/otrl#ODRL3Star -->
<g id="node5" class="node">
<title>https://w3id.org/oseg/ont/otrl#ODRL3Star</title>
<ellipse fill="none" stroke="#e377c2" cx="1412.36" cy="-570.26" rx="90.52" ry="16.03"/>
<text text-anchor="middle" x="1412.36" y="-566.56" font-family="Times,serif" font-size="14.00">otrl:ODRL3Star</text>
</g>
<!-- https://w3id.org/oseg/ont/otrl#ODRL3Star&#45;&gt;https://w3id.org/oseg/ont/otrl#ODRL -->
<g id="edge36" class="edge">
<title>https://w3id.org/oseg/ont/otrl#ODRL3Star&#45;&gt;https://w3id.org/oseg/ont/otrl#ODRL</title>
<path fill="none" stroke="black" d="M1498.65,-575.22C1533.78,-580.92 1573.06,-592.43 1602.57,-615.26 1616.09,-625.73 1606.68,-639.29 1620.57,-649.26 1683.48,-694.43 1716.76,-661.38 1792.57,-677.26 1821.98,-683.42 1854.5,-691.7 1880.8,-698.76"/>
<polygon fill="black" stroke="black" points="1879.99,-702.16 1890.55,-701.4 1881.81,-695.4 1879.99,-702.16"/>
</g>
<!-- https://w3id.org/oseg/ont/otrl#OTRL5 -->
<g id="node6" class="node">
<title>https://w3id.org/oseg/ont/otrl#OTRL5</title>
<ellipse fill="none" stroke="#e377c2" cx="1412.36" cy="-371.26" rx="67.35" ry="16.03"/>
<text text-anchor="middle" x="1412.36" y="-367.56" font-family="Times,serif" font-size="14.00">otrl:OTRL5</text>
</g>
<!-- https://w3id.org/oseg/ont/otrl#OTRL -->
<g id="node13" class="node">
<title>https://w3id.org/oseg/ont/otrl#OTRL</title>
<ellipse fill="none" stroke="#e377c2" cx="1933.6" cy="-260.26" rx="60.62" ry="16.03"/>
<text text-anchor="middle" x="1933.6" y="-256.56" font-family="Times,serif" font-size="14.00">otrl:OTRL</text>
</g>
<!-- https://w3id.org/oseg/ont/otrl#OTRL5&#45;&gt;https://w3id.org/oseg/ont/otrl#OTRL -->
<g id="edge1" class="edge">
<title>https://w3id.org/oseg/ont/otrl#OTRL5&#45;&gt;https://w3id.org/oseg/ont/otrl#OTRL</title>
<path fill="none" stroke="black" d="M1474.57,-365.07C1550.2,-356.54 1682.38,-338.8 1792.57,-309.26 1825.47,-300.44 1861.75,-287.66 1889.14,-277.36"/>
<polygon fill="black" stroke="black" points="1890.7,-280.51 1898.81,-273.69 1888.21,-273.97 1890.7,-280.51"/>
</g>
<!-- https://w3id.org/oseg/ont/otrl#OTRL6 -->
<g id="node7" class="node">
<title>https://w3id.org/oseg/ont/otrl#OTRL6</title>
<ellipse fill="none" stroke="#e377c2" cx="1412.36" cy="-320.26" rx="67.35" ry="16.03"/>
<text text-anchor="middle" x="1412.36" y="-316.56" font-family="Times,serif" font-size="14.00">otrl:OTRL6</text>
</g>
<!-- https://w3id.org/oseg/ont/otrl#OTRL6&#45;&gt;https://w3id.org/oseg/ont/otrl#OTRL -->
<g id="edge30" class="edge">
<title>https://w3id.org/oseg/ont/otrl#OTRL6&#45;&gt;https://w3id.org/oseg/ont/otrl#OTRL</title>
<path fill="none" stroke="black" d="M1477.28,-316.02C1552.81,-310.63 1682.17,-300.19 1792.57,-285.26 1819.56,-281.61 1849.29,-276.47 1874.39,-271.79"/>
<polygon fill="black" stroke="black" points="1875.3,-275.18 1884.48,-269.89 1874,-268.3 1875.3,-275.18"/>
</g>
<!-- https://w3id.org/oseg/ont/otrl#OTRL1 -->
<g id="node8" class="node">
<title>https://w3id.org/oseg/ont/otrl#OTRL1</title>
<ellipse fill="none" stroke="#e377c2" cx="1412.36" cy="-218.26" rx="67.35" ry="16.03"/>
<text text-anchor="middle" x="1412.36" y="-214.56" font-family="Times,serif" font-size="14.00">otrl:OTRL1</text>
</g>
<!-- https://w3id.org/oseg/ont/otrl#OTRL1&#45;&gt;https://w3id.org/oseg/ont/otrl#OTRL -->
<g id="edge24" class="edge">
<title>https://w3id.org/oseg/ont/otrl#OTRL1&#45;&gt;https://w3id.org/oseg/ont/otrl#OTRL</title>
<path fill="none" stroke="black" d="M1479.64,-219.32C1555.47,-221.06 1683.27,-225.59 1792.57,-237.26 1819.37,-240.13 1848.85,-244.74 1873.81,-249.09"/>
<polygon fill="black" stroke="black" points="1873.4,-252.58 1883.86,-250.87 1874.62,-245.68 1873.4,-252.58"/>
</g>
<!-- https://w3id.org/oseg/ont/otrl#OTRL2 -->
<g id="node9" class="node">
<title>https://w3id.org/oseg/ont/otrl#OTRL2</title>
<ellipse fill="none" stroke="#e377c2" cx="1412.36" cy="-167.26" rx="67.35" ry="16.03"/>
<text text-anchor="middle" x="1412.36" y="-163.56" font-family="Times,serif" font-size="14.00">otrl:OTRL2</text>
</g>
<!-- https://w3id.org/oseg/ont/otrl#OTRL2&#45;&gt;https://w3id.org/oseg/ont/otrl#OTRL -->
<g id="edge17" class="edge">
<title>https://w3id.org/oseg/ont/otrl#OTRL2&#45;&gt;https://w3id.org/oseg/ont/otrl#OTRL</title>
<path fill="none" stroke="black" d="M1474.88,-173.44C1550.27,-181.6 1681.65,-197.74 1792.57,-221.26 1823.11,-227.74 1856.83,-237.06 1883.53,-244.97"/>
<polygon fill="black" stroke="black" points="1882.81,-248.41 1893.39,-247.92 1884.82,-241.7 1882.81,-248.41"/>
</g>
<!-- http://www.w3.org/2002/07/owl#DatatypeProperty -->
<g id="node10" class="node">
<title>http://www.w3.org/2002/07/owl#DatatypeProperty</title>
<ellipse fill="none" stroke="#1f77b4" cx="1933.6" cy="-538.26" rx="123.07" ry="16.03"/>
<text text-anchor="middle" x="1933.6" y="-534.56" font-family="Times,serif" font-size="14.00">owl:DatatypeProperty</text>
</g>
<!-- https://w3id.org/oseg/ont/otrl#OTRL4 -->
<g id="node11" class="node">
<title>https://w3id.org/oseg/ont/otrl#OTRL4</title>
<ellipse fill="none" stroke="#e377c2" cx="1412.36" cy="-105.26" rx="67.35" ry="16.03"/>
<text text-anchor="middle" x="1412.36" y="-101.56" font-family="Times,serif" font-size="14.00">otrl:OTRL4</text>
</g>
<!-- https://w3id.org/oseg/ont/otrl#OTRL4&#45;&gt;https://w3id.org/oseg/ont/otrl#OTRL -->
<g id="edge48" class="edge">
<title>https://w3id.org/oseg/ont/otrl#OTRL4&#45;&gt;https://w3id.org/oseg/ont/otrl#OTRL</title>
<path fill="none" stroke="black" d="M1471.63,-113.06C1547.32,-124.34 1682.75,-148.44 1792.57,-189.26 1830.21,-203.26 1870.91,-224.66 1898.68,-240.31"/>
<polygon fill="black" stroke="black" points="1897.16,-243.47 1907.58,-245.38 1900.62,-237.39 1897.16,-243.47"/>
</g>
<!-- https://w3id.org/oseg/ont/otrl#OTRL3 -->
<g id="node12" class="node">
<title>https://w3id.org/oseg/ont/otrl#OTRL3</title>
<ellipse fill="none" stroke="#e377c2" cx="1412.36" cy="-29.26" rx="67.35" ry="16.03"/>
<text text-anchor="middle" x="1412.36" y="-25.56" font-family="Times,serif" font-size="14.00">otrl:OTRL3</text>
</g>
<!-- https://w3id.org/oseg/ont/otrl#OTRL3&#45;&gt;https://w3id.org/oseg/ont/otrl#OTRL -->
<g id="edge5" class="edge">
<title>https://w3id.org/oseg/ont/otrl#OTRL3&#45;&gt;https://w3id.org/oseg/ont/otrl#OTRL</title>
<path fill="none" stroke="black" d="M1470.4,-37.62C1547.41,-50.67 1687.09,-80.7 1792.57,-139.26 1839.87,-165.53 1885.53,-209.59 1911.24,-236.67"/>
<polygon fill="black" stroke="black" points="1908.87,-239.26 1918.26,-244.16 1913.98,-234.47 1908.87,-239.26"/>
</g>
<!-- http://www.w3.org/2002/07/owl#Ontology -->
<g id="node14" class="node">
<title>http://www.w3.org/2002/07/owl#Ontology</title>
<ellipse fill="none" stroke="#1f77b4" cx="807.65" cy="-1179.26" rx="77.56" ry="16.03"/>
<text text-anchor="middle" x="807.65" y="-1175.56" font-family="Times,serif" font-size="14.00">owl:Ontology</text>
</g>
<!-- https://orcid.org/0009&#45;0004&#45;3559&#45;6542 -->
<g id="node16" class="node">
<title>https://orcid.org/0009&#45;0004&#45;3559&#45;6542</title>
<ellipse fill="none" stroke="#e377c2" cx="807.65" cy="-1128.26" rx="113.69" ry="16.03"/>
<text text-anchor="middle" x="807.65" y="-1124.56" font-family="Times,serif" font-size="14.00">orcid:0009&#45;0004&#45;3...</text>
</g>
<!-- http://schema.org/Text -->
<g id="node17" class="node">
<title>http://schema.org/Text</title>
<ellipse fill="none" stroke="#e377c2" cx="1933.6" cy="-446.26" rx="74.91" ry="16.03"/>
<text text-anchor="middle" x="1933.6" y="-442.56" font-family="Times,serif" font-size="14.00">schema:Text</text>
</g>
<!-- http://id.loc.gov/vocabulary/iso639&#45;1/en -->
<g id="node18" class="node">
<title>http://id.loc.gov/vocabulary/iso639&#45;1/en</title>
<ellipse fill="none" stroke="#e377c2" cx="807.65" cy="-1077.26" rx="45.01" ry="16.03"/>
<text text-anchor="middle" x="807.65" y="-1073.56" font-family="Times,serif" font-size="14.00">ns1:en</text>
</g>
<!-- https://w3id.org/oseg/ont/otrl -->
<g id="node19" class="node">
<title>https://w3id.org/oseg/ont/otrl</title>
<ellipse fill="none" stroke="#e377c2" cx="196.58" cy="-1042.26" rx="50.82" ry="16.03"/>
<text text-anchor="middle" x="196.58" y="-1038.56" font-family="Times,serif" font-size="14.00">ns2:otrl</text>
</g>
<!-- https://w3id.org/oseg/ont/otrl&#45;&gt;http://www.w3.org/2002/07/owl#Ontology -->
<g id="edge15" class="edge">
<title>https://w3id.org/oseg/ont/otrl&#45;&gt;http://www.w3.org/2002/07/owl#Ontology</title>
<path fill="none" stroke="black" d="M227.83,-1055.13C268.75,-1072.12 344.32,-1102 411.15,-1120.26 517.28,-1149.26 643.57,-1164.97 724.39,-1172.72"/>
<polygon fill="black" stroke="black" points="724.22,-1176.22 734.5,-1173.68 724.88,-1169.26 724.22,-1176.22"/>
<text text-anchor="middle" x="491.15" y="-1155.06" font-family="Times,serif" font-size="14.00">a</text>
</g>
<!-- https://w3id.org/oseg/ont/otrl&#45;&gt;https://orcid.org/0009&#45;0004&#45;3559&#45;6542 -->
<g id="edge4" class="edge">
<title>https://w3id.org/oseg/ont/otrl&#45;&gt;https://orcid.org/0009&#45;0004&#45;3559&#45;6542</title>
<path fill="none" stroke="black" d="M239.99,-1050.82C283,-1059.29 351.52,-1072.28 411.15,-1081.26 510.33,-1096.2 624.08,-1109.3 704.06,-1117.85"/>
<polygon fill="black" stroke="black" points="703.82,-1121.34 714.13,-1118.92 704.56,-1114.38 703.82,-1121.34"/>
<text text-anchor="middle" x="491.15" y="-1105.06" font-family="Times,serif" font-size="14.00">dcterms:creator</text>
</g>
<!-- https://w3id.org/oseg/ont/otrl&#45;&gt;http://id.loc.gov/vocabulary/iso639&#45;1/en -->
<g id="edge12" class="edge">
<title>https://w3id.org/oseg/ont/otrl&#45;&gt;http://id.loc.gov/vocabulary/iso639&#45;1/en</title>
<path fill="none" stroke="black" d="M246.9,-1045.1C359.61,-1051.57 635.31,-1067.42 752.51,-1074.15"/>
<polygon fill="black" stroke="black" points="752.49,-1077.66 762.68,-1074.74 752.9,-1070.67 752.49,-1077.66"/>
<text text-anchor="middle" x="491.15" y="-1066.06" font-family="Times,serif" font-size="14.00">dcterms:language</text>
</g>
<!-- https://www.gnu.org/licenses/gpl&#45;3.0.txt -->
<g id="node20" class="node">
<title>https://www.gnu.org/licenses/gpl&#45;3.0.txt</title>
<ellipse fill="none" stroke="#e377c2" cx="807.65" cy="-1020.26" rx="85.62" ry="16.03"/>
<text text-anchor="middle" x="807.65" y="-1016.56" font-family="Times,serif" font-size="14.00">ns3:gpl&#45;3.0.txt</text>
</g>
<!-- https://w3id.org/oseg/ont/otrl&#45;&gt;https://www.gnu.org/licenses/gpl&#45;3.0.txt -->
<g id="edge19" class="edge">
<title>https://w3id.org/oseg/ont/otrl&#45;&gt;https://www.gnu.org/licenses/gpl&#45;3.0.txt</title>
<path fill="none" stroke="black" d="M247.42,-1040.46C349.25,-1036.79 582.55,-1028.36 713.36,-1023.63"/>
<polygon fill="black" stroke="black" points="713.5,-1027.13 723.37,-1023.27 713.25,-1020.13 713.5,-1027.13"/>
<text text-anchor="middle" x="491.15" y="-1038.06" font-family="Times,serif" font-size="14.00">dcterms:license</text>
</g>
<!-- https://w3id.org/oseg/ont/otrl&#45;&gt;https://www.gnu.org/licenses/gpl&#45;3.0.txt -->
<g id="edge31" class="edge">
<title>https://w3id.org/oseg/ont/otrl&#45;&gt;https://www.gnu.org/licenses/gpl&#45;3.0.txt</title>
<path fill="none" stroke="black" d="M240.72,-1033.87C283.71,-1025.96 351.7,-1014.69 411.15,-1010.26 516.74,-1002.4 638.58,-1007.63 718.8,-1013.04"/>
<polygon fill="black" stroke="black" points="718.65,-1016.54 728.86,-1013.73 719.13,-1009.55 718.65,-1016.54"/>
<text text-anchor="middle" x="491.15" y="-1014.06" font-family="Times,serif" font-size="14.00">cc:license</text>
</g>
<!-- https://orcid.org/0000&#45;0002&#45;1611&#45;7129 -->
<g id="node21" class="node">
<title>https://orcid.org/0000&#45;0002&#45;1611&#45;7129</title>
<ellipse fill="none" stroke="#e377c2" cx="807.65" cy="-966.26" rx="113.69" ry="16.03"/>
<text text-anchor="middle" x="807.65" y="-962.56" font-family="Times,serif" font-size="14.00">orcid:0000&#45;0002&#45;1...</text>
</g>
<!-- https://w3id.org/oseg/ont/otrl&#45;&gt;https://orcid.org/0000&#45;0002&#45;1611&#45;7129 -->
<g id="edge23" class="edge">
<title>https://w3id.org/oseg/ont/otrl&#45;&gt;https://orcid.org/0000&#45;0002&#45;1611&#45;7129</title>
<path fill="none" stroke="black" d="M232.63,-1030.69C274.56,-1017.4 347.13,-996.17 411.15,-986.26 501.53,-972.28 604.78,-967.43 683.11,-966"/>
<polygon fill="black" stroke="black" points="683.57,-969.49 693.51,-965.82 683.45,-962.49 683.57,-969.49"/>
<text text-anchor="middle" x="491.15" y="-990.06" font-family="Times,serif" font-size="14.00">dcterms:creator</text>
</g>
<!-- https://w3id.org/oseg/ont/1.1.0/otrl -->
<g id="node24" class="node">
<title>https://w3id.org/oseg/ont/1.1.0/otrl</title>
<ellipse fill="none" stroke="#e377c2" cx="807.65" cy="-915.26" rx="50.82" ry="16.03"/>
<text text-anchor="middle" x="807.65" y="-911.56" font-family="Times,serif" font-size="14.00">ns4:otrl</text>
</g>
<!-- https://w3id.org/oseg/ont/otrl&#45;&gt;https://w3id.org/oseg/ont/1.1.0/otrl -->
<g id="edge45" class="edge">
<title>https://w3id.org/oseg/ont/otrl&#45;&gt;https://w3id.org/oseg/ont/1.1.0/otrl</title>
<path fill="none" stroke="black" d="M222.97,-1028.34C262.08,-1007.62 340.02,-969.18 411.15,-951.26 527.28,-922.01 667.9,-915.88 746.31,-914.96"/>
<polygon fill="black" stroke="black" points="746.52,-918.46 756.49,-914.87 746.46,-911.46 746.52,-918.46"/>
<text text-anchor="middle" x="491.15" y="-955.06" font-family="Times,serif" font-size="14.00">owl:versionIRI</text>
</g>
<!-- https://w3id.org/oseg/ont/otrl#Odrl4 -->
<g id="node22" class="node">
<title>https://w3id.org/oseg/ont/otrl#Odrl4</title>
<ellipse fill="none" stroke="#e377c2" cx="807.65" cy="-849.26" rx="61.54" ry="16.03"/>
<text text-anchor="middle" x="807.65" y="-845.56" font-family="Times,serif" font-size="14.00">otrl:Odrl4</text>
</g>
<!-- https://w3id.org/oseg/ont/otrl#Odrl4&#45;&gt;https://w3id.org/oseg/ont/otrl#ODRL4 -->
<g id="edge9" class="edge">
<title>https://w3id.org/oseg/ont/otrl#Odrl4&#45;&gt;https://w3id.org/oseg/ont/otrl#ODRL4</title>
<path fill="none" stroke="black" d="M857.06,-859.05C933.51,-872.31 1085.67,-889.66 1204.14,-846.26 1213.92,-842.68 1212.62,-835.47 1222.14,-831.26 1256.52,-816.09 1297.53,-809.26 1332.57,-806.35"/>
<polygon fill="black" stroke="black" points="1333.05,-809.83 1342.77,-805.6 1332.54,-802.85 1333.05,-809.83"/>
<text text-anchor="middle" x="1124.14" y="-878.06" font-family="Times,serif" font-size="14.00">owl:sameAs</text>
</g>
<!-- https://w3id.org/oseg/ont/otrl#Odrl4&#45;&gt;https://w3id.org/oseg/ont/otrl#ODRL4 -->
<g id="edge13" class="edge">
<title>https://w3id.org/oseg/ont/otrl#Odrl4&#45;&gt;https://w3id.org/oseg/ont/otrl#ODRL4</title>
<path fill="none" stroke="black" d="M865.23,-843.44C912.9,-838.67 982.93,-831.95 1044.14,-827.26 1144.19,-819.6 1259.75,-813.05 1334.09,-809.14"/>
<polygon fill="black" stroke="black" points="1334.5,-812.63 1344.3,-808.61 1334.13,-805.64 1334.5,-812.63"/>
<text text-anchor="middle" x="1124.14" y="-831.06" font-family="Times,serif" font-size="14.00">schema:supersededBy</text>
</g>
<!-- https://w3id.org/oseg/ont/otrl#goal -->
<g id="node23" class="node">
<title>https://w3id.org/oseg/ont/otrl#goal</title>
<ellipse fill="none" stroke="#e377c2" cx="1412.36" cy="-519.26" rx="54.39" ry="16.03"/>
<text text-anchor="middle" x="1412.36" y="-515.56" font-family="Times,serif" font-size="14.00">otrl:goal</text>
</g>
<!-- https://w3id.org/oseg/ont/otrl#goal&#45;&gt;http://www.w3.org/2002/07/owl#DatatypeProperty -->
<g id="edge41" class="edge">
<title>https://w3id.org/oseg/ont/otrl#goal&#45;&gt;http://www.w3.org/2002/07/owl#DatatypeProperty</title>
<path fill="none" stroke="black" d="M1465.12,-515.12C1505.57,-514.39 1561.62,-519.13 1602.57,-545.26 1615.04,-553.22 1607.58,-566.17 1620.57,-573.26 1687.66,-609.89 1716.69,-582.6 1792.57,-573.26 1820.12,-569.87 1850.06,-562.86 1875.15,-556"/>
<polygon fill="black" stroke="black" points="1876.18,-559.34 1884.87,-553.28 1874.3,-552.6 1876.18,-559.34"/>
<text text-anchor="middle" x="1706.57" y="-596.06" font-family="Times,serif" font-size="14.00">a</text>
</g>
<!-- https://w3id.org/oseg/ont/otrl#goal&#45;&gt;https://w3id.org/oseg/ont/otrl#OTRL -->
<g id="edge2" class="edge">
<title>https://w3id.org/oseg/ont/otrl#goal&#45;&gt;https://w3id.org/oseg/ont/otrl#OTRL</title>
<path fill="none" stroke="black" d="M1466.95,-518.48C1507.88,-515.32 1563.69,-505.2 1602.57,-475.26 1616.11,-464.83 1606.45,-450.92 1620.57,-441.26 1684.09,-397.82 1724.49,-457.17 1792.57,-421.26 1851.82,-390.01 1897.24,-322.57 1918.8,-285.67"/>
<polygon fill="black" stroke="black" points="1922.09,-286.97 1924,-276.55 1916.01,-283.5 1922.09,-286.97"/>
<text text-anchor="middle" x="1706.57" y="-445.06" font-family="Times,serif" font-size="14.00">schema:domainIncludes</text>
</g>
<!-- https://w3id.org/oseg/ont/otrl#goal&#45;&gt;https://w3id.org/oseg/ont/otrl#ODRL -->
<g id="edge16" class="edge">
<title>https://w3id.org/oseg/ont/otrl#goal&#45;&gt;https://w3id.org/oseg/ont/otrl#ODRL</title>
<path fill="none" stroke="black" d="M1461.67,-512.28C1503.91,-509.02 1564.32,-511.68 1602.57,-545.26 1625.41,-565.32 1597.46,-591.51 1620.57,-611.26 1649.8,-636.25 1756.09,-618.07 1792.57,-630.26 1834.41,-644.25 1877.29,-672.04 1904.39,-691.6"/>
<polygon fill="black" stroke="black" points="1902.48,-694.54 1912.61,-697.63 1906.62,-688.9 1902.48,-694.54"/>
<text text-anchor="middle" x="1706.57" y="-634.06" font-family="Times,serif" font-size="14.00">schema:domainIncludes</text>
</g>
<!-- https://w3id.org/oseg/ont/otrl#goal&#45;&gt;http://schema.org/Text -->
<g id="edge39" class="edge">
<title>https://w3id.org/oseg/ont/otrl#goal&#45;&gt;http://schema.org/Text</title>
<path fill="none" stroke="black" d="M1466.75,-521.01C1540.73,-522.35 1678.25,-520.87 1792.57,-497.26 1826.79,-490.2 1863.89,-476.39 1891.3,-464.92"/>
<polygon fill="black" stroke="black" points="1892.73,-468.11 1900.56,-460.98 1889.99,-461.67 1892.73,-468.11"/>
<text text-anchor="middle" x="1706.57" y="-522.06" font-family="Times,serif" font-size="14.00">range</text>
</g>
<!-- https://w3id.org/oseg/ont/otrl#exitCriteria -->
<g id="node25" class="node">
<title>https://w3id.org/oseg/ont/otrl#exitCriteria</title>
<ellipse fill="none" stroke="#e377c2" cx="1412.36" cy="-450.26" rx="91.43" ry="16.03"/>
<text text-anchor="middle" x="1412.36" y="-446.56" font-family="Times,serif" font-size="14.00">otrl:exitCriteria</text>
</g>
<!-- https://w3id.org/oseg/ont/otrl#exitCriteria&#45;&gt;http://www.w3.org/2002/07/owl#DatatypeProperty -->
<g id="edge53" class="edge">
<title>https://w3id.org/oseg/ont/otrl#exitCriteria&#45;&gt;http://www.w3.org/2002/07/owl#DatatypeProperty</title>
<path fill="none" stroke="black" d="M1502.12,-453.43C1596.56,-457.41 1739.5,-465.32 1792.57,-478.26 1828.42,-487.01 1866.8,-504.05 1894.29,-517.74"/>
<polygon fill="black" stroke="black" points="1893.04,-521.03 1903.54,-522.43 1896.2,-514.79 1893.04,-521.03"/>
<text text-anchor="middle" x="1706.57" y="-482.06" font-family="Times,serif" font-size="14.00">a</text>
</g>
<!-- https://w3id.org/oseg/ont/otrl#exitCriteria&#45;&gt;https://w3id.org/oseg/ont/otrl#OTRL -->
<g id="edge25" class="edge">
<title>https://w3id.org/oseg/ont/otrl#exitCriteria&#45;&gt;https://w3id.org/oseg/ont/otrl#OTRL</title>
<path fill="none" stroke="black" d="M1479.22,-439.05C1516.94,-430.82 1564.24,-417.32 1602.57,-396.26 1611.95,-391.11 1611.05,-385.16 1620.57,-380.26 1690.28,-344.43 1719.59,-369.88 1792.57,-341.26 1832.68,-325.54 1875,-299.57 1902.48,-281.29"/>
<polygon fill="black" stroke="black" points="1904.52,-284.13 1910.86,-275.64 1900.61,-278.33 1904.52,-284.13"/>
<text text-anchor="middle" x="1706.57" y="-384.06" font-family="Times,serif" font-size="14.00">schema:domainIncludes</text>
</g>
<!-- https://w3id.org/oseg/ont/otrl#exitCriteria&#45;&gt;https://w3id.org/oseg/ont/otrl#ODRL -->
<g id="edge35" class="edge">
<title>https://w3id.org/oseg/ont/otrl#exitCriteria&#45;&gt;https://w3id.org/oseg/ont/otrl#ODRL</title>
<path fill="none" stroke="black" d="M1501.37,-453.98C1536.13,-459.43 1574.41,-470.89 1602.57,-494.26 1617.88,-506.97 1604.53,-523.48 1620.57,-535.26 1682.55,-580.8 1724.33,-518.79 1792.57,-554.26 1851.59,-584.94 1897.1,-651.62 1918.74,-688.13"/>
<polygon fill="black" stroke="black" points="1915.92,-690.25 1923.96,-697.15 1921.98,-686.74 1915.92,-690.25"/>
<text text-anchor="middle" x="1706.57" y="-558.06" font-family="Times,serif" font-size="14.00">schema:domainIncludes</text>
</g>
<!-- https://w3id.org/oseg/ont/otrl#exitCriteria&#45;&gt;http://schema.org/Text -->
<g id="edge7" class="edge">
<title>https://w3id.org/oseg/ont/otrl#exitCriteria&#45;&gt;http://schema.org/Text</title>
<path fill="none" stroke="black" d="M1463.13,-436.63C1504.82,-425.95 1566.07,-411.99 1620.57,-406.26 1696.59,-398.28 1716.86,-395.66 1792.57,-406.26 1824.01,-410.67 1858.3,-420.37 1885.08,-429.12"/>
<polygon fill="black" stroke="black" points="1884,-432.45 1894.59,-432.29 1886.21,-425.81 1884,-432.45"/>
<text text-anchor="middle" x="1706.57" y="-410.06" font-family="Times,serif" font-size="14.00">range</text>
</g>
<!-- https://w3id.org/oseg/ont/otrl#Otrl2 -->
<g id="node26" class="node">
<title>https://w3id.org/oseg/ont/otrl#Otrl2</title>
<ellipse fill="none" stroke="black" cx="807.65" cy="-162.26" rx="194.41" ry="16.03"/>
<text text-anchor="middle" x="807.65" y="-158.56" font-family="Times,serif" font-size="14.00">https://w3id.org/oseg/ont/otrl#Otrl2</text>
</g>
<!-- https://w3id.org/oseg/ont/otrl#Otrl2&#45;&gt;https://w3id.org/oseg/ont/otrl#OTRL2 -->
<g id="edge3" class="edge">
<title>https://w3id.org/oseg/ont/otrl#Otrl2&#45;&gt;https://w3id.org/oseg/ont/otrl#OTRL2</title>
<path fill="none" stroke="black" d="M1001.42,-163.86C1114.66,-164.8 1251.51,-165.94 1334.95,-166.63"/>
<polygon fill="black" stroke="black" points="1335.07,-170.13 1345.1,-166.71 1335.13,-163.13 1335.07,-170.13"/>
<text text-anchor="middle" x="1124.14" y="-170.06" font-family="Times,serif" font-size="14.00">schema:supersededBy</text>
</g>
<!-- https://w3id.org/oseg/ont/otrl#Otrl2&#45;&gt;https://w3id.org/oseg/ont/otrl#OTRL2 -->
<g id="edge46" class="edge">
<title>https://w3id.org/oseg/ont/otrl#Otrl2&#45;&gt;https://w3id.org/oseg/ont/otrl#OTRL2</title>
<path fill="none" stroke="black" d="M944.59,-150.66C1020.89,-145.69 1117.84,-141.9 1204.14,-146.26 1250.42,-148.6 1302.28,-153.86 1342.55,-158.53"/>
<polygon fill="black" stroke="black" points="1342.19,-162.01 1352.53,-159.7 1343,-155.06 1342.19,-162.01"/>
<text text-anchor="middle" x="1124.14" y="-150.06" font-family="Times,serif" font-size="14.00">owl:sameAs</text>
</g>
<!-- https://w3id.org/oseg/ont/otrl#Odrl1 -->
<g id="node27" class="node">
<title>https://w3id.org/oseg/ont/otrl#Odrl1</title>
<ellipse fill="none" stroke="black" cx="807.65" cy="-621.26" rx="196.65" ry="16.03"/>
<text text-anchor="middle" x="807.65" y="-617.56" font-family="Times,serif" font-size="14.00">https://w3id.org/oseg/ont/otrl#Odrl1</text>
</g>
<!-- https://w3id.org/oseg/ont/otrl#Odrl1&#45;&gt;https://w3id.org/oseg/ont/otrl#ODRL1 -->
<g id="edge6" class="edge">
<title>https://w3id.org/oseg/ont/otrl#Odrl1&#45;&gt;https://w3id.org/oseg/ont/otrl#ODRL1</title>
<path fill="none" stroke="black" d="M991.52,-627.03C1105.86,-630.63 1247.27,-635.09 1333.32,-637.8"/>
<polygon fill="black" stroke="black" points="1333.43,-641.31 1343.53,-638.13 1333.65,-634.31 1333.43,-641.31"/>
<text text-anchor="middle" x="1124.14" y="-638.06" font-family="Times,serif" font-size="14.00">owl:sameAs</text>
</g>
<!-- https://w3id.org/oseg/ont/otrl#Odrl1&#45;&gt;https://w3id.org/oseg/ont/otrl#ODRL1 -->
<g id="edge43" class="edge">
<title>https://w3id.org/oseg/ont/otrl#Odrl1&#45;&gt;https://w3id.org/oseg/ont/otrl#ODRL1</title>
<path fill="none" stroke="black" d="M953.44,-610.33C1028.36,-606.42 1121.24,-604.29 1204.14,-610.26 1252.44,-613.74 1306.58,-621.72 1347.41,-628.58"/>
<polygon fill="black" stroke="black" points="1347.04,-632.07 1357.49,-630.29 1348.22,-625.17 1347.04,-632.07"/>
<text text-anchor="middle" x="1124.14" y="-614.06" font-family="Times,serif" font-size="14.00">schema:supersededBy</text>
</g>
<!-- https://w3id.org/oseg/ont/otrl#Otrl3 -->
<g id="node28" class="node">
<title>https://w3id.org/oseg/ont/otrl#Otrl3</title>
<ellipse fill="none" stroke="black" cx="807.65" cy="-16.26" rx="194.41" ry="16.03"/>
<text text-anchor="middle" x="807.65" y="-12.56" font-family="Times,serif" font-size="14.00">https://w3id.org/oseg/ont/otrl#Otrl3</text>
</g>
<!-- https://w3id.org/oseg/ont/otrl#Otrl3&#45;&gt;https://w3id.org/oseg/ont/otrl#OTRL3 -->
<g id="edge8" class="edge">
<title>https://w3id.org/oseg/ont/otrl#Otrl3&#45;&gt;https://w3id.org/oseg/ont/otrl#OTRL3</title>
<path fill="none" stroke="black" d="M996.04,-20.31C1110.44,-22.77 1250.53,-25.79 1335.26,-27.62"/>
<polygon fill="black" stroke="black" points="1335.24,-31.12 1345.31,-27.84 1335.39,-24.12 1335.24,-31.12"/>
<text text-anchor="middle" x="1124.14" y="-29.06" font-family="Times,serif" font-size="14.00">owl:sameAs</text>
</g>
<!-- https://w3id.org/oseg/ont/otrl#Otrl3&#45;&gt;https://w3id.org/oseg/ont/otrl#OTRL3 -->
<g id="edge32" class="edge">
<title>https://w3id.org/oseg/ont/otrl#Otrl3&#45;&gt;https://w3id.org/oseg/ont/otrl#OTRL3</title>
<path fill="none" stroke="black" d="M949.69,-5.12C1025.21,-0.79 1119.81,2.01 1204.14,-3.26 1251.68,-6.23 1304.99,-13 1345.64,-18.89"/>
<polygon fill="black" stroke="black" points="1345.28,-22.37 1355.69,-20.36 1346.3,-15.45 1345.28,-22.37"/>
<text text-anchor="middle" x="1124.14" y="-7.06" font-family="Times,serif" font-size="14.00">schema:supersededBy</text>
</g>
<!-- https://w3id.org/oseg/ont/otrl#Odrl3 -->
<g id="node29" class="node">
<title>https://w3id.org/oseg/ont/otrl#Odrl3</title>
<ellipse fill="none" stroke="black" cx="807.65" cy="-766.26" rx="196.65" ry="16.03"/>
<text text-anchor="middle" x="807.65" y="-762.56" font-family="Times,serif" font-size="14.00">https://w3id.org/oseg/ont/otrl#Odrl3</text>
</g>
<!-- https://w3id.org/oseg/ont/otrl#Odrl3&#45;&gt;https://w3id.org/oseg/ont/otrl#ODRL3 -->
<g id="edge11" class="edge">
<title>https://w3id.org/oseg/ont/otrl#Odrl3&#45;&gt;https://w3id.org/oseg/ont/otrl#ODRL3</title>
<path fill="none" stroke="black" d="M992.81,-771.84C1059.42,-772.88 1135.19,-772.92 1204.14,-770.26 1248.59,-768.55 1298.27,-764.78 1337.85,-761.32"/>
<polygon fill="black" stroke="black" points="1338.29,-764.8 1347.95,-760.43 1337.68,-757.83 1338.29,-764.8"/>
<text text-anchor="middle" x="1124.14" y="-777.06" font-family="Times,serif" font-size="14.00">schema:supersededBy</text>
</g>
<!-- https://w3id.org/oseg/ont/otrl#Odrl3&#45;&gt;https://w3id.org/oseg/ont/otrl#ODRL3 -->
<g id="edge52" class="edge">
<title>https://w3id.org/oseg/ont/otrl#Odrl3&#45;&gt;https://w3id.org/oseg/ont/otrl#ODRL3</title>
<path fill="none" stroke="black" d="M955.24,-755.48C984.67,-753.72 1015.38,-752.18 1044.14,-751.26 1115.22,-749 1133.03,-750.75 1204.14,-751.26 1246.75,-751.57 1294.27,-752.24 1333.05,-752.86"/>
<polygon fill="black" stroke="black" points="1333.17,-756.36 1343.23,-753.03 1333.29,-749.37 1333.17,-756.36"/>
<text text-anchor="middle" x="1124.14" y="-755.06" font-family="Times,serif" font-size="14.00">owl:sameAs</text>
</g>
<!-- https://w3id.org/oseg/ont/otrl#Otrl5 -->
<g id="node30" class="node">
<title>https://w3id.org/oseg/ont/otrl#Otrl5</title>
<ellipse fill="none" stroke="black" cx="807.65" cy="-390.26" rx="194.41" ry="16.03"/>
<text text-anchor="middle" x="807.65" y="-386.56" font-family="Times,serif" font-size="14.00">https://w3id.org/oseg/ont/otrl#Otrl5</text>
</g>
<!-- https://w3id.org/oseg/ont/otrl#Otrl5&#45;&gt;https://w3id.org/oseg/ont/otrl#OTRL5 -->
<g id="edge14" class="edge">
<title>https://w3id.org/oseg/ont/otrl#Otrl5&#45;&gt;https://w3id.org/oseg/ont/otrl#OTRL5</title>
<path fill="none" stroke="black" d="M1001.58,-391.48C1066.02,-391.17 1138.2,-390.06 1204.14,-387.26 1249.08,-385.36 1299.38,-381.52 1339.17,-378.07"/>
<polygon fill="black" stroke="black" points="1339.66,-381.55 1349.31,-377.19 1339.04,-374.57 1339.66,-381.55"/>
<text text-anchor="middle" x="1124.14" y="-395.06" font-family="Times,serif" font-size="14.00">owl:sameAs</text>
</g>
<!-- https://w3id.org/oseg/ont/otrl#Otrl5&#45;&gt;https://w3id.org/oseg/ont/otrl#OTRL5 -->
<g id="edge47" class="edge">
<title>https://w3id.org/oseg/ont/otrl#Otrl5&#45;&gt;https://w3id.org/oseg/ont/otrl#OTRL5</title>
<path fill="none" stroke="black" d="M924.68,-377.26C962.7,-373.58 1005.18,-370.08 1044.14,-368.26 1115.18,-364.95 1133.03,-367.75 1204.14,-368.26 1247.41,-368.58 1295.75,-369.26 1334.85,-369.89"/>
<polygon fill="black" stroke="black" points="1335.04,-373.4 1345.1,-370.06 1335.16,-366.4 1335.04,-373.4"/>
<text text-anchor="middle" x="1124.14" y="-372.06" font-family="Times,serif" font-size="14.00">schema:supersededBy</text>
</g>
<!-- https://w3id.org/oseg/ont/otrl#Otrl -->
<g id="node31" class="node">
<title>https://w3id.org/oseg/ont/otrl#Otrl</title>
<ellipse fill="none" stroke="black" cx="1412.36" cy="-269.26" rx="188.18" ry="16.03"/>
<text text-anchor="middle" x="1412.36" y="-265.56" font-family="Times,serif" font-size="14.00">https://w3id.org/oseg/ont/otrl#Otrl</text>
</g>
<!-- https://w3id.org/oseg/ont/otrl#Otrl&#45;&gt;https://w3id.org/oseg/ont/otrl#OTRL -->
<g id="edge18" class="edge">
<title>https://w3id.org/oseg/ont/otrl#Otrl&#45;&gt;https://w3id.org/oseg/ont/otrl#OTRL</title>
<path fill="none" stroke="black" d="M1597.15,-266.08C1689,-264.49 1794.74,-262.65 1862.55,-261.48"/>
<polygon fill="black" stroke="black" points="1862.74,-264.97 1872.68,-261.3 1862.62,-257.98 1862.74,-264.97"/>
<text text-anchor="middle" x="1706.57" y="-270.06" font-family="Times,serif" font-size="14.00">schema:supersededBy</text>
</g>
<!-- https://w3id.org/oseg/ont/otrl#Otrl&#45;&gt;https://w3id.org/oseg/ont/otrl#OTRL -->
<g id="edge54" class="edge">
<title>https://w3id.org/oseg/ont/otrl#Otrl&#45;&gt;https://w3id.org/oseg/ont/otrl#OTRL</title>
<path fill="none" stroke="black" d="M1509.08,-255.28C1544.08,-250.81 1584.04,-246.46 1620.57,-244.26 1696.87,-239.68 1716.25,-239.92 1792.57,-244.26 1817.79,-245.7 1845.45,-248.58 1869.47,-251.51"/>
<polygon fill="black" stroke="black" points="1869.17,-255 1879.53,-252.76 1870.04,-248.05 1869.17,-255"/>
<text text-anchor="middle" x="1706.57" y="-248.06" font-family="Times,serif" font-size="14.00">owl:sameAs</text>
</g>
<!-- https://w3id.org/oseg/ont/otrl#Odrl -->
<g id="node32" class="node">
<title>https://w3id.org/oseg/ont/otrl#Odrl</title>
<ellipse fill="none" stroke="black" cx="1412.36" cy="-856.26" rx="190.42" ry="16.03"/>
<text text-anchor="middle" x="1412.36" y="-852.56" font-family="Times,serif" font-size="14.00">https://w3id.org/oseg/ont/otrl#Odrl</text>
</g>
<!-- https://w3id.org/oseg/ont/otrl#Odrl&#45;&gt;https://w3id.org/oseg/ont/otrl#ODRL -->
<g id="edge20" class="edge">
<title>https://w3id.org/oseg/ont/otrl#Odrl&#45;&gt;https://w3id.org/oseg/ont/otrl#ODRL</title>
<path fill="none" stroke="black" d="M1554.05,-845.36C1570.76,-841.62 1587.29,-836.7 1602.57,-830.26 1611.91,-826.33 1611.43,-820.65 1620.57,-816.26 1691.41,-782.26 1718.1,-800.39 1792.57,-775.26 1828.17,-763.25 1867.15,-745.6 1894.92,-732.21"/>
<polygon fill="black" stroke="black" points="1896.79,-735.19 1904.25,-727.66 1893.73,-728.89 1896.79,-735.19"/>
<text text-anchor="middle" x="1706.57" y="-820.06" font-family="Times,serif" font-size="14.00">owl:sameAs</text>
</g>
<!-- https://w3id.org/oseg/ont/otrl#Odrl&#45;&gt;https://w3id.org/oseg/ont/otrl#ODRL -->
<g id="edge37" class="edge">
<title>https://w3id.org/oseg/ont/otrl#Odrl&#45;&gt;https://w3id.org/oseg/ont/otrl#ODRL</title>
<path fill="none" stroke="black" d="M1549.53,-867.54C1623.87,-868.77 1716.07,-862.09 1792.57,-831.26 1842.76,-811.04 1888.11,-765.55 1912.87,-737.33"/>
<polygon fill="black" stroke="black" points="1915.72,-739.38 1919.59,-729.52 1910.41,-734.82 1915.72,-739.38"/>
<text text-anchor="middle" x="1706.57" y="-870.06" font-family="Times,serif" font-size="14.00">schema:supersededBy</text>
</g>
<!-- https://w3id.org/oseg/ont/otrl#Otrl1 -->
<g id="node33" class="node">
<title>https://w3id.org/oseg/ont/otrl#Otrl1</title>
<ellipse fill="none" stroke="black" cx="807.65" cy="-244.26" rx="194.41" ry="16.03"/>
<text text-anchor="middle" x="807.65" y="-240.56" font-family="Times,serif" font-size="14.00">https://w3id.org/oseg/ont/otrl#Otrl1</text>
</g>
<!-- https://w3id.org/oseg/ont/otrl#Otrl1&#45;&gt;https://w3id.org/oseg/ont/otrl#OTRL1 -->
<g id="edge21" class="edge">
<title>https://w3id.org/oseg/ont/otrl#Otrl1&#45;&gt;https://w3id.org/oseg/ont/otrl#OTRL1</title>
<path fill="none" stroke="black" d="M1000.59,-242.18C1065.28,-240.87 1137.87,-238.73 1204.14,-235.26 1249.24,-232.9 1299.75,-228.79 1339.61,-225.2"/>
<polygon fill="black" stroke="black" points="1340.12,-228.67 1349.76,-224.28 1339.49,-221.7 1340.12,-228.67"/>
<text text-anchor="middle" x="1124.14" y="-245.06" font-family="Times,serif" font-size="14.00">owl:sameAs</text>
</g>
<!-- https://w3id.org/oseg/ont/otrl#Otrl1&#45;&gt;https://w3id.org/oseg/ont/otrl#OTRL1 -->
<g id="edge38" class="edge">
<title>https://w3id.org/oseg/ont/otrl#Otrl1&#45;&gt;https://w3id.org/oseg/ont/otrl#OTRL1</title>
<path fill="none" stroke="black" d="M905.23,-230.17C947.73,-224.64 998.32,-218.98 1044.14,-216.26 1115.13,-212.06 1133.03,-215.92 1204.14,-216.26 1247.41,-216.47 1295.75,-216.93 1334.85,-217.35"/>
<polygon fill="black" stroke="black" points="1335.06,-220.85 1345.1,-217.46 1335.14,-213.85 1335.06,-220.85"/>
<text text-anchor="middle" x="1124.14" y="-220.06" font-family="Times,serif" font-size="14.00">schema:supersededBy</text>
</g>
<!-- https://w3id.org/oseg/ont/otrl#Otrl6 -->
<g id="node34" class="node">
<title>https://w3id.org/oseg/ont/otrl#Otrl6</title>
<ellipse fill="none" stroke="black" cx="807.65" cy="-307.26" rx="194.41" ry="16.03"/>
<text text-anchor="middle" x="807.65" y="-303.56" font-family="Times,serif" font-size="14.00">https://w3id.org/oseg/ont/otrl#Otrl6</text>
</g>
<!-- https://w3id.org/oseg/ont/otrl#Otrl6&#45;&gt;https://w3id.org/oseg/ont/otrl#OTRL6 -->
<g id="edge22" class="edge">
<title>https://w3id.org/oseg/ont/otrl#Otrl6&#45;&gt;https://w3id.org/oseg/ont/otrl#OTRL6</title>
<path fill="none" stroke="black" d="M996.04,-311.31C1110.44,-313.77 1250.53,-316.79 1335.26,-318.62"/>
<polygon fill="black" stroke="black" points="1335.24,-322.12 1345.31,-318.84 1335.39,-315.12 1335.24,-322.12"/>
<text text-anchor="middle" x="1124.14" y="-320.06" font-family="Times,serif" font-size="14.00">schema:supersededBy</text>
</g>
<!-- https://w3id.org/oseg/ont/otrl#Otrl6&#45;&gt;https://w3id.org/oseg/ont/otrl#OTRL6 -->
<g id="edge44" class="edge">
<title>https://w3id.org/oseg/ont/otrl#Otrl6&#45;&gt;https://w3id.org/oseg/ont/otrl#OTRL6</title>
<path fill="none" stroke="black" d="M949.69,-296.12C1025.21,-291.79 1119.81,-288.99 1204.14,-294.26 1251.68,-297.23 1304.99,-304 1345.64,-309.89"/>
<polygon fill="black" stroke="black" points="1345.28,-313.37 1355.69,-311.36 1346.3,-306.45 1345.28,-313.37"/>
<text text-anchor="middle" x="1124.14" y="-298.06" font-family="Times,serif" font-size="14.00">owl:sameAs</text>
</g>
<!-- https://w3id.org/oseg/ont/otrl#Otrl4 -->
<g id="node35" class="node">
<title>https://w3id.org/oseg/ont/otrl#Otrl4</title>
<ellipse fill="none" stroke="black" cx="807.65" cy="-79.26" rx="194.41" ry="16.03"/>
<text text-anchor="middle" x="807.65" y="-75.56" font-family="Times,serif" font-size="14.00">https://w3id.org/oseg/ont/otrl#Otrl4</text>
</g>
<!-- https://w3id.org/oseg/ont/otrl#Otrl4&#45;&gt;https://w3id.org/oseg/ont/otrl#OTRL4 -->
<g id="edge26" class="edge">
<title>https://w3id.org/oseg/ont/otrl#Otrl4&#45;&gt;https://w3id.org/oseg/ont/otrl#OTRL4</title>
<path fill="none" stroke="black" d="M980.96,-86.7C1098.08,-91.75 1247.27,-98.19 1335.71,-102"/>
<polygon fill="black" stroke="black" points="1335.78,-105.51 1345.93,-102.44 1336.09,-98.51 1335.78,-105.51"/>
<text text-anchor="middle" x="1124.14" y="-100.06" font-family="Times,serif" font-size="14.00">owl:sameAs</text>
</g>
<!-- https://w3id.org/oseg/ont/otrl#Otrl4&#45;&gt;https://w3id.org/oseg/ont/otrl#OTRL4 -->
<g id="edge28" class="edge">
<title>https://w3id.org/oseg/ont/otrl#Otrl4&#45;&gt;https://w3id.org/oseg/ont/otrl#OTRL4</title>
<path fill="none" stroke="black" d="M959.11,-69.06C1033.03,-65.87 1123.37,-64.68 1204.14,-71.26 1253.99,-75.33 1309.92,-84.8 1351.1,-92.72"/>
<polygon fill="black" stroke="black" points="1350.48,-96.16 1360.97,-94.64 1351.82,-89.29 1350.48,-96.16"/>
<text text-anchor="middle" x="1124.14" y="-75.06" font-family="Times,serif" font-size="14.00">schema:supersededBy</text>
</g>
<!-- https://w3id.org/oseg/ont/otrl#Odrl2 -->
<g id="node36" class="node">
<title>https://w3id.org/oseg/ont/otrl#Odrl2</title>
<ellipse fill="none" stroke="black" cx="807.65" cy="-696.26" rx="196.65" ry="16.03"/>
<text text-anchor="middle" x="807.65" y="-692.56" font-family="Times,serif" font-size="14.00">https://w3id.org/oseg/ont/otrl#Odrl2</text>
</g>
<!-- https://w3id.org/oseg/ont/otrl#Odrl2&#45;&gt;https://w3id.org/oseg/ont/otrl#ODRL2 -->
<g id="edge27" class="edge">
<title>https://w3id.org/oseg/ont/otrl#Odrl2&#45;&gt;https://w3id.org/oseg/ont/otrl#ODRL2</title>
<path fill="none" stroke="black" d="M1002.67,-698.52C1114.65,-699.82 1249.39,-701.38 1332.71,-702.35"/>
<polygon fill="black" stroke="black" points="1332.82,-705.85 1342.86,-702.47 1332.9,-698.85 1332.82,-705.85"/>
<text text-anchor="middle" x="1124.14" y="-705.06" font-family="Times,serif" font-size="14.00">owl:sameAs</text>
</g>
<!-- https://w3id.org/oseg/ont/otrl#Odrl2&#45;&gt;https://w3id.org/oseg/ont/otrl#ODRL2 -->
<g id="edge40" class="edge">
<title>https://w3id.org/oseg/ont/otrl#Odrl2&#45;&gt;https://w3id.org/oseg/ont/otrl#ODRL2</title>
<path fill="none" stroke="black" d="M943.24,-684.44C1019.76,-679.31 1117.35,-675.46 1204.14,-680.26 1250.45,-682.83 1302.32,-688.59 1342.58,-693.7"/>
<polygon fill="black" stroke="black" points="1342.19,-697.18 1352.55,-694.98 1343.08,-690.24 1342.19,-697.18"/>
<text text-anchor="middle" x="1124.14" y="-684.06" font-family="Times,serif" font-size="14.00">schema:supersededBy</text>
</g>
<!-- https://w3id.org/oseg/ont/otrl#Odrl3Star -->
<g id="node37" class="node">
<title>https://w3id.org/oseg/ont/otrl#Odrl3Star</title>
<ellipse fill="none" stroke="black" cx="807.65" cy="-545.26" rx="218.49" ry="16.03"/>
<text text-anchor="middle" x="807.65" y="-541.56" font-family="Times,serif" font-size="14.00">https://w3id.org/oseg/ont/otrl#Odrl3Star</text>
</g>
<!-- https://w3id.org/oseg/ont/otrl#Odrl3Star&#45;&gt;https://w3id.org/oseg/ont/otrl#ODRL3Star -->
<g id="edge29" class="edge">
<title>https://w3id.org/oseg/ont/otrl#Odrl3Star&#45;&gt;https://w3id.org/oseg/ont/otrl#ODRL3Star</title>
<path fill="none" stroke="black" d="M998.93,-553.16C1103.52,-557.49 1228.85,-562.69 1313.69,-566.21"/>
<polygon fill="black" stroke="black" points="1313.7,-569.72 1323.83,-566.63 1313.99,-562.72 1313.7,-569.72"/>
<text text-anchor="middle" x="1124.14" y="-566.06" font-family="Times,serif" font-size="14.00">owl:sameAs</text>
</g>
<!-- https://w3id.org/oseg/ont/otrl#Odrl3Star&#45;&gt;https://w3id.org/oseg/ont/otrl#ODRL3Star -->
<g id="edge42" class="edge">
<title>https://w3id.org/oseg/ont/otrl#Odrl3Star&#45;&gt;https://w3id.org/oseg/ont/otrl#ODRL3Star</title>
<path fill="none" stroke="black" d="M917.48,-531.18C997.48,-523.69 1108.46,-519.31 1204.14,-537.26 1212.58,-538.85 1213.83,-542.11 1222.14,-544.26 1253.57,-552.41 1288.63,-558.13 1319.95,-562.09"/>
<polygon fill="black" stroke="black" points="1319.63,-565.57 1329.98,-563.31 1320.48,-558.62 1319.63,-565.57"/>
<text text-anchor="middle" x="1124.14" y="-541.06" font-family="Times,serif" font-size="14.00">schema:supersededBy</text>
</g>
<!-- https://w3id.org/oseg/ont/otrl#Odrl5 -->
<g id="node38" class="node">
<title>https://w3id.org/oseg/ont/otrl#Odrl5</title>
<ellipse fill="none" stroke="black" cx="196.58" cy="-852.26" rx="196.65" ry="16.03"/>
<text text-anchor="middle" x="196.58" y="-848.56" font-family="Times,serif" font-size="14.00">https://w3id.org/oseg/ont/otrl#Odrl5</text>
</g>
<!-- https://w3id.org/oseg/ont/otrl#Odrl5&#45;&gt;https://w3id.org/oseg/ont/otrl#Odrl4 -->
<g id="edge33" class="edge">
<title>https://w3id.org/oseg/ont/otrl#Odrl5&#45;&gt;https://w3id.org/oseg/ont/otrl#Odrl4</title>
<path fill="none" stroke="black" d="M393.22,-851.3C510.43,-850.72 652.42,-850.02 735.81,-849.61"/>
<polygon fill="black" stroke="black" points="735.95,-853.11 745.94,-849.56 735.92,-846.11 735.95,-853.11"/>
<text text-anchor="middle" x="491.15" y="-855.06" font-family="Times,serif" font-size="14.00">owl:sameAs</text>
</g>
<!-- https://w3id.org/oseg/ont/otrl#Odrl5&#45;&gt;https://w3id.org/oseg/ont/otrl#Odrl4 -->
<g id="edge49" class="edge">
<title>https://w3id.org/oseg/ont/otrl#Odrl5&#45;&gt;https://w3id.org/oseg/ont/otrl#Odrl4</title>
<path fill="none" stroke="black" d="M315.22,-839.26C346.37,-836.36 380,-833.72 411.15,-832.26 526.46,-826.88 660.7,-835.88 739.4,-842.7"/>
<polygon fill="black" stroke="black" points="739.39,-846.22 749.66,-843.61 740.01,-839.24 739.39,-846.22"/>
<text text-anchor="middle" x="491.15" y="-836.06" font-family="Times,serif" font-size="14.00">schema:supersededBy</text>
</g>
</g>
</svg>
