<?xml version="1.0" encoding="UTF-8" standalone="no"?>
<!DOCTYPE svg PUBLIC "-//W3C//DTD SVG 1.1//EN"
 "http://www.w3.org/Graphics/SVG/1.1/DTD/svg11.dtd">
<!-- Generated by graphviz version 2.43.0 (0)
 -->
<!-- Title: G Pages: 1 -->
<svg width="2405pt" height="1649pt"
 viewBox="0.00 0.00 2405.00 1649.00" xmlns="http://www.w3.org/2000/svg" xmlns:xlink="http://www.w3.org/1999/xlink">
<g id="graph0" class="graph" transform="scale(1 1) rotate(0) translate(4 1645)">
<title>G</title>
<polygon fill="white" stroke="transparent" points="-4,4 -4,-1645 2401,-1645 2401,4 -4,4"/>
<!-- https://w3id.org/oseg/ont/otrl#ODRL4 -->
<g id="node1" class="node">
<title>https://w3id.org/oseg/ont/otrl#ODRL4</title>
<ellipse fill="none" stroke="#e377c2" cx="1089.03" cy="-1372.71" rx="69.09" ry="16.03"/>
<text text-anchor="middle" x="1089.03" y="-1369.01" font-family="Times,serif" font-size="14.00">otrl:ODRL4</text>
</g>
<!-- https://w3id.org/oseg/ont/otrl#ODRL -->
<g id="node13" class="node">
<title>https://w3id.org/oseg/ont/otrl#ODRL</title>
<ellipse fill="none" stroke="#e377c2" cx="992.35" cy="-1137.08" rx="62.87" ry="16.03"/>
<text text-anchor="middle" x="992.35" y="-1133.38" font-family="Times,serif" font-size="14.00">otrl:ODRL</text>
</g>
<!-- https://w3id.org/oseg/ont/otrl#ODRL4&#45;&gt;https://w3id.org/oseg/ont/otrl#ODRL -->
<g id="edge10" class="edge">
<title>https://w3id.org/oseg/ont/otrl#ODRL4&#45;&gt;https://w3id.org/oseg/ont/otrl#ODRL</title>
<path fill="none" stroke="black" d="M1082.38,-1356.52C1065.89,-1316.33 1022.99,-1211.77 1002.95,-1162.92"/>
<polygon fill="black" stroke="black" points="1006.07,-1161.31 999.04,-1153.39 999.6,-1163.97 1006.07,-1161.31"/>
</g>
<!-- https://w3id.org/oseg/ont/otrl#ODRL3 -->
<g id="node2" class="node">
<title>https://w3id.org/oseg/ont/otrl#ODRL3</title>
<ellipse fill="none" stroke="#e377c2" cx="1307.18" cy="-1075.02" rx="69.09" ry="16.03"/>
<text text-anchor="middle" x="1307.18" y="-1071.32" font-family="Times,serif" font-size="14.00">otrl:ODRL3</text>
</g>
<!-- https://w3id.org/oseg/ont/otrl#ODRL3&#45;&gt;https://w3id.org/oseg/ont/otrl#ODRL -->
<g id="edge33" class="edge">
<title>https://w3id.org/oseg/ont/otrl#ODRL3&#45;&gt;https://w3id.org/oseg/ont/otrl#ODRL</title>
<path fill="none" stroke="black" d="M1253.77,-1085.55C1198.08,-1096.53 1110.95,-1113.7 1052.78,-1125.17"/>
<polygon fill="black" stroke="black" points="1051.76,-1121.8 1042.63,-1127.17 1053.12,-1128.67 1051.76,-1121.8"/>
</g>
<!-- https://w3id.org/oseg/ont/otrl#ODRL2 -->
<g id="node3" class="node">
<title>https://w3id.org/oseg/ont/otrl#ODRL2</title>
<ellipse fill="none" stroke="#e377c2" cx="762.95" cy="-1320.77" rx="69.09" ry="16.03"/>
<text text-anchor="middle" x="762.95" y="-1317.07" font-family="Times,serif" font-size="14.00">otrl:ODRL2</text>
</g>
<!-- https://w3id.org/oseg/ont/otrl#ODRL2&#45;&gt;https://w3id.org/oseg/ont/otrl#ODRL -->
<g id="edge48" class="edge">
<title>https://w3id.org/oseg/ont/otrl#ODRL2&#45;&gt;https://w3id.org/oseg/ont/otrl#ODRL</title>
<path fill="none" stroke="black" d="M782.51,-1305.11C823.39,-1272.37 917.99,-1196.62 964.92,-1159.04"/>
<polygon fill="black" stroke="black" points="967.22,-1161.69 972.84,-1152.7 962.84,-1156.22 967.22,-1161.69"/>
</g>
<!-- https://w3id.org/oseg/ont/otrl#ODRL1 -->
<g id="node4" class="node">
<title>https://w3id.org/oseg/ont/otrl#ODRL1</title>
<ellipse fill="none" stroke="#e377c2" cx="917.76" cy="-1397.05" rx="69.09" ry="16.03"/>
<text text-anchor="middle" x="917.76" y="-1393.35" font-family="Times,serif" font-size="14.00">otrl:ODRL1</text>
</g>
<!-- https://w3id.org/oseg/ont/otrl#ODRL1&#45;&gt;https://w3id.org/oseg/ont/otrl#ODRL -->
<g id="edge49" class="edge">
<title>https://w3id.org/oseg/ont/otrl#ODRL1&#45;&gt;https://w3id.org/oseg/ont/otrl#ODRL</title>
<path fill="none" stroke="black" d="M922.43,-1380.78C934.99,-1337.02 969.58,-1216.44 984.89,-1163.07"/>
<polygon fill="black" stroke="black" points="988.29,-1163.92 987.68,-1153.34 981.56,-1161.98 988.29,-1163.92"/>
</g>
<!-- https://w3id.org/oseg/ont/otrl#ODRL3Star -->
<g id="node5" class="node">
<title>https://w3id.org/oseg/ont/otrl#ODRL3Star</title>
<ellipse fill="none" stroke="#e377c2" cx="679.52" cy="-1078.16" rx="90.52" ry="16.03"/>
<text text-anchor="middle" x="679.52" y="-1074.46" font-family="Times,serif" font-size="14.00">otrl:ODRL3Star</text>
</g>
<!-- https://w3id.org/oseg/ont/otrl#ODRL3Star&#45;&gt;https://w3id.org/oseg/ont/otrl#ODRL -->
<g id="edge35" class="edge">
<title>https://w3id.org/oseg/ont/otrl#ODRL3Star&#45;&gt;https://w3id.org/oseg/ont/otrl#ODRL</title>
<path fill="none" stroke="black" d="M742.07,-1089.94C797.13,-1100.31 876.81,-1115.32 931.38,-1125.6"/>
<polygon fill="black" stroke="black" points="930.79,-1129.05 941.27,-1127.46 932.09,-1122.17 930.79,-1129.05"/>
</g>
<!-- https://w3id.org/oseg/ont/otrl#OTRL5 -->
<g id="node6" class="node">
<title>https://w3id.org/oseg/ont/otrl#OTRL5</title>
<ellipse fill="none" stroke="#e377c2" cx="1286.8" cy="-421.86" rx="67.35" ry="16.03"/>
<text text-anchor="middle" x="1286.8" y="-418.16" font-family="Times,serif" font-size="14.00">otrl:OTRL5</text>
</g>
<!-- https://w3id.org/oseg/ont/otrl#OTRL -->
<g id="node12" class="node">
<title>https://w3id.org/oseg/ont/otrl#OTRL</title>
<ellipse fill="none" stroke="#e377c2" cx="1371.33" cy="-671.27" rx="60.62" ry="16.03"/>
<text text-anchor="middle" x="1371.33" y="-667.57" font-family="Times,serif" font-size="14.00">otrl:OTRL</text>
</g>
<!-- https://w3id.org/oseg/ont/otrl#OTRL5&#45;&gt;https://w3id.org/oseg/ont/otrl#OTRL -->
<g id="edge1" class="edge">
<title>https://w3id.org/oseg/ont/otrl#OTRL5&#45;&gt;https://w3id.org/oseg/ont/otrl#OTRL</title>
<path fill="none" stroke="black" d="M1292.35,-438.22C1306.68,-480.5 1345.03,-593.65 1362.47,-645.12"/>
<polygon fill="black" stroke="black" points="1359.24,-646.49 1365.76,-654.84 1365.87,-644.25 1359.24,-646.49"/>
</g>
<!-- https://w3id.org/oseg/ont/otrl#OTRL6 -->
<g id="node7" class="node">
<title>https://w3id.org/oseg/ont/otrl#OTRL6</title>
<ellipse fill="none" stroke="#e377c2" cx="1482.94" cy="-441.54" rx="67.35" ry="16.03"/>
<text text-anchor="middle" x="1482.94" y="-437.84" font-family="Times,serif" font-size="14.00">otrl:OTRL6</text>
</g>
<!-- https://w3id.org/oseg/ont/otrl#OTRL6&#45;&gt;https://w3id.org/oseg/ont/otrl#OTRL -->
<g id="edge29" class="edge">
<title>https://w3id.org/oseg/ont/otrl#OTRL6&#45;&gt;https://w3id.org/oseg/ont/otrl#OTRL</title>
<path fill="none" stroke="black" d="M1475.1,-457.7C1455.92,-497.16 1406.59,-598.69 1383.54,-646.13"/>
<polygon fill="black" stroke="black" points="1380.39,-644.61 1379.17,-655.13 1386.69,-647.67 1380.39,-644.61"/>
</g>
<!-- https://w3id.org/oseg/ont/otrl#OTRL1 -->
<g id="node8" class="node">
<title>https://w3id.org/oseg/ont/otrl#OTRL1</title>
<ellipse fill="none" stroke="#e377c2" cx="1686.31" cy="-639.25" rx="67.35" ry="16.03"/>
<text text-anchor="middle" x="1686.31" y="-635.55" font-family="Times,serif" font-size="14.00">otrl:OTRL1</text>
</g>
<!-- https://w3id.org/oseg/ont/otrl#OTRL1&#45;&gt;https://w3id.org/oseg/ont/otrl#OTRL -->
<g id="edge23" class="edge">
<title>https://w3id.org/oseg/ont/otrl#OTRL1&#45;&gt;https://w3id.org/oseg/ont/otrl#OTRL</title>
<path fill="none" stroke="black" d="M1624.08,-645.58C1570.49,-651.02 1493.33,-658.87 1438.39,-664.45"/>
<polygon fill="black" stroke="black" points="1437.99,-660.97 1428.4,-665.47 1438.7,-667.94 1437.99,-660.97"/>
</g>
<!-- https://w3id.org/oseg/ont/otrl#OTRL2 -->
<g id="node9" class="node">
<title>https://w3id.org/oseg/ont/otrl#OTRL2</title>
<ellipse fill="none" stroke="#e377c2" cx="1167.41" cy="-469.35" rx="67.35" ry="16.03"/>
<text text-anchor="middle" x="1167.41" y="-465.65" font-family="Times,serif" font-size="14.00">otrl:OTRL2</text>
</g>
<!-- https://w3id.org/oseg/ont/otrl#OTRL2&#45;&gt;https://w3id.org/oseg/ont/otrl#OTRL -->
<g id="edge16" class="edge">
<title>https://w3id.org/oseg/ont/otrl#OTRL2&#45;&gt;https://w3id.org/oseg/ont/otrl#OTRL</title>
<path fill="none" stroke="black" d="M1183.41,-485.19C1219.29,-520.72 1306.33,-606.9 1348.14,-648.31"/>
<polygon fill="black" stroke="black" points="1345.83,-650.95 1355.4,-655.5 1350.76,-645.97 1345.83,-650.95"/>
</g>
<!-- https://w3id.org/oseg/ont/otrl#OTRL4 -->
<g id="node10" class="node">
<title>https://w3id.org/oseg/ont/otrl#OTRL4</title>
<ellipse fill="none" stroke="#e377c2" cx="1624.08" cy="-491.93" rx="67.35" ry="16.03"/>
<text text-anchor="middle" x="1624.08" y="-488.23" font-family="Times,serif" font-size="14.00">otrl:OTRL4</text>
</g>
<!-- https://w3id.org/oseg/ont/otrl#OTRL4&#45;&gt;https://w3id.org/oseg/ont/otrl#OTRL -->
<g id="edge46" class="edge">
<title>https://w3id.org/oseg/ont/otrl#OTRL4&#45;&gt;https://w3id.org/oseg/ont/otrl#OTRL</title>
<path fill="none" stroke="black" d="M1602.09,-507.53C1556.79,-539.67 1453,-613.32 1401.48,-649.87"/>
<polygon fill="black" stroke="black" points="1399.22,-647.19 1393.09,-655.83 1403.27,-652.9 1399.22,-647.19"/>
</g>
<!-- https://w3id.org/oseg/ont/otrl#OTRL3 -->
<g id="node11" class="node">
<title>https://w3id.org/oseg/ont/otrl#OTRL3</title>
<ellipse fill="none" stroke="#e377c2" cx="1547.34" cy="-956.07" rx="67.35" ry="16.03"/>
<text text-anchor="middle" x="1547.34" y="-952.37" font-family="Times,serif" font-size="14.00">otrl:OTRL3</text>
</g>
<!-- https://w3id.org/oseg/ont/otrl#OTRL3&#45;&gt;https://w3id.org/oseg/ont/otrl#OTRL -->
<g id="edge5" class="edge">
<title>https://w3id.org/oseg/ont/otrl#OTRL3&#45;&gt;https://w3id.org/oseg/ont/otrl#OTRL</title>
<path fill="none" stroke="black" d="M1537.37,-939.94C1508.1,-892.57 1422.2,-753.58 1386.83,-696.34"/>
<polygon fill="black" stroke="black" points="1389.64,-694.24 1381.41,-687.57 1383.69,-697.92 1389.64,-694.24"/>
</g>
<!-- https://orcid.org/0009&#45;0004&#45;3559&#45;6542 -->
<g id="node14" class="node">
<title>https://orcid.org/0009&#45;0004&#45;3559&#45;6542</title>
<ellipse fill="none" stroke="#e377c2" cx="2012.12" cy="-1439.04" rx="113.69" ry="16.03"/>
<text text-anchor="middle" x="2012.12" y="-1435.34" font-family="Times,serif" font-size="14.00">orcid:0009&#45;0004&#45;3...</text>
</g>
<!-- http://schema.org/Text -->
<g id="node15" class="node">
<title>http://schema.org/Text</title>
<ellipse fill="none" stroke="#e377c2" cx="1385.66" cy="-871.84" rx="74.91" ry="16.03"/>
<text text-anchor="middle" x="1385.66" y="-868.14" font-family="Times,serif" font-size="14.00">schema:Text</text>
</g>
<!-- http://id.loc.gov/vocabulary/iso639&#45;1/en -->
<g id="node16" class="node">
<title>http://id.loc.gov/vocabulary/iso639&#45;1/en</title>
<ellipse fill="none" stroke="#e377c2" cx="2171.95" cy="-1383.93" rx="45.01" ry="16.03"/>
<text text-anchor="middle" x="2171.95" y="-1380.23" font-family="Times,serif" font-size="14.00">ns1:en</text>
</g>
<!-- https://w3id.org/oseg/ont/otrl -->
<g id="node17" class="node">
<title>https://w3id.org/oseg/ont/otrl</title>
<ellipse fill="none" stroke="#e377c2" cx="2072.71" cy="-1479.71" rx="50.82" ry="16.03"/>
<text text-anchor="middle" x="2072.71" y="-1476.01" font-family="Times,serif" font-size="14.00">ns2:otrl</text>
</g>
<!-- https://w3id.org/oseg/ont/otrl&#45;&gt;https://orcid.org/0009&#45;0004&#45;3559&#45;6542 -->
<g id="edge4" class="edge">
<title>https://w3id.org/oseg/ont/otrl&#45;&gt;https://orcid.org/0009&#45;0004&#45;3559&#45;6542</title>
<path fill="none" stroke="black" d="M2050.49,-1464.8C2048.57,-1463.51 2046.61,-1462.19 2044.63,-1460.86"/>
<polygon fill="black" stroke="black" points="2046.22,-1457.72 2035.97,-1455.05 2042.32,-1463.53 2046.22,-1457.72"/>
<text text-anchor="middle" x="1990.06" y="-1466.63" font-family="Times,serif" font-size="14.00">dcterms:creator</text>
</g>
<!-- https://w3id.org/oseg/ont/otrl&#45;&gt;http://id.loc.gov/vocabulary/iso639&#45;1/en -->
<g id="edge12" class="edge">
<title>https://w3id.org/oseg/ont/otrl&#45;&gt;http://id.loc.gov/vocabulary/iso639&#45;1/en</title>
<path fill="none" stroke="black" d="M2089.1,-1463.9C2105.29,-1448.27 2130.2,-1424.23 2148.49,-1406.58"/>
<polygon fill="black" stroke="black" points="2151.11,-1408.92 2155.87,-1399.45 2146.25,-1403.88 2151.11,-1408.92"/>
<text text-anchor="middle" x="2183.29" y="-1424.04" font-family="Times,serif" font-size="14.00">dcterms:language</text>
</g>
<!-- https://www.gnu.org/licenses/gpl&#45;3.0.txt -->
<g id="node18" class="node">
<title>https://www.gnu.org/licenses/gpl&#45;3.0.txt</title>
<ellipse fill="none" stroke="#e377c2" cx="1909.22" cy="-1551.29" rx="85.62" ry="16.03"/>
<text text-anchor="middle" x="1909.22" y="-1547.59" font-family="Times,serif" font-size="14.00">ns3:gpl&#45;3.0.txt</text>
</g>
<!-- https://w3id.org/oseg/ont/otrl&#45;&gt;https://www.gnu.org/licenses/gpl&#45;3.0.txt -->
<g id="edge18" class="edge">
<title>https://w3id.org/oseg/ont/otrl&#45;&gt;https://www.gnu.org/licenses/gpl&#45;3.0.txt</title>
<path fill="none" stroke="black" d="M2034.13,-1490.36C2005.97,-1501.16 1968.24,-1517.71 1941.63,-1530.95"/>
<polygon fill="black" stroke="black" points="1940.04,-1527.83 1932.71,-1535.48 1943.21,-1534.07 1940.04,-1527.83"/>
<text text-anchor="middle" x="1931.38" y="-1514.45" font-family="Times,serif" font-size="14.00">dcterms:license</text>
</g>
<!-- https://w3id.org/oseg/ont/otrl&#45;&gt;https://www.gnu.org/licenses/gpl&#45;3.0.txt -->
<g id="edge30" class="edge">
<title>https://w3id.org/oseg/ont/otrl&#45;&gt;https://www.gnu.org/licenses/gpl&#45;3.0.txt</title>
<path fill="none" stroke="black" d="M2050.92,-1494.64C2029.09,-1506.12 1994.63,-1521.73 1965.16,-1533.76"/>
<polygon fill="black" stroke="black" points="1963.76,-1530.55 1955.79,-1537.53 1966.37,-1537.04 1963.76,-1530.55"/>
<text text-anchor="middle" x="2008.04" y="-1503" font-family="Times,serif" font-size="14.00">cc:license</text>
</g>
<!-- https://orcid.org/0000&#45;0002&#45;1611&#45;7129 -->
<g id="node19" class="node">
<title>https://orcid.org/0000&#45;0002&#45;1611&#45;7129</title>
<ellipse fill="none" stroke="#e377c2" cx="2283.18" cy="-1497.18" rx="113.69" ry="16.03"/>
<text text-anchor="middle" x="2283.18" y="-1493.48" font-family="Times,serif" font-size="14.00">orcid:0000&#45;0002&#45;1...</text>
</g>
<!-- https://w3id.org/oseg/ont/otrl&#45;&gt;https://orcid.org/0000&#45;0002&#45;1611&#45;7129 -->
<g id="edge22" class="edge">
<title>https://w3id.org/oseg/ont/otrl&#45;&gt;https://orcid.org/0000&#45;0002&#45;1611&#45;7129</title>
<path fill="none" stroke="black" d="M2122.06,-1483.81C2137.85,-1485.12 2156,-1486.62 2174.3,-1488.14"/>
<polygon fill="black" stroke="black" points="2174.21,-1491.65 2184.46,-1488.99 2174.79,-1484.67 2174.21,-1491.65"/>
<text text-anchor="middle" x="2205.68" y="-1474.77" font-family="Times,serif" font-size="14.00">dcterms:creator</text>
</g>
<!-- https://w3id.org/oseg/ont/1.1.0/otrl -->
<g id="node22" class="node">
<title>https://w3id.org/oseg/ont/1.1.0/otrl</title>
<ellipse fill="none" stroke="#e377c2" cx="2098.31" cy="-1525.58" rx="50.82" ry="16.03"/>
<text text-anchor="middle" x="2098.31" y="-1521.88" font-family="Times,serif" font-size="14.00">ns4:otrl</text>
</g>
<!-- https://w3id.org/oseg/ont/otrl&#45;&gt;https://w3id.org/oseg/ont/1.1.0/otrl -->
<g id="edge43" class="edge">
<title>https://w3id.org/oseg/ont/otrl&#45;&gt;https://w3id.org/oseg/ont/1.1.0/otrl</title>
<path fill="none" stroke="black" d="M2081.67,-1495.76C2082.52,-1497.28 2083.4,-1498.86 2084.28,-1500.44"/>
<polygon fill="black" stroke="black" points="2081.39,-1502.45 2089.32,-1509.47 2087.5,-1499.03 2081.39,-1502.45"/>
<text text-anchor="middle" x="2134.47" y="-1501.9" font-family="Times,serif" font-size="14.00">owl:versionIRI</text>
</g>
<!-- https://w3id.org/oseg/ont/otrl#Odrl4 -->
<g id="node20" class="node">
<title>https://w3id.org/oseg/ont/otrl#Odrl4</title>
<ellipse fill="none" stroke="#e377c2" cx="1288.44" cy="-1413.86" rx="61.54" ry="16.03"/>
<text text-anchor="middle" x="1288.44" y="-1410.16" font-family="Times,serif" font-size="14.00">otrl:Odrl4</text>
</g>
<!-- https://w3id.org/oseg/ont/otrl#Odrl4&#45;&gt;https://w3id.org/oseg/ont/otrl#ODRL4 -->
<g id="edge9" class="edge">
<title>https://w3id.org/oseg/ont/otrl#Odrl4&#45;&gt;https://w3id.org/oseg/ont/otrl#ODRL4</title>
<path fill="none" stroke="black" d="M1251.56,-1400.7C1226.64,-1394.29 1192.87,-1386.95 1162.58,-1381.24"/>
<polygon fill="black" stroke="black" points="1162.92,-1377.74 1152.45,-1379.36 1161.65,-1384.62 1162.92,-1377.74"/>
<text text-anchor="middle" x="1249.57" y="-1379.77" font-family="Times,serif" font-size="14.00">owl:sameAs</text>
</g>
<!-- https://w3id.org/oseg/ont/otrl#Odrl4&#45;&gt;https://w3id.org/oseg/ont/otrl#ODRL4 -->
<g id="edge13" class="edge">
<title>https://w3id.org/oseg/ont/otrl#Odrl4&#45;&gt;https://w3id.org/oseg/ont/otrl#ODRL4</title>
<path fill="none" stroke="black" d="M1230.59,-1408.21C1201.09,-1403 1165.61,-1395.6 1137.55,-1388.78"/>
<polygon fill="black" stroke="black" points="1138.12,-1385.32 1127.57,-1386.3 1136.43,-1392.11 1138.12,-1385.32"/>
<text text-anchor="middle" x="1104.07" y="-1402.3" font-family="Times,serif" font-size="14.00">schema:supersededBy</text>
</g>
<!-- https://w3id.org/oseg/ont/otrl#goal -->
<g id="node21" class="node">
<title>https://w3id.org/oseg/ont/otrl#goal</title>
<ellipse fill="none" stroke="#e377c2" cx="1173.46" cy="-875.08" rx="54.39" ry="16.03"/>
<text text-anchor="middle" x="1173.46" y="-871.38" font-family="Times,serif" font-size="14.00">otrl:goal</text>
</g>
<!-- https://w3id.org/oseg/ont/otrl#goal&#45;&gt;https://w3id.org/oseg/ont/otrl#OTRL -->
<g id="edge2" class="edge">
<title>https://w3id.org/oseg/ont/otrl#goal&#45;&gt;https://w3id.org/oseg/ont/otrl#OTRL</title>
<path fill="none" stroke="black" d="M1188.66,-859.43C1223.25,-823.8 1307.99,-736.51 1348.73,-694.54"/>
<polygon fill="black" stroke="black" points="1351.35,-696.87 1355.81,-687.26 1346.33,-691.99 1351.35,-696.87"/>
<text text-anchor="middle" x="1182.7" y="-780.78" font-family="Times,serif" font-size="14.00">schema:domainIncludes</text>
</g>
<!-- https://w3id.org/oseg/ont/otrl#goal&#45;&gt;https://w3id.org/oseg/ont/otrl#ODRL -->
<g id="edge15" class="edge">
<title>https://w3id.org/oseg/ont/otrl#goal&#45;&gt;https://w3id.org/oseg/ont/otrl#ODRL</title>
<path fill="none" stroke="black" d="M1162.41,-891.08C1131.84,-935.29 1046.04,-1059.41 1009.34,-1112.49"/>
<polygon fill="black" stroke="black" points="1006.3,-1110.75 1003.49,-1120.96 1012.05,-1114.73 1006.3,-1110.75"/>
<text text-anchor="middle" x="999.88" y="-1005.59" font-family="Times,serif" font-size="14.00">schema:domainIncludes</text>
</g>
<!-- https://w3id.org/oseg/ont/otrl#goal&#45;&gt;http://schema.org/Text -->
<g id="edge38" class="edge">
<title>https://w3id.org/oseg/ont/otrl#goal&#45;&gt;http://schema.org/Text</title>
<path fill="none" stroke="black" d="M1228.11,-874.25C1250.23,-873.91 1276.3,-873.51 1300.79,-873.14"/>
<polygon fill="black" stroke="black" points="1300.86,-876.64 1310.81,-872.99 1300.76,-869.64 1300.86,-876.64"/>
<text text-anchor="middle" x="1285.45" y="-877.49" font-family="Times,serif" font-size="14.00">range</text>
</g>
<!-- https://w3id.org/oseg/ont/otrl#exitCriteria -->
<g id="node23" class="node">
<title>https://w3id.org/oseg/ont/otrl#exitCriteria</title>
<ellipse fill="none" stroke="#e377c2" cx="1202.55" cy="-930.21" rx="91.43" ry="16.03"/>
<text text-anchor="middle" x="1202.55" y="-926.51" font-family="Times,serif" font-size="14.00">otrl:exitCriteria</text>
</g>
<!-- https://w3id.org/oseg/ont/otrl#exitCriteria&#45;&gt;https://w3id.org/oseg/ont/otrl#OTRL -->
<g id="edge24" class="edge">
<title>https://w3id.org/oseg/ont/otrl#exitCriteria&#45;&gt;https://w3id.org/oseg/ont/otrl#OTRL</title>
<path fill="none" stroke="black" d="M1213.1,-914.02C1241.76,-870.06 1321.12,-748.3 1355.31,-695.84"/>
<polygon fill="black" stroke="black" points="1358.25,-697.75 1360.78,-687.46 1352.38,-693.92 1358.25,-697.75"/>
<text text-anchor="middle" x="1198.21" y="-808.73" font-family="Times,serif" font-size="14.00">schema:domainIncludes</text>
</g>
<!-- https://w3id.org/oseg/ont/otrl#exitCriteria&#45;&gt;https://w3id.org/oseg/ont/otrl#ODRL -->
<g id="edge34" class="edge">
<title>https://w3id.org/oseg/ont/otrl#exitCriteria&#45;&gt;https://w3id.org/oseg/ont/otrl#ODRL</title>
<path fill="none" stroke="black" d="M1186.05,-946.45C1148.89,-983.02 1058.53,-1071.94 1015.66,-1114.14"/>
<polygon fill="black" stroke="black" points="1013.15,-1111.7 1008.47,-1121.21 1018.06,-1116.69 1013.15,-1111.7"/>
<text text-anchor="middle" x="1014.86" y="-1034.09" font-family="Times,serif" font-size="14.00">schema:domainIncludes</text>
</g>
<!-- https://w3id.org/oseg/ont/otrl#exitCriteria&#45;&gt;http://schema.org/Text -->
<g id="edge7" class="edge">
<title>https://w3id.org/oseg/ont/otrl#exitCriteria&#45;&gt;http://schema.org/Text</title>
<path fill="none" stroke="black" d="M1247.34,-915.94C1273.37,-907.64 1306.29,-897.15 1333.48,-888.48"/>
<polygon fill="black" stroke="black" points="1334.75,-891.75 1343.22,-885.37 1332.62,-885.08 1334.75,-891.75"/>
<text text-anchor="middle" x="1311.41" y="-906.01" font-family="Times,serif" font-size="14.00">range</text>
</g>
<!-- https://w3id.org/oseg/ont/otrl#Otrl2 -->
<g id="node24" class="node">
<title>https://w3id.org/oseg/ont/otrl#Otrl2</title>
<ellipse fill="none" stroke="black" cx="888.18" cy="-153.61" rx="194.41" ry="16.03"/>
<text text-anchor="middle" x="888.18" y="-149.91" font-family="Times,serif" font-size="14.00">https://w3id.org/oseg/ont/otrl#Otrl2</text>
</g>
<!-- https://w3id.org/oseg/ont/otrl#Otrl2&#45;&gt;https://w3id.org/oseg/ont/otrl#OTRL2 -->
<g id="edge3" class="edge">
<title>https://w3id.org/oseg/ont/otrl#Otrl2&#45;&gt;https://w3id.org/oseg/ont/otrl#OTRL2</title>
<path fill="none" stroke="black" d="M898.64,-170.01C938.84,-222.49 1082.89,-385.82 1141.97,-446.46"/>
<polygon fill="black" stroke="black" points="1139.56,-449 1149.07,-453.66 1144.55,-444.08 1139.56,-449"/>
<text text-anchor="middle" x="940.3" y="-312.03" font-family="Times,serif" font-size="14.00">schema:supersededBy</text>
</g>
<!-- https://w3id.org/oseg/ont/otrl#Otrl2&#45;&gt;https://w3id.org/oseg/ont/otrl#OTRL2 -->
<g id="edge44" class="edge">
<title>https://w3id.org/oseg/ont/otrl#Otrl2&#45;&gt;https://w3id.org/oseg/ont/otrl#OTRL2</title>
<path fill="none" stroke="black" d="M907.37,-170.16C959.42,-222.42 1102,-383.52 1150.85,-445.13"/>
<polygon fill="black" stroke="black" points="1148.19,-447.41 1157.1,-453.14 1153.71,-443.1 1148.19,-447.41"/>
<text text-anchor="middle" x="986.61" y="-296.44" font-family="Times,serif" font-size="14.00">owl:sameAs</text>
</g>
<!-- https://w3id.org/oseg/ont/otrl#Odrl1 -->
<g id="node25" class="node">
<title>https://w3id.org/oseg/ont/otrl#Odrl1</title>
<ellipse fill="none" stroke="black" cx="901.13" cy="-1441.15" rx="196.65" ry="16.03"/>
<text text-anchor="middle" x="901.13" y="-1437.45" font-family="Times,serif" font-size="14.00">https://w3id.org/oseg/ont/otrl#Odrl1</text>
</g>
<!-- https://w3id.org/oseg/ont/otrl#Odrl1&#45;&gt;https://w3id.org/oseg/ont/otrl#ODRL1 -->
<g id="edge6" class="edge">
<title>https://w3id.org/oseg/ont/otrl#Odrl1&#45;&gt;https://w3id.org/oseg/ont/otrl#ODRL1</title>
<path fill="none" stroke="black" d="M914.43,-1424.81C914.68,-1424.23 914.92,-1423.64 915.15,-1423.06"/>
<polygon fill="black" stroke="black" points="918.5,-1424.07 918.36,-1413.47 911.87,-1421.84 918.5,-1424.07"/>
<text text-anchor="middle" x="872.29" y="-1412.73" font-family="Times,serif" font-size="14.00">owl:sameAs</text>
</g>
<!-- https://w3id.org/oseg/ont/otrl#Odrl1&#45;&gt;https://w3id.org/oseg/ont/otrl#ODRL1 -->
<g id="edge41" class="edge">
<title>https://w3id.org/oseg/ont/otrl#Odrl1&#45;&gt;https://w3id.org/oseg/ont/otrl#ODRL1</title>
<path fill="none" stroke="black" d="M900.54,-1424.71C900.7,-1424.13 900.86,-1423.53 901.04,-1422.94"/>
<polygon fill="black" stroke="black" points="904.45,-1423.81 904.53,-1413.21 897.86,-1421.44 904.45,-1423.81"/>
<text text-anchor="middle" x="980.79" y="-1412.62" font-family="Times,serif" font-size="14.00">schema:supersededBy</text>
</g>
<!-- https://w3id.org/oseg/ont/otrl#Otrl3 -->
<g id="node26" class="node">
<title>https://w3id.org/oseg/ont/otrl#Otrl3</title>
<ellipse fill="none" stroke="black" cx="1561.77" cy="-1004.04" rx="194.41" ry="16.03"/>
<text text-anchor="middle" x="1561.77" y="-1000.34" font-family="Times,serif" font-size="14.00">https://w3id.org/oseg/ont/otrl#Otrl3</text>
</g>
<!-- https://w3id.org/oseg/ont/otrl#Otrl3&#45;&gt;https://w3id.org/oseg/ont/otrl#OTRL3 -->
<g id="edge8" class="edge">
<title>https://w3id.org/oseg/ont/otrl#Otrl3&#45;&gt;https://w3id.org/oseg/ont/otrl#OTRL3</title>
<path fill="none" stroke="black" d="M1563.37,-987.58C1563.01,-985.7 1562.56,-983.76 1562.05,-981.8"/>
<polygon fill="black" stroke="black" points="1565.35,-980.62 1559.02,-972.13 1558.67,-982.72 1565.35,-980.62"/>
<text text-anchor="middle" x="1605.21" y="-973.49" font-family="Times,serif" font-size="14.00">owl:sameAs</text>
</g>
<!-- https://w3id.org/oseg/ont/otrl#Otrl3&#45;&gt;https://w3id.org/oseg/ont/otrl#OTRL3 -->
<g id="edge31" class="edge">
<title>https://w3id.org/oseg/ont/otrl#Otrl3&#45;&gt;https://w3id.org/oseg/ont/otrl#OTRL3</title>
<path fill="none" stroke="black" d="M1550.02,-987.8C1549.4,-986.11 1548.82,-984.37 1548.28,-982.61"/>
<polygon fill="black" stroke="black" points="1551.59,-981.45 1545.75,-972.61 1544.8,-983.16 1551.59,-981.45"/>
<text text-anchor="middle" x="1469.15" y="-974" font-family="Times,serif" font-size="14.00">schema:supersededBy</text>
</g>
<!-- https://w3id.org/oseg/ont/otrl#Odrl3 -->
<g id="node27" class="node">
<title>https://w3id.org/oseg/ont/otrl#Odrl3</title>
<ellipse fill="none" stroke="black" cx="1797.12" cy="-1089.53" rx="196.65" ry="16.03"/>
<text text-anchor="middle" x="1797.12" y="-1085.83" font-family="Times,serif" font-size="14.00">https://w3id.org/oseg/ont/otrl#Odrl3</text>
</g>
<!-- https://w3id.org/oseg/ont/otrl#Odrl3&#45;&gt;https://w3id.org/oseg/ont/otrl#ODRL3 -->
<g id="edge11" class="edge">
<title>https://w3id.org/oseg/ont/otrl#Odrl3&#45;&gt;https://w3id.org/oseg/ont/otrl#ODRL3</title>
<path fill="none" stroke="black" d="M1648.64,-1078.87C1562.12,-1075.38 1456.47,-1072.64 1385.81,-1072.24"/>
<polygon fill="black" stroke="black" points="1385.66,-1068.74 1375.65,-1072.19 1385.63,-1075.74 1385.66,-1068.74"/>
<text text-anchor="middle" x="1517.23" y="-1064.35" font-family="Times,serif" font-size="14.00">schema:supersededBy</text>
</g>
<!-- https://w3id.org/oseg/ont/otrl#Odrl3&#45;&gt;https://w3id.org/oseg/ont/otrl#ODRL3 -->
<g id="edge50" class="edge">
<title>https://w3id.org/oseg/ont/otrl#Odrl3&#45;&gt;https://w3id.org/oseg/ont/otrl#ODRL3</title>
<path fill="none" stroke="black" d="M1600.47,-1090.34C1523.11,-1088.43 1439.05,-1085.4 1380.83,-1082.2"/>
<polygon fill="black" stroke="black" points="1380.82,-1078.69 1370.64,-1081.62 1380.42,-1085.68 1380.82,-1078.69"/>
<text text-anchor="middle" x="1448.15" y="-1090.07" font-family="Times,serif" font-size="14.00">owl:sameAs</text>
</g>
<!-- https://w3id.org/oseg/ont/otrl#Otrl5 -->
<g id="node28" class="node">
<title>https://w3id.org/oseg/ont/otrl#Otrl5</title>
<ellipse fill="none" stroke="black" cx="1243.21" cy="-16.44" rx="194.41" ry="16.03"/>
<text text-anchor="middle" x="1243.21" y="-12.74" font-family="Times,serif" font-size="14.00">https://w3id.org/oseg/ont/otrl#Otrl5</text>
</g>
<!-- https://w3id.org/oseg/ont/otrl#Otrl5&#45;&gt;https://w3id.org/oseg/ont/otrl#OTRL5 -->
<g id="edge14" class="edge">
<title>https://w3id.org/oseg/ont/otrl#Otrl5&#45;&gt;https://w3id.org/oseg/ont/otrl#OTRL5</title>
<path fill="none" stroke="black" d="M1242.11,-32.89C1243.85,-95.32 1267.55,-317.97 1280.33,-395.23"/>
<polygon fill="black" stroke="black" points="1276.97,-396.29 1282.14,-405.53 1283.86,-395.08 1276.97,-396.29"/>
<text text-anchor="middle" x="1218.72" y="-217.86" font-family="Times,serif" font-size="14.00">owl:sameAs</text>
</g>
<!-- https://w3id.org/oseg/ont/otrl#Otrl5&#45;&gt;https://w3id.org/oseg/ont/otrl#OTRL5 -->
<g id="edge45" class="edge">
<title>https://w3id.org/oseg/ont/otrl#Otrl5&#45;&gt;https://w3id.org/oseg/ont/otrl#OTRL5</title>
<path fill="none" stroke="black" d="M1247.88,-32.78C1259.51,-95.03 1283.67,-317.68 1287.49,-395.1"/>
<polygon fill="black" stroke="black" points="1284.01,-395.58 1287.9,-405.43 1291,-395.3 1284.01,-395.58"/>
<text text-anchor="middle" x="1187.68" y="-202.74" font-family="Times,serif" font-size="14.00">schema:supersededBy</text>
</g>
<!-- https://w3id.org/oseg/ont/otrl#Otrl -->
<g id="node29" class="node">
<title>https://w3id.org/oseg/ont/otrl#Otrl</title>
<ellipse fill="none" stroke="black" cx="996.45" cy="-515.15" rx="188.18" ry="16.03"/>
<text text-anchor="middle" x="996.45" y="-511.45" font-family="Times,serif" font-size="14.00">https://w3id.org/oseg/ont/otrl#Otrl</text>
</g>
<!-- https://w3id.org/oseg/ont/otrl#Otrl&#45;&gt;https://w3id.org/oseg/ont/otrl#OTRL -->
<g id="edge17" class="edge">
<title>https://w3id.org/oseg/ont/otrl#Otrl&#45;&gt;https://w3id.org/oseg/ont/otrl#OTRL</title>
<path fill="none" stroke="black" d="M1025,-531.24C1088.3,-561.42 1240.99,-625.31 1320.82,-655.34"/>
<polygon fill="black" stroke="black" points="1320.06,-658.79 1330.65,-659.01 1322.5,-652.23 1320.06,-658.79"/>
<text text-anchor="middle" x="1092.91" y="-597.09" font-family="Times,serif" font-size="14.00">schema:supersededBy</text>
</g>
<!-- https://w3id.org/oseg/ont/otrl#Otrl&#45;&gt;https://w3id.org/oseg/ont/otrl#OTRL -->
<g id="edge51" class="edge">
<title>https://w3id.org/oseg/ont/otrl#Otrl&#45;&gt;https://w3id.org/oseg/ont/otrl#OTRL</title>
<path fill="none" stroke="black" d="M1046.5,-530.9C1123.57,-559.87 1269.33,-620.75 1336.21,-652.07"/>
<polygon fill="black" stroke="black" points="1334.95,-655.35 1345.49,-656.47 1337.95,-649.02 1334.95,-655.35"/>
<text text-anchor="middle" x="1148.85" y="-580.28" font-family="Times,serif" font-size="14.00">owl:sameAs</text>
</g>
<!-- https://w3id.org/oseg/ont/otrl#Odrl -->
<g id="node30" class="node">
<title>https://w3id.org/oseg/ont/otrl#Odrl</title>
<ellipse fill="none" stroke="black" cx="599.89" cy="-1237.42" rx="190.42" ry="16.03"/>
<text text-anchor="middle" x="599.89" y="-1233.72" font-family="Times,serif" font-size="14.00">https://w3id.org/oseg/ont/otrl#Odrl</text>
</g>
<!-- https://w3id.org/oseg/ont/otrl#Odrl&#45;&gt;https://w3id.org/oseg/ont/otrl#ODRL -->
<g id="edge19" class="edge">
<title>https://w3id.org/oseg/ont/otrl#Odrl&#45;&gt;https://w3id.org/oseg/ont/otrl#ODRL</title>
<path fill="none" stroke="black" d="M680.21,-1222.6C760.73,-1203.97 881.84,-1172.67 947,-1153.37"/>
<polygon fill="black" stroke="black" points="948,-1156.73 956.58,-1150.5 945.99,-1150.02 948,-1156.73"/>
<text text-anchor="middle" x="771.1" y="-1191.79" font-family="Times,serif" font-size="14.00">owl:sameAs</text>
</g>
<!-- https://w3id.org/oseg/ont/otrl#Odrl&#45;&gt;https://w3id.org/oseg/ont/otrl#ODRL -->
<g id="edge36" class="edge">
<title>https://w3id.org/oseg/ont/otrl#Odrl&#45;&gt;https://w3id.org/oseg/ont/otrl#ODRL</title>
<path fill="none" stroke="black" d="M643.8,-1221.55C713.29,-1200.9 848.91,-1166.03 928.95,-1148.04"/>
<polygon fill="black" stroke="black" points="929.91,-1151.41 938.91,-1145.83 928.39,-1144.58 929.91,-1151.41"/>
<text text-anchor="middle" x="706.38" y="-1173.6" font-family="Times,serif" font-size="14.00">schema:supersededBy</text>
</g>
<!-- https://w3id.org/oseg/ont/otrl#Otrl1 -->
<g id="node31" class="node">
<title>https://w3id.org/oseg/ont/otrl#Otrl1</title>
<ellipse fill="none" stroke="black" cx="2084.5" cy="-547.13" rx="194.41" ry="16.03"/>
<text text-anchor="middle" x="2084.5" y="-543.43" font-family="Times,serif" font-size="14.00">https://w3id.org/oseg/ont/otrl#Otrl1</text>
</g>
<!-- https://w3id.org/oseg/ont/otrl#Otrl1&#45;&gt;https://w3id.org/oseg/ont/otrl#OTRL1 -->
<g id="edge20" class="edge">
<title>https://w3id.org/oseg/ont/otrl#Otrl1&#45;&gt;https://w3id.org/oseg/ont/otrl#OTRL1</title>
<path fill="none" stroke="black" d="M1996.32,-561.69C1915.9,-578.55 1800.01,-605.72 1735.1,-623.19"/>
<polygon fill="black" stroke="black" points="1733.86,-619.9 1725.13,-625.91 1735.7,-626.65 1733.86,-619.9"/>
<text text-anchor="middle" x="1823.21" y="-596.24" font-family="Times,serif" font-size="14.00">owl:sameAs</text>
</g>
<!-- https://w3id.org/oseg/ont/otrl#Otrl1&#45;&gt;https://w3id.org/oseg/ont/otrl#OTRL1 -->
<g id="edge37" class="edge">
<title>https://w3id.org/oseg/ont/otrl#Otrl1&#45;&gt;https://w3id.org/oseg/ont/otrl#OTRL1</title>
<path fill="none" stroke="black" d="M2036.71,-562.92C1966.31,-581.92 1834.4,-612.63 1754.04,-628.91"/>
<polygon fill="black" stroke="black" points="1753.14,-625.52 1744.02,-630.92 1754.52,-632.38 1753.14,-625.52"/>
<text text-anchor="middle" x="1975.38" y="-599.71" font-family="Times,serif" font-size="14.00">schema:supersededBy</text>
</g>
<!-- https://w3id.org/oseg/ont/otrl#Otrl6 -->
<g id="node32" class="node">
<title>https://w3id.org/oseg/ont/otrl#Otrl6</title>
<ellipse fill="none" stroke="black" cx="1559.87" cy="-395.41" rx="194.41" ry="16.03"/>
<text text-anchor="middle" x="1559.87" y="-391.71" font-family="Times,serif" font-size="14.00">https://w3id.org/oseg/ont/otrl#Otrl6</text>
</g>
<!-- https://w3id.org/oseg/ont/otrl#Otrl6&#45;&gt;https://w3id.org/oseg/ont/otrl#OTRL6 -->
<g id="edge21" class="edge">
<title>https://w3id.org/oseg/ont/otrl#Otrl6&#45;&gt;https://w3id.org/oseg/ont/otrl#OTRL6</title>
<path fill="none" stroke="black" d="M1520.19,-411.35C1515.54,-414.09 1510.92,-416.96 1506.58,-419.82"/>
<polygon fill="black" stroke="black" points="1504.44,-417.04 1498.19,-425.59 1508.41,-422.81 1504.44,-417.04"/>
<text text-anchor="middle" x="1593.39" y="-419.38" font-family="Times,serif" font-size="14.00">schema:supersededBy</text>
</g>
<!-- https://w3id.org/oseg/ont/otrl#Otrl6&#45;&gt;https://w3id.org/oseg/ont/otrl#OTRL6 -->
<g id="edge42" class="edge">
<title>https://w3id.org/oseg/ont/otrl#Otrl6&#45;&gt;https://w3id.org/oseg/ont/otrl#OTRL6</title>
<path fill="none" stroke="black" d="M1543.9,-411.89C1539.12,-415.3 1533.63,-418.91 1527.96,-422.4"/>
<polygon fill="black" stroke="black" points="1525.77,-419.63 1518.95,-427.74 1529.34,-425.65 1525.77,-419.63"/>
<text text-anchor="middle" x="1493.43" y="-420.94" font-family="Times,serif" font-size="14.00">owl:sameAs</text>
</g>
<!-- https://w3id.org/oseg/ont/otrl#Otrl4 -->
<g id="node33" class="node">
<title>https://w3id.org/oseg/ont/otrl#Otrl4</title>
<ellipse fill="none" stroke="black" cx="1896.61" cy="-184.94" rx="194.41" ry="16.03"/>
<text text-anchor="middle" x="1896.61" y="-181.24" font-family="Times,serif" font-size="14.00">https://w3id.org/oseg/ont/otrl#Otrl4</text>
</g>
<!-- https://w3id.org/oseg/ont/otrl#Otrl4&#45;&gt;https://w3id.org/oseg/ont/otrl#OTRL4 -->
<g id="edge25" class="edge">
<title>https://w3id.org/oseg/ont/otrl#Otrl4&#45;&gt;https://w3id.org/oseg/ont/otrl#OTRL4</title>
<path fill="none" stroke="black" d="M1877.39,-201.4C1826.35,-252.38 1688.71,-407.31 1640.73,-467.62"/>
<polygon fill="black" stroke="black" points="1637.73,-465.78 1634.32,-475.81 1643.24,-470.09 1637.73,-465.78"/>
<text text-anchor="middle" x="1716.56" y="-338.31" font-family="Times,serif" font-size="14.00">owl:sameAs</text>
</g>
<!-- https://w3id.org/oseg/ont/otrl#Otrl4&#45;&gt;https://w3id.org/oseg/ont/otrl#OTRL4 -->
<g id="edge27" class="edge">
<title>https://w3id.org/oseg/ont/otrl#Otrl4&#45;&gt;https://w3id.org/oseg/ont/otrl#OTRL4</title>
<path fill="none" stroke="black" d="M1886.12,-201.38C1846.75,-252.64 1708.26,-409.1 1650.04,-468.66"/>
<polygon fill="black" stroke="black" points="1647.25,-466.51 1642.7,-476.08 1652.22,-471.43 1647.25,-466.51"/>
<text text-anchor="middle" x="1848.08" y="-338.82" font-family="Times,serif" font-size="14.00">schema:supersededBy</text>
</g>
<!-- https://w3id.org/oseg/ont/otrl#Odrl2 -->
<g id="node34" class="node">
<title>https://w3id.org/oseg/ont/otrl#Odrl2</title>
<ellipse fill="none" stroke="black" cx="465.19" cy="-1624.68" rx="196.65" ry="16.03"/>
<text text-anchor="middle" x="465.19" y="-1620.98" font-family="Times,serif" font-size="14.00">https://w3id.org/oseg/ont/otrl#Odrl2</text>
</g>
<!-- https://w3id.org/oseg/ont/otrl#Odrl2&#45;&gt;https://w3id.org/oseg/ont/otrl#ODRL2 -->
<g id="edge26" class="edge">
<title>https://w3id.org/oseg/ont/otrl#Odrl2&#45;&gt;https://w3id.org/oseg/ont/otrl#ODRL2</title>
<path fill="none" stroke="black" d="M486.31,-1608.11C542.02,-1557.36 691.77,-1404.62 744.43,-1344.94"/>
<polygon fill="black" stroke="black" points="747.28,-1347 751.19,-1337.16 741.99,-1342.41 747.28,-1347"/>
<text text-anchor="middle" x="572.87" y="-1480.32" font-family="Times,serif" font-size="14.00">owl:sameAs</text>
</g>
<!-- https://w3id.org/oseg/ont/otrl#Odrl2&#45;&gt;https://w3id.org/oseg/ont/otrl#ODRL2 -->
<g id="edge39" class="edge">
<title>https://w3id.org/oseg/ont/otrl#Odrl2&#45;&gt;https://w3id.org/oseg/ont/otrl#ODRL2</title>
<path fill="none" stroke="black" d="M476.96,-1608.28C520.44,-1557.35 671.71,-1402.53 734.94,-1343.7"/>
<polygon fill="black" stroke="black" points="737.56,-1346.04 742.55,-1336.69 732.82,-1340.88 737.56,-1346.04"/>
<text text-anchor="middle" x="525.95" y="-1464.79" font-family="Times,serif" font-size="14.00">schema:supersededBy</text>
</g>
<!-- https://w3id.org/oseg/ont/otrl#Odrl3Star -->
<g id="node35" class="node">
<title>https://w3id.org/oseg/ont/otrl#Odrl3Star</title>
<ellipse fill="none" stroke="black" cx="218.13" cy="-1066.66" rx="218.49" ry="16.03"/>
<text text-anchor="middle" x="218.13" y="-1062.96" font-family="Times,serif" font-size="14.00">https://w3id.org/oseg/ont/otrl#Odrl3Star</text>
</g>
<!-- https://w3id.org/oseg/ont/otrl#Odrl3Star&#45;&gt;https://w3id.org/oseg/ont/otrl#ODRL3Star -->
<g id="edge28" class="edge">
<title>https://w3id.org/oseg/ont/otrl#Odrl3Star&#45;&gt;https://w3id.org/oseg/ont/otrl#ODRL3Star</title>
<path fill="none" stroke="black" d="M383.56,-1077.29C449.51,-1079.44 523.2,-1081 580.55,-1081.35"/>
<polygon fill="black" stroke="black" points="580.69,-1084.85 590.7,-1081.4 580.72,-1077.85 580.69,-1084.85"/>
<text text-anchor="middle" x="524.56" y="-1083.12" font-family="Times,serif" font-size="14.00">owl:sameAs</text>
</g>
<!-- https://w3id.org/oseg/ont/otrl#Odrl3Star&#45;&gt;https://w3id.org/oseg/ont/otrl#ODRL3Star -->
<g id="edge40" class="edge">
<title>https://w3id.org/oseg/ont/otrl#Odrl3Star&#45;&gt;https://w3id.org/oseg/ont/otrl#ODRL3Star</title>
<path fill="none" stroke="black" d="M436.16,-1065.35C489.95,-1066.62 544.67,-1068.39 588.56,-1070.39"/>
<polygon fill="black" stroke="black" points="588.46,-1073.89 598.61,-1070.86 588.78,-1066.89 588.46,-1073.89"/>
<text text-anchor="middle" x="512.36" y="-1056.67" font-family="Times,serif" font-size="14.00">schema:supersededBy</text>
</g>
<!-- https://w3id.org/oseg/ont/otrl#Odrl5 -->
<g id="node36" class="node">
<title>https://w3id.org/oseg/ont/otrl#Odrl5</title>
<ellipse fill="none" stroke="black" cx="1310.64" cy="-1455.2" rx="196.65" ry="16.03"/>
<text text-anchor="middle" x="1310.64" y="-1451.5" font-family="Times,serif" font-size="14.00">https://w3id.org/oseg/ont/otrl#Odrl5</text>
</g>
<!-- https://w3id.org/oseg/ont/otrl#Odrl5&#45;&gt;https://w3id.org/oseg/ont/otrl#Odrl4 -->
<g id="edge32" class="edge">
<title>https://w3id.org/oseg/ont/otrl#Odrl5&#45;&gt;https://w3id.org/oseg/ont/otrl#Odrl4</title>
<path fill="none" stroke="black" d="M1308.99,-1438.64C1308.95,-1438.55 1308.91,-1438.46 1308.87,-1438.36"/>
<polygon fill="black" stroke="black" points="1312.13,-1437.05 1304.56,-1429.64 1305.86,-1440.16 1312.13,-1437.05"/>
<text text-anchor="middle" x="1351.43" y="-1427.3" font-family="Times,serif" font-size="14.00">owl:sameAs</text>
</g>
<!-- https://w3id.org/oseg/ont/otrl#Odrl5&#45;&gt;https://w3id.org/oseg/ont/otrl#Odrl4 -->
<g id="edge47" class="edge">
<title>https://w3id.org/oseg/ont/otrl#Odrl5&#45;&gt;https://w3id.org/oseg/ont/otrl#Odrl4</title>
<path fill="none" stroke="black" d="M1294.12,-1438.69C1294.07,-1438.6 1294.02,-1438.51 1293.97,-1438.42"/>
<polygon fill="black" stroke="black" points="1297.48,-1437.64 1289.98,-1430.16 1291.18,-1440.69 1297.48,-1437.64"/>
<text text-anchor="middle" x="1214.05" y="-1427.36" font-family="Times,serif" font-size="14.00">schema:supersededBy</text>
</g>
</g>
</svg>
