<?xml version="1.0" encoding="UTF-8" standalone="no"?>
<!DOCTYPE svg PUBLIC "-//W3C//DTD SVG 1.1//EN"
 "http://www.w3.org/Graphics/SVG/1.1/DTD/svg11.dtd">
<!-- Generated by graphviz version 2.43.0 (0)
 -->
<!-- Title: G Pages: 1 -->
<svg width="2205pt" height="1755pt"
 viewBox="0.00 0.00 2205.00 1755.00" xmlns="http://www.w3.org/2000/svg" xmlns:xlink="http://www.w3.org/1999/xlink">
<g id="graph0" class="graph" transform="scale(1 1) rotate(0) translate(4 1751)">
<title>G</title>
<polygon fill="white" stroke="transparent" points="-4,4 -4,-1751 2201,-1751 2201,4 -4,4"/>
<!-- https://w3id.org/oseg/ont/otrl#ODRL -->
<g id="node1" class="node">
<title>https://w3id.org/oseg/ont/otrl#ODRL</title>
<ellipse fill="none" stroke="#e377c2" cx="1322.93" cy="-689.79" rx="62.87" ry="16.03"/>
<text text-anchor="middle" x="1322.93" y="-686.09" font-family="Times,serif" font-size="14.00">otrl:ODRL</text>
</g>
<!-- https://w3id.org/oseg/ont/otrl#OTRL -->
<g id="node2" class="node">
<title>https://w3id.org/oseg/ont/otrl#OTRL</title>
<ellipse fill="none" stroke="#e377c2" cx="853.68" cy="-1092.99" rx="60.62" ry="16.03"/>
<text text-anchor="middle" x="853.68" y="-1089.29" font-family="Times,serif" font-size="14.00">otrl:OTRL</text>
</g>
<!-- https://w3id.org/oseg/ont/otrl#ODRL4 -->
<g id="node3" class="node">
<title>https://w3id.org/oseg/ont/otrl#ODRL4</title>
<ellipse fill="none" stroke="#e377c2" cx="1537.52" cy="-840.03" rx="69.09" ry="16.03"/>
<text text-anchor="middle" x="1537.52" y="-836.33" font-family="Times,serif" font-size="14.00">otrl:ODRL4</text>
</g>
<!-- https://w3id.org/oseg/ont/otrl#ODRL4&#45;&gt;https://w3id.org/oseg/ont/otrl#ODRL -->
<g id="edge35" class="edge">
<title>https://w3id.org/oseg/ont/otrl#ODRL4&#45;&gt;https://w3id.org/oseg/ont/otrl#ODRL</title>
<path fill="none" stroke="black" d="M1515.36,-824.52C1476.71,-797.46 1396.93,-741.6 1353.21,-710.99"/>
<polygon fill="black" stroke="black" points="1355.17,-708.09 1344.97,-705.22 1351.15,-713.83 1355.17,-708.09"/>
</g>
<!-- https://w3id.org/oseg/ont/otrl#ODRL3 -->
<g id="node4" class="node">
<title>https://w3id.org/oseg/ont/otrl#ODRL3</title>
<ellipse fill="none" stroke="#e377c2" cx="1310.83" cy="-415.48" rx="69.09" ry="16.03"/>
<text text-anchor="middle" x="1310.83" y="-411.78" font-family="Times,serif" font-size="14.00">otrl:ODRL3</text>
</g>
<!-- https://w3id.org/oseg/ont/otrl#ODRL3&#45;&gt;https://w3id.org/oseg/ont/otrl#ODRL -->
<g id="edge18" class="edge">
<title>https://w3id.org/oseg/ont/otrl#ODRL3&#45;&gt;https://w3id.org/oseg/ont/otrl#ODRL</title>
<path fill="none" stroke="black" d="M1311.55,-431.82C1313.57,-477.45 1319.26,-606.59 1321.75,-662.94"/>
<polygon fill="black" stroke="black" points="1318.26,-663.36 1322.2,-673.2 1325.26,-663.05 1318.26,-663.36"/>
</g>
<!-- https://w3id.org/oseg/ont/otrl#OTRL5 -->
<g id="node5" class="node">
<title>https://w3id.org/oseg/ont/otrl#OTRL5</title>
<ellipse fill="none" stroke="#e377c2" cx="761.19" cy="-1361.67" rx="67.35" ry="16.03"/>
<text text-anchor="middle" x="761.19" y="-1357.97" font-family="Times,serif" font-size="14.00">otrl:OTRL5</text>
</g>
<!-- https://w3id.org/oseg/ont/otrl#OTRL5&#45;&gt;https://w3id.org/oseg/ont/otrl#OTRL -->
<g id="edge3" class="edge">
<title>https://w3id.org/oseg/ont/otrl#OTRL5&#45;&gt;https://w3id.org/oseg/ont/otrl#OTRL</title>
<path fill="none" stroke="black" d="M766.84,-1345.27C782.35,-1300.2 825.72,-1174.22 844.65,-1119.23"/>
<polygon fill="black" stroke="black" points="848.04,-1120.11 847.99,-1109.52 841.42,-1117.84 848.04,-1120.11"/>
</g>
<!-- https://w3id.org/oseg/ont/otrl#OTRL1 -->
<g id="node6" class="node">
<title>https://w3id.org/oseg/ont/otrl#OTRL1</title>
<ellipse fill="none" stroke="#e377c2" cx="643.51" cy="-1266.15" rx="67.35" ry="16.03"/>
<text text-anchor="middle" x="643.51" y="-1262.45" font-family="Times,serif" font-size="14.00">otrl:OTRL1</text>
</g>
<!-- https://w3id.org/oseg/ont/otrl#OTRL1&#45;&gt;https://w3id.org/oseg/ont/otrl#OTRL -->
<g id="edge11" class="edge">
<title>https://w3id.org/oseg/ont/otrl#OTRL1&#45;&gt;https://w3id.org/oseg/ont/otrl#OTRL</title>
<path fill="none" stroke="black" d="M662.53,-1250.47C700.12,-1219.5 784,-1150.39 827.06,-1114.92"/>
<polygon fill="black" stroke="black" points="829.36,-1117.56 834.85,-1108.5 824.91,-1112.16 829.36,-1117.56"/>
</g>
<!-- https://w3id.org/oseg/ont/otrl#OTRL6 -->
<g id="node7" class="node">
<title>https://w3id.org/oseg/ont/otrl#OTRL6</title>
<ellipse fill="none" stroke="#e377c2" cx="995.86" cy="-1344.92" rx="67.35" ry="16.03"/>
<text text-anchor="middle" x="995.86" y="-1341.22" font-family="Times,serif" font-size="14.00">otrl:OTRL6</text>
</g>
<!-- https://w3id.org/oseg/ont/otrl#OTRL6&#45;&gt;https://w3id.org/oseg/ont/otrl#OTRL -->
<g id="edge47" class="edge">
<title>https://w3id.org/oseg/ont/otrl#OTRL6&#45;&gt;https://w3id.org/oseg/ont/otrl#OTRL</title>
<path fill="none" stroke="black" d="M986.75,-1328.78C962.63,-1286.05 896.98,-1169.72 867.89,-1118.17"/>
<polygon fill="black" stroke="black" points="870.86,-1116.31 862.9,-1109.32 864.76,-1119.75 870.86,-1116.31"/>
</g>
<!-- https://w3id.org/oseg/ont/otrl#OTRL4 -->
<g id="node8" class="node">
<title>https://w3id.org/oseg/ont/otrl#OTRL4</title>
<ellipse fill="none" stroke="#e377c2" cx="749.18" cy="-971.31" rx="67.35" ry="16.03"/>
<text text-anchor="middle" x="749.18" y="-967.61" font-family="Times,serif" font-size="14.00">otrl:OTRL4</text>
</g>
<!-- https://w3id.org/oseg/ont/otrl#OTRL4&#45;&gt;https://w3id.org/oseg/ont/otrl#OTRL -->
<g id="edge2" class="edge">
<title>https://w3id.org/oseg/ont/otrl#OTRL4&#45;&gt;https://w3id.org/oseg/ont/otrl#OTRL</title>
<path fill="none" stroke="black" d="M763.05,-987.47C781.01,-1008.38 812.45,-1044.98 833.16,-1069.1"/>
<polygon fill="black" stroke="black" points="830.57,-1071.46 839.74,-1076.77 835.88,-1066.9 830.57,-1071.46"/>
</g>
<!-- https://w3id.org/oseg/ont/otrl#OTRL2 -->
<g id="node9" class="node">
<title>https://w3id.org/oseg/ont/otrl#OTRL2</title>
<ellipse fill="none" stroke="#e377c2" cx="576.63" cy="-1146.59" rx="67.35" ry="16.03"/>
<text text-anchor="middle" x="576.63" y="-1142.89" font-family="Times,serif" font-size="14.00">otrl:OTRL2</text>
</g>
<!-- https://w3id.org/oseg/ont/otrl#OTRL2&#45;&gt;https://w3id.org/oseg/ont/otrl#OTRL -->
<g id="edge7" class="edge">
<title>https://w3id.org/oseg/ont/otrl#OTRL2&#45;&gt;https://w3id.org/oseg/ont/otrl#OTRL</title>
<path fill="none" stroke="black" d="M629.4,-1136.39C676.54,-1127.26 745.54,-1113.91 794.54,-1104.43"/>
<polygon fill="black" stroke="black" points="795.22,-1107.87 804.37,-1102.53 793.89,-1100.99 795.22,-1107.87"/>
</g>
<!-- https://w3id.org/oseg/ont/otrl#ODRL2 -->
<g id="node10" class="node">
<title>https://w3id.org/oseg/ont/otrl#ODRL2</title>
<ellipse fill="none" stroke="#e377c2" cx="1460.82" cy="-619.89" rx="69.09" ry="16.03"/>
<text text-anchor="middle" x="1460.82" y="-616.19" font-family="Times,serif" font-size="14.00">otrl:ODRL2</text>
</g>
<!-- https://w3id.org/oseg/ont/otrl#ODRL2&#45;&gt;https://w3id.org/oseg/ont/otrl#ODRL -->
<g id="edge45" class="edge">
<title>https://w3id.org/oseg/ont/otrl#ODRL2&#45;&gt;https://w3id.org/oseg/ont/otrl#ODRL</title>
<path fill="none" stroke="black" d="M1431.58,-634.72C1410.97,-645.17 1383.17,-659.26 1360.85,-670.57"/>
<polygon fill="black" stroke="black" points="1359,-667.59 1351.66,-675.23 1362.16,-673.83 1359,-667.59"/>
</g>
<!-- http://www.w3.org/2002/07/owl#Ontology -->
<g id="node11" class="node">
<title>http://www.w3.org/2002/07/owl#Ontology</title>
<ellipse fill="none" stroke="#1f77b4" cx="1676.73" cy="-1402.59" rx="77.56" ry="16.03"/>
<text text-anchor="middle" x="1676.73" y="-1398.89" font-family="Times,serif" font-size="14.00">owl:Ontology</text>
</g>
<!-- https://w3id.org/oseg/ont/otrl#ODRL3Star -->
<g id="node12" class="node">
<title>https://w3id.org/oseg/ont/otrl#ODRL3Star</title>
<ellipse fill="none" stroke="#e377c2" cx="1479.87" cy="-425.06" rx="90.52" ry="16.03"/>
<text text-anchor="middle" x="1479.87" y="-421.36" font-family="Times,serif" font-size="14.00">otrl:ODRL3Star</text>
</g>
<!-- https://w3id.org/oseg/ont/otrl#ODRL3Star&#45;&gt;https://w3id.org/oseg/ont/otrl#ODRL -->
<g id="edge26" class="edge">
<title>https://w3id.org/oseg/ont/otrl#ODRL3Star&#45;&gt;https://w3id.org/oseg/ont/otrl#ODRL</title>
<path fill="none" stroke="black" d="M1470.05,-441.62C1443.4,-486.58 1369.58,-611.12 1337.8,-664.72"/>
<polygon fill="black" stroke="black" points="1334.64,-663.19 1332.55,-673.58 1340.66,-666.76 1334.64,-663.19"/>
</g>
<!-- https://w3id.org/oseg/ont/otrl#OTRL3 -->
<g id="node13" class="node">
<title>https://w3id.org/oseg/ont/otrl#OTRL3</title>
<ellipse fill="none" stroke="#e377c2" cx="583.28" cy="-996.61" rx="67.35" ry="16.03"/>
<text text-anchor="middle" x="583.28" y="-992.91" font-family="Times,serif" font-size="14.00">otrl:OTRL3</text>
</g>
<!-- https://w3id.org/oseg/ont/otrl#OTRL3&#45;&gt;https://w3id.org/oseg/ont/otrl#OTRL -->
<g id="edge14" class="edge">
<title>https://w3id.org/oseg/ont/otrl#OTRL3&#45;&gt;https://w3id.org/oseg/ont/otrl#OTRL</title>
<path fill="none" stroke="black" d="M621.16,-1010.12C670.01,-1027.53 754.92,-1057.79 807.49,-1076.53"/>
<polygon fill="black" stroke="black" points="806.32,-1079.83 816.92,-1079.89 808.67,-1073.23 806.32,-1079.83"/>
</g>
<!-- https://w3id.org/oseg/ont/otrl#ODRL1 -->
<g id="node14" class="node">
<title>https://w3id.org/oseg/ont/otrl#ODRL1</title>
<ellipse fill="none" stroke="#e377c2" cx="1611.32" cy="-656.72" rx="69.09" ry="16.03"/>
<text text-anchor="middle" x="1611.32" y="-653.02" font-family="Times,serif" font-size="14.00">otrl:ODRL1</text>
</g>
<!-- https://w3id.org/oseg/ont/otrl#ODRL1&#45;&gt;https://w3id.org/oseg/ont/otrl#ODRL -->
<g id="edge20" class="edge">
<title>https://w3id.org/oseg/ont/otrl#ODRL1&#45;&gt;https://w3id.org/oseg/ont/otrl#ODRL</title>
<path fill="none" stroke="black" d="M1548.75,-663.9C1502.04,-669.26 1438.3,-676.57 1390.45,-682.05"/>
<polygon fill="black" stroke="black" points="1390.02,-678.58 1380.49,-683.19 1390.82,-685.53 1390.02,-678.58"/>
</g>
<!-- http://www.w3.org/2002/07/owl#DatatypeProperty -->
<g id="node15" class="node">
<title>http://www.w3.org/2002/07/owl#DatatypeProperty</title>
<ellipse fill="none" stroke="#1f77b4" cx="1257.72" cy="-1155.96" rx="123.07" ry="16.03"/>
<text text-anchor="middle" x="1257.72" y="-1152.26" font-family="Times,serif" font-size="14.00">owl:DatatypeProperty</text>
</g>
<!-- https://w3id.org/oseg/ont/otrl#exitCriteria -->
<g id="node16" class="node">
<title>https://w3id.org/oseg/ont/otrl#exitCriteria</title>
<ellipse fill="none" stroke="#e377c2" cx="1132.52" cy="-945.38" rx="91.43" ry="16.03"/>
<text text-anchor="middle" x="1132.52" y="-941.68" font-family="Times,serif" font-size="14.00">otrl:exitCriteria</text>
</g>
<!-- https://w3id.org/oseg/ont/otrl#exitCriteria&#45;&gt;https://w3id.org/oseg/ont/otrl#ODRL -->
<g id="edge5" class="edge">
<title>https://w3id.org/oseg/ont/otrl#exitCriteria&#45;&gt;https://w3id.org/oseg/ont/otrl#ODRL</title>
<path fill="none" stroke="black" d="M1144.73,-929C1177.24,-885.36 1266.1,-766.09 1304.67,-714.31"/>
<polygon fill="black" stroke="black" points="1307.67,-716.15 1310.84,-706.04 1302.05,-711.96 1307.67,-716.15"/>
<text text-anchor="middle" x="1138.7" y="-825.46" font-family="Times,serif" font-size="14.00">schema:domainIncludes</text>
</g>
<!-- https://w3id.org/oseg/ont/otrl#exitCriteria&#45;&gt;https://w3id.org/oseg/ont/otrl#OTRL -->
<g id="edge12" class="edge">
<title>https://w3id.org/oseg/ont/otrl#exitCriteria&#45;&gt;https://w3id.org/oseg/ont/otrl#OTRL</title>
<path fill="none" stroke="black" d="M1103.21,-960.9C1051.95,-988.03 946.17,-1044.03 890.22,-1073.65"/>
<polygon fill="black" stroke="black" points="888.56,-1070.57 881.36,-1078.34 891.84,-1076.75 888.56,-1070.57"/>
<text text-anchor="middle" x="910.72" y="-1006.07" font-family="Times,serif" font-size="14.00">schema:domainIncludes</text>
</g>
<!-- https://w3id.org/oseg/ont/otrl#exitCriteria&#45;&gt;http://www.w3.org/2002/07/owl#DatatypeProperty -->
<g id="edge1" class="edge">
<title>https://w3id.org/oseg/ont/otrl#exitCriteria&#45;&gt;http://www.w3.org/2002/07/owl#DatatypeProperty</title>
<path fill="none" stroke="black" d="M1142.14,-961.55C1163.85,-998.07 1216.79,-1087.13 1242.8,-1130.87"/>
<polygon fill="black" stroke="black" points="1239.95,-1132.93 1248.07,-1139.73 1245.97,-1129.35 1239.95,-1132.93"/>
<text text-anchor="middle" x="1187.97" y="-1050.01" font-family="Times,serif" font-size="14.00">a</text>
</g>
<!-- http://schema.org/Text -->
<g id="node22" class="node">
<title>http://schema.org/Text</title>
<ellipse fill="none" stroke="#e377c2" cx="1303.32" cy="-1005.07" rx="74.91" ry="16.03"/>
<text text-anchor="middle" x="1303.32" y="-1001.37" font-family="Times,serif" font-size="14.00">schema:Text</text>
</g>
<!-- https://w3id.org/oseg/ont/otrl#exitCriteria&#45;&gt;http://schema.org/Text -->
<g id="edge51" class="edge">
<title>https://w3id.org/oseg/ont/otrl#exitCriteria&#45;&gt;http://schema.org/Text</title>
<path fill="none" stroke="black" d="M1174.31,-959.98C1198.37,-968.39 1228.75,-979.01 1253.98,-987.83"/>
<polygon fill="black" stroke="black" points="1253.14,-991.24 1263.73,-991.24 1255.45,-984.63 1253.14,-991.24"/>
<text text-anchor="middle" x="1193.14" y="-977.71" font-family="Times,serif" font-size="14.00">range</text>
</g>
<!-- https://w3id.org/oseg/ont/1.1.0/otrl -->
<g id="node17" class="node">
<title>https://w3id.org/oseg/ont/1.1.0/otrl</title>
<ellipse fill="none" stroke="#e377c2" cx="1935.31" cy="-1479.2" rx="50.82" ry="16.03"/>
<text text-anchor="middle" x="1935.31" y="-1475.5" font-family="Times,serif" font-size="14.00">ns1:otrl</text>
</g>
<!-- https://orcid.org/0009&#45;0004&#45;3559&#45;6542 -->
<g id="node18" class="node">
<title>https://orcid.org/0009&#45;0004&#45;3559&#45;6542</title>
<ellipse fill="none" stroke="#e377c2" cx="1752.73" cy="-1506.31" rx="113.69" ry="16.03"/>
<text text-anchor="middle" x="1752.73" y="-1502.61" font-family="Times,serif" font-size="14.00">orcid:0009&#45;0004&#45;3...</text>
</g>
<!-- https://www.gnu.org/licenses/gpl&#45;3.0.txt -->
<g id="node19" class="node">
<title>https://www.gnu.org/licenses/gpl&#45;3.0.txt</title>
<ellipse fill="none" stroke="#e377c2" cx="1625.25" cy="-1641.33" rx="85.62" ry="16.03"/>
<text text-anchor="middle" x="1625.25" y="-1637.63" font-family="Times,serif" font-size="14.00">ns2:gpl&#45;3.0.txt</text>
</g>
<!-- https://orcid.org/0000&#45;0002&#45;1611&#45;7129 -->
<g id="node20" class="node">
<title>https://orcid.org/0000&#45;0002&#45;1611&#45;7129</title>
<ellipse fill="none" stroke="#e377c2" cx="1864.18" cy="-1592.9" rx="113.69" ry="16.03"/>
<text text-anchor="middle" x="1864.18" y="-1589.2" font-family="Times,serif" font-size="14.00">orcid:0000&#45;0002&#45;1...</text>
</g>
<!-- https://w3id.org/oseg/ont/otrl#Odrl4 -->
<g id="node21" class="node">
<title>https://w3id.org/oseg/ont/otrl#Odrl4</title>
<ellipse fill="none" stroke="#e377c2" cx="1681.59" cy="-1009.59" rx="61.54" ry="16.03"/>
<text text-anchor="middle" x="1681.59" y="-1005.89" font-family="Times,serif" font-size="14.00">otrl:Odrl4</text>
</g>
<!-- https://w3id.org/oseg/ont/otrl#Odrl4&#45;&gt;https://w3id.org/oseg/ont/otrl#ODRL4 -->
<g id="edge8" class="edge">
<title>https://w3id.org/oseg/ont/otrl#Odrl4&#45;&gt;https://w3id.org/oseg/ont/otrl#ODRL4</title>
<path fill="none" stroke="black" d="M1672.78,-993.18C1651.34,-962.77 1596.79,-897.98 1563.81,-863.16"/>
<polygon fill="black" stroke="black" points="1566.18,-860.58 1556.72,-855.8 1561.14,-865.43 1566.18,-860.58"/>
<text text-anchor="middle" x="1575.79" y="-916.97" font-family="Times,serif" font-size="14.00">owl:sameAs</text>
</g>
<!-- https://w3id.org/oseg/ont/otrl#Odrl4&#45;&gt;https://w3id.org/oseg/ont/otrl#ODRL4 -->
<g id="edge28" class="edge">
<title>https://w3id.org/oseg/ont/otrl#Odrl4&#45;&gt;https://w3id.org/oseg/ont/otrl#ODRL4</title>
<path fill="none" stroke="black" d="M1662.54,-993.97C1633.48,-964.44 1579.07,-900.56 1552.57,-865.02"/>
<polygon fill="black" stroke="black" points="1555.18,-862.66 1546.47,-856.63 1549.52,-866.78 1555.18,-862.66"/>
<text text-anchor="middle" x="1527.56" y="-933.3" font-family="Times,serif" font-size="14.00">schema:supersededBy</text>
</g>
<!-- https://w3id.org/oseg/ont/otrl#goal -->
<g id="node23" class="node">
<title>https://w3id.org/oseg/ont/otrl#goal</title>
<ellipse fill="none" stroke="#e377c2" cx="1103.8" cy="-904.45" rx="54.39" ry="16.03"/>
<text text-anchor="middle" x="1103.8" y="-900.75" font-family="Times,serif" font-size="14.00">otrl:goal</text>
</g>
<!-- https://w3id.org/oseg/ont/otrl#goal&#45;&gt;https://w3id.org/oseg/ont/otrl#ODRL -->
<g id="edge4" class="edge">
<title>https://w3id.org/oseg/ont/otrl#goal&#45;&gt;https://w3id.org/oseg/ont/otrl#ODRL</title>
<path fill="none" stroke="black" d="M1119.91,-888.67C1158.22,-851.14 1254.87,-756.47 1299.58,-712.67"/>
<polygon fill="black" stroke="black" points="1302.1,-715.1 1306.8,-705.6 1297.2,-710.1 1302.1,-715.1"/>
<text text-anchor="middle" x="1123.75" y="-804.47" font-family="Times,serif" font-size="14.00">schema:domainIncludes</text>
</g>
<!-- https://w3id.org/oseg/ont/otrl#goal&#45;&gt;https://w3id.org/oseg/ont/otrl#OTRL -->
<g id="edge9" class="edge">
<title>https://w3id.org/oseg/ont/otrl#goal&#45;&gt;https://w3id.org/oseg/ont/otrl#OTRL</title>
<path fill="none" stroke="black" d="M1083.33,-919.88C1038.88,-953.38 933.44,-1032.87 882.37,-1071.36"/>
<polygon fill="black" stroke="black" points="879.96,-1068.8 874.08,-1077.61 884.17,-1074.39 879.96,-1068.8"/>
<text text-anchor="middle" x="1068.85" y="-984.42" font-family="Times,serif" font-size="14.00">schema:domainIncludes</text>
</g>
<!-- https://w3id.org/oseg/ont/otrl#goal&#45;&gt;http://www.w3.org/2002/07/owl#DatatypeProperty -->
<g id="edge41" class="edge">
<title>https://w3id.org/oseg/ont/otrl#goal&#45;&gt;http://www.w3.org/2002/07/owl#DatatypeProperty</title>
<path fill="none" stroke="black" d="M1113.66,-920.57C1139.77,-963.23 1210.84,-1079.36 1242.34,-1130.83"/>
<polygon fill="black" stroke="black" points="1239.53,-1132.95 1247.74,-1139.66 1245.5,-1129.3 1239.53,-1132.95"/>
<text text-anchor="middle" x="1173.5" y="-1029.5" font-family="Times,serif" font-size="14.00">a</text>
</g>
<!-- https://w3id.org/oseg/ont/otrl#goal&#45;&gt;http://schema.org/Text -->
<g id="edge36" class="edge">
<title>https://w3id.org/oseg/ont/otrl#goal&#45;&gt;http://schema.org/Text</title>
<path fill="none" stroke="black" d="M1131.96,-918.65C1166.67,-936.16 1225.81,-965.98 1264.73,-985.61"/>
<polygon fill="black" stroke="black" points="1263.17,-988.74 1273.68,-990.12 1266.32,-982.49 1263.17,-988.74"/>
<text text-anchor="middle" x="1219.35" y="-955.93" font-family="Times,serif" font-size="14.00">range</text>
</g>
<!-- http://id.loc.gov/vocabulary/iso639&#45;1/en -->
<g id="node24" class="node">
<title>http://id.loc.gov/vocabulary/iso639&#45;1/en</title>
<ellipse fill="none" stroke="#e377c2" cx="1807.08" cy="-1696.95" rx="45.01" ry="16.03"/>
<text text-anchor="middle" x="1807.08" y="-1693.25" font-family="Times,serif" font-size="14.00">ns3:en</text>
</g>
<!-- https://w3id.org/oseg/ont/otrl -->
<g id="node25" class="node">
<title>https://w3id.org/oseg/ont/otrl</title>
<ellipse fill="none" stroke="#e377c2" cx="1788.43" cy="-1548.55" rx="50.82" ry="16.03"/>
<text text-anchor="middle" x="1788.43" y="-1544.85" font-family="Times,serif" font-size="14.00">ns4:otrl</text>
</g>
<!-- https://w3id.org/oseg/ont/otrl&#45;&gt;http://www.w3.org/2002/07/owl#Ontology -->
<g id="edge50" class="edge">
<title>https://w3id.org/oseg/ont/otrl&#45;&gt;http://www.w3.org/2002/07/owl#Ontology</title>
<path fill="none" stroke="black" d="M1776.26,-1532.65C1756.81,-1507.23 1718.56,-1457.25 1695.56,-1427.19"/>
<polygon fill="black" stroke="black" points="1698.08,-1424.73 1689.23,-1418.91 1692.52,-1428.98 1698.08,-1424.73"/>
<text text-anchor="middle" x="1731.41" y="-1468.72" font-family="Times,serif" font-size="14.00">a</text>
</g>
<!-- https://w3id.org/oseg/ont/otrl&#45;&gt;https://w3id.org/oseg/ont/1.1.0/otrl -->
<g id="edge10" class="edge">
<title>https://w3id.org/oseg/ont/otrl&#45;&gt;https://w3id.org/oseg/ont/1.1.0/otrl</title>
<path fill="none" stroke="black" d="M1817.09,-1535.01C1840.04,-1524.18 1872.43,-1508.89 1897.5,-1497.05"/>
<polygon fill="black" stroke="black" points="1899.16,-1500.13 1906.71,-1492.7 1896.17,-1493.8 1899.16,-1500.13"/>
<text text-anchor="middle" x="1908.8" y="-1519.83" font-family="Times,serif" font-size="14.00">owl:versionIRI</text>
</g>
<!-- https://w3id.org/oseg/ont/otrl&#45;&gt;https://orcid.org/0009&#45;0004&#45;3559&#45;6542 -->
<g id="edge15" class="edge">
<title>https://w3id.org/oseg/ont/otrl&#45;&gt;https://orcid.org/0009&#45;0004&#45;3559&#45;6542</title>
<path fill="none" stroke="black" d="M1775.13,-1532.82C1774.42,-1531.98 1773.7,-1531.12 1772.97,-1530.26"/>
<polygon fill="black" stroke="black" points="1775.52,-1527.85 1766.39,-1522.48 1770.17,-1532.37 1775.52,-1527.85"/>
<text text-anchor="middle" x="1716.55" y="-1535.34" font-family="Times,serif" font-size="14.00">dcterms:creator</text>
</g>
<!-- https://w3id.org/oseg/ont/otrl&#45;&gt;https://www.gnu.org/licenses/gpl&#45;3.0.txt -->
<g id="edge22" class="edge">
<title>https://w3id.org/oseg/ont/otrl&#45;&gt;https://www.gnu.org/licenses/gpl&#45;3.0.txt</title>
<path fill="none" stroke="black" d="M1755.45,-1561.1C1725.11,-1576.25 1680.69,-1601.52 1652.36,-1619.76"/>
<polygon fill="black" stroke="black" points="1650.19,-1617 1643.76,-1625.42 1654.04,-1622.85 1650.19,-1617"/>
<text text-anchor="middle" x="1647.4" y="-1594.23" font-family="Times,serif" font-size="14.00">dcterms:license</text>
</g>
<!-- https://w3id.org/oseg/ont/otrl&#45;&gt;https://www.gnu.org/licenses/gpl&#45;3.0.txt -->
<g id="edge48" class="edge">
<title>https://w3id.org/oseg/ont/otrl&#45;&gt;https://www.gnu.org/licenses/gpl&#45;3.0.txt</title>
<path fill="none" stroke="black" d="M1770.7,-1563.94C1747.07,-1579.96 1704.51,-1604.7 1671.5,-1621.98"/>
<polygon fill="black" stroke="black" points="1669.74,-1618.95 1662.46,-1626.65 1672.95,-1625.17 1669.74,-1618.95"/>
<text text-anchor="middle" x="1703.6" y="-1581.76" font-family="Times,serif" font-size="14.00">cc:license</text>
</g>
<!-- https://w3id.org/oseg/ont/otrl&#45;&gt;https://orcid.org/0000&#45;0002&#45;1611&#45;7129 -->
<g id="edge27" class="edge">
<title>https://w3id.org/oseg/ont/otrl&#45;&gt;https://orcid.org/0000&#45;0002&#45;1611&#45;7129</title>
<path fill="none" stroke="black" d="M1813.23,-1563.07C1817.98,-1565.85 1823.04,-1568.81 1828.05,-1571.75"/>
<polygon fill="black" stroke="black" points="1826.57,-1574.93 1836.97,-1576.97 1830.1,-1568.89 1826.57,-1574.93"/>
<text text-anchor="middle" x="1878.14" y="-1556.21" font-family="Times,serif" font-size="14.00">dcterms:creator</text>
</g>
<!-- https://w3id.org/oseg/ont/otrl&#45;&gt;http://id.loc.gov/vocabulary/iso639&#45;1/en -->
<g id="edge43" class="edge">
<title>https://w3id.org/oseg/ont/otrl&#45;&gt;http://id.loc.gov/vocabulary/iso639&#45;1/en</title>
<path fill="none" stroke="black" d="M1790.49,-1565C1793.7,-1590.52 1799.91,-1639.88 1803.75,-1670.47"/>
<polygon fill="black" stroke="black" points="1800.29,-1670.95 1805.01,-1680.43 1807.23,-1670.07 1800.29,-1670.95"/>
<text text-anchor="middle" x="1861.62" y="-1621.53" font-family="Times,serif" font-size="14.00">dcterms:language</text>
</g>
<!-- https://w3id.org/oseg/ont/otrl#Otrl4 -->
<g id="node26" class="node">
<title>https://w3id.org/oseg/ont/otrl#Otrl4</title>
<ellipse fill="none" stroke="black" cx="719.32" cy="-924.43" rx="194.41" ry="16.03"/>
<text text-anchor="middle" x="719.32" y="-920.73" font-family="Times,serif" font-size="14.00">https://w3id.org/oseg/ont/otrl#Otrl4</text>
</g>
<!-- https://w3id.org/oseg/ont/otrl#Otrl4&#45;&gt;https://w3id.org/oseg/ont/otrl#OTRL4 -->
<g id="edge6" class="edge">
<title>https://w3id.org/oseg/ont/otrl#Otrl4&#45;&gt;https://w3id.org/oseg/ont/otrl#OTRL4</title>
<path fill="none" stroke="black" d="M722.47,-940.78C723.43,-942.71 724.5,-944.71 725.66,-946.71"/>
<polygon fill="black" stroke="black" points="722.85,-948.83 731.15,-955.41 728.77,-945.09 722.85,-948.83"/>
<text text-anchor="middle" x="644.06" y="-947.55" font-family="Times,serif" font-size="14.00">schema:supersededBy</text>
</g>
<!-- https://w3id.org/oseg/ont/otrl#Otrl4&#45;&gt;https://w3id.org/oseg/ont/otrl#OTRL4 -->
<g id="edge53" class="edge">
<title>https://w3id.org/oseg/ont/otrl#Otrl4&#45;&gt;https://w3id.org/oseg/ont/otrl#OTRL4</title>
<path fill="none" stroke="black" d="M737.62,-940.72C738.8,-942.45 739.95,-944.22 741.05,-946.02"/>
<polygon fill="black" stroke="black" points="738.07,-947.87 746,-954.9 744.19,-944.46 738.07,-947.87"/>
<text text-anchor="middle" x="781.83" y="-947.17" font-family="Times,serif" font-size="14.00">owl:sameAs</text>
</g>
<!-- https://w3id.org/oseg/ont/otrl#Odrl1 -->
<g id="node27" class="node">
<title>https://w3id.org/oseg/ont/otrl#Odrl1</title>
<ellipse fill="none" stroke="black" cx="2000.07" cy="-556.69" rx="196.65" ry="16.03"/>
<text text-anchor="middle" x="2000.07" y="-552.99" font-family="Times,serif" font-size="14.00">https://w3id.org/oseg/ont/otrl#Odrl1</text>
</g>
<!-- https://w3id.org/oseg/ont/otrl#Odrl1&#45;&gt;https://w3id.org/oseg/ont/otrl#ODRL1 -->
<g id="edge13" class="edge">
<title>https://w3id.org/oseg/ont/otrl#Odrl1&#45;&gt;https://w3id.org/oseg/ont/otrl#ODRL1</title>
<path fill="none" stroke="black" d="M1920.01,-571.56C1841,-589.96 1722.89,-620.68 1658.06,-639.92"/>
<polygon fill="black" stroke="black" points="1656.7,-636.68 1648.13,-642.91 1658.71,-643.38 1656.7,-636.68"/>
<text text-anchor="middle" x="1709.04" y="-609.54" font-family="Times,serif" font-size="14.00">schema:supersededBy</text>
</g>
<!-- https://w3id.org/oseg/ont/otrl#Odrl1&#45;&gt;https://w3id.org/oseg/ont/otrl#ODRL1 -->
<g id="edge31" class="edge">
<title>https://w3id.org/oseg/ont/otrl#Odrl1&#45;&gt;https://w3id.org/oseg/ont/otrl#ODRL1</title>
<path fill="none" stroke="black" d="M1956.22,-572.63C1888.28,-592.94 1757.18,-626.91 1677.63,-645.02"/>
<polygon fill="black" stroke="black" points="1676.7,-641.64 1667.71,-647.25 1678.24,-648.47 1676.7,-641.64"/>
<text text-anchor="middle" x="1859.42" y="-612.62" font-family="Times,serif" font-size="14.00">owl:sameAs</text>
</g>
<!-- https://w3id.org/oseg/ont/otrl#Odrl3 -->
<g id="node28" class="node">
<title>https://w3id.org/oseg/ont/otrl#Odrl3</title>
<ellipse fill="none" stroke="black" cx="1321.3" cy="-16.22" rx="196.65" ry="16.03"/>
<text text-anchor="middle" x="1321.3" y="-12.52" font-family="Times,serif" font-size="14.00">https://w3id.org/oseg/ont/otrl#Odrl3</text>
</g>
<!-- https://w3id.org/oseg/ont/otrl#Odrl3&#45;&gt;https://w3id.org/oseg/ont/otrl#ODRL3 -->
<g id="edge16" class="edge">
<title>https://w3id.org/oseg/ont/otrl#Odrl3&#45;&gt;https://w3id.org/oseg/ont/otrl#ODRL3</title>
<path fill="none" stroke="black" d="M1317.98,-32.54C1311.46,-94.09 1305.51,-312.53 1307.95,-388.89"/>
<polygon fill="black" stroke="black" points="1304.46,-389.24 1308.37,-399.09 1311.46,-388.95 1304.46,-389.24"/>
<text text-anchor="middle" x="1270.47" y="-214.52" font-family="Times,serif" font-size="14.00">owl:sameAs</text>
</g>
<!-- https://w3id.org/oseg/ont/otrl#Odrl3&#45;&gt;https://w3id.org/oseg/ont/otrl#ODRL3 -->
<g id="edge24" class="edge">
<title>https://w3id.org/oseg/ont/otrl#Odrl3&#45;&gt;https://w3id.org/oseg/ont/otrl#ODRL3</title>
<path fill="none" stroke="black" d="M1323.77,-32.69C1327.04,-94.36 1321.57,-311.96 1315.15,-388.56"/>
<polygon fill="black" stroke="black" points="1311.64,-388.52 1314.19,-398.8 1318.61,-389.17 1311.64,-388.52"/>
<text text-anchor="middle" x="1239.46" y="-199.43" font-family="Times,serif" font-size="14.00">schema:supersededBy</text>
</g>
<!-- https://w3id.org/oseg/ont/otrl#Otrl3 -->
<g id="node29" class="node">
<title>https://w3id.org/oseg/ont/otrl#Otrl3</title>
<ellipse fill="none" stroke="black" cx="209.03" cy="-867.65" rx="194.41" ry="16.03"/>
<text text-anchor="middle" x="209.03" y="-863.95" font-family="Times,serif" font-size="14.00">https://w3id.org/oseg/ont/otrl#Otrl3</text>
</g>
<!-- https://w3id.org/oseg/ont/otrl#Otrl3&#45;&gt;https://w3id.org/oseg/ont/otrl#OTRL3 -->
<g id="edge17" class="edge">
<title>https://w3id.org/oseg/ont/otrl#Otrl3&#45;&gt;https://w3id.org/oseg/ont/otrl#OTRL3</title>
<path fill="none" stroke="black" d="M242.89,-883.7C307.03,-909.16 446.85,-957.63 525.89,-982.1"/>
<polygon fill="black" stroke="black" points="525.1,-985.52 535.69,-985.1 527.15,-978.82 525.1,-985.52"/>
<text text-anchor="middle" x="304.39" y="-936.7" font-family="Times,serif" font-size="14.00">schema:supersededBy</text>
</g>
<!-- https://w3id.org/oseg/ont/otrl#Otrl3&#45;&gt;https://w3id.org/oseg/ont/otrl#OTRL3 -->
<g id="edge21" class="edge">
<title>https://w3id.org/oseg/ont/otrl#Otrl3&#45;&gt;https://w3id.org/oseg/ont/otrl#OTRL3</title>
<path fill="none" stroke="black" d="M269.57,-883.14C346.73,-907.16 477.91,-952.59 543.49,-978.23"/>
<polygon fill="black" stroke="black" points="542.47,-981.59 553.06,-982.01 545.05,-975.08 542.47,-981.59"/>
<text text-anchor="middle" x="364.03" y="-919.48" font-family="Times,serif" font-size="14.00">owl:sameAs</text>
</g>
<!-- https://w3id.org/oseg/ont/otrl#Otrl1 -->
<g id="node30" class="node">
<title>https://w3id.org/oseg/ont/otrl#Otrl1</title>
<ellipse fill="none" stroke="black" cx="593.4" cy="-1306.68" rx="194.41" ry="16.03"/>
<text text-anchor="middle" x="593.4" y="-1302.98" font-family="Times,serif" font-size="14.00">https://w3id.org/oseg/ont/otrl#Otrl1</text>
</g>
<!-- https://w3id.org/oseg/ont/otrl#Otrl1&#45;&gt;https://w3id.org/oseg/ont/otrl#OTRL1 -->
<g id="edge19" class="edge">
<title>https://w3id.org/oseg/ont/otrl#Otrl1&#45;&gt;https://w3id.org/oseg/ont/otrl#OTRL1</title>
<path fill="none" stroke="black" d="M624.16,-1290.46C624.65,-1290.06 625.14,-1289.64 625.63,-1289.23"/>
<polygon fill="black" stroke="black" points="627.99,-1291.82 633.07,-1282.52 623.3,-1286.62 627.99,-1291.82"/>
<text text-anchor="middle" x="582.4" y="-1278.65" font-family="Times,serif" font-size="14.00">owl:sameAs</text>
</g>
<!-- https://w3id.org/oseg/ont/otrl#Otrl1&#45;&gt;https://w3id.org/oseg/ont/otrl#OTRL1 -->
<g id="edge54" class="edge">
<title>https://w3id.org/oseg/ont/otrl#Otrl1&#45;&gt;https://w3id.org/oseg/ont/otrl#OTRL1</title>
<path fill="none" stroke="black" d="M603.75,-1290.38C604.66,-1289.51 605.6,-1288.62 606.57,-1287.73"/>
<polygon fill="black" stroke="black" points="609.16,-1290.12 614.47,-1280.95 604.61,-1284.8 609.16,-1290.12"/>
<text text-anchor="middle" x="685.16" y="-1277.86" font-family="Times,serif" font-size="14.00">schema:supersededBy</text>
</g>
<!-- https://w3id.org/oseg/ont/otrl#Otrl6 -->
<g id="node31" class="node">
<title>https://w3id.org/oseg/ont/otrl#Otrl6</title>
<ellipse fill="none" stroke="black" cx="1035.58" cy="-1390.92" rx="194.41" ry="16.03"/>
<text text-anchor="middle" x="1035.58" y="-1387.22" font-family="Times,serif" font-size="14.00">https://w3id.org/oseg/ont/otrl#Otrl6</text>
</g>
<!-- https://w3id.org/oseg/ont/otrl#Otrl6&#45;&gt;https://w3id.org/oseg/ont/otrl#OTRL6 -->
<g id="edge23" class="edge">
<title>https://w3id.org/oseg/ont/otrl#Otrl6&#45;&gt;https://w3id.org/oseg/ont/otrl#OTRL6</title>
<path fill="none" stroke="black" d="M1029.52,-1374.63C1028.11,-1372.6 1026.54,-1370.49 1024.87,-1368.38"/>
<polygon fill="black" stroke="black" points="1027.19,-1365.72 1018.04,-1360.37 1021.86,-1370.25 1027.19,-1365.72"/>
<text text-anchor="middle" x="1069.69" y="-1360.31" font-family="Times,serif" font-size="14.00">owl:sameAs</text>
</g>
<!-- https://w3id.org/oseg/ont/otrl#Otrl6&#45;&gt;https://w3id.org/oseg/ont/otrl#OTRL6 -->
<g id="edge32" class="edge">
<title>https://w3id.org/oseg/ont/otrl#Otrl6&#45;&gt;https://w3id.org/oseg/ont/otrl#OTRL6</title>
<path fill="none" stroke="black" d="M1012.73,-1374.73C1011.11,-1372.94 1009.52,-1371.09 1008,-1369.22"/>
<polygon fill="black" stroke="black" points="1010.69,-1366.98 1001.86,-1361.13 1005.11,-1371.21 1010.69,-1366.98"/>
<text text-anchor="middle" x="930.36" y="-1360.78" font-family="Times,serif" font-size="14.00">schema:supersededBy</text>
</g>
<!-- https://w3id.org/oseg/ont/otrl#Otrl2 -->
<g id="node32" class="node">
<title>https://w3id.org/oseg/ont/otrl#Otrl2</title>
<ellipse fill="none" stroke="black" cx="194.01" cy="-1263.66" rx="194.41" ry="16.03"/>
<text text-anchor="middle" x="194.01" y="-1259.96" font-family="Times,serif" font-size="14.00">https://w3id.org/oseg/ont/otrl#Otrl2</text>
</g>
<!-- https://w3id.org/oseg/ont/otrl#Otrl2&#45;&gt;https://w3id.org/oseg/ont/otrl#OTRL2 -->
<g id="edge25" class="edge">
<title>https://w3id.org/oseg/ont/otrl#Otrl2&#45;&gt;https://w3id.org/oseg/ont/otrl#OTRL2</title>
<path fill="none" stroke="black" d="M262.2,-1248.31C341.05,-1226.49 468.4,-1187.26 534.23,-1164.26"/>
<polygon fill="black" stroke="black" points="535.6,-1167.49 543.86,-1160.85 533.27,-1160.89 535.6,-1167.49"/>
<text text-anchor="middle" x="355.71" y="-1210.08" font-family="Times,serif" font-size="14.00">owl:sameAs</text>
</g>
<!-- https://w3id.org/oseg/ont/otrl#Otrl2&#45;&gt;https://w3id.org/oseg/ont/otrl#OTRL2 -->
<g id="edge34" class="edge">
<title>https://w3id.org/oseg/ont/otrl#Otrl2&#45;&gt;https://w3id.org/oseg/ont/otrl#OTRL2</title>
<path fill="none" stroke="black" d="M231.55,-1247.7C297.72,-1224.31 435.61,-1181.84 515.61,-1159.98"/>
<polygon fill="black" stroke="black" points="516.81,-1163.28 525.55,-1157.29 514.98,-1156.52 516.81,-1163.28"/>
<text text-anchor="middle" x="293.58" y="-1192.64" font-family="Times,serif" font-size="14.00">schema:supersededBy</text>
</g>
<!-- https://w3id.org/oseg/ont/otrl#Odrl -->
<g id="node33" class="node">
<title>https://w3id.org/oseg/ont/otrl#Odrl</title>
<ellipse fill="none" stroke="black" cx="1151.06" cy="-347.15" rx="190.42" ry="16.03"/>
<text text-anchor="middle" x="1151.06" y="-343.45" font-family="Times,serif" font-size="14.00">https://w3id.org/oseg/ont/otrl#Odrl</text>
</g>
<!-- https://w3id.org/oseg/ont/otrl#Odrl&#45;&gt;https://w3id.org/oseg/ont/otrl#ODRL -->
<g id="edge29" class="edge">
<title>https://w3id.org/oseg/ont/otrl#Odrl&#45;&gt;https://w3id.org/oseg/ont/otrl#ODRL</title>
<path fill="none" stroke="black" d="M1155.99,-363.66C1178.48,-418.97 1267.83,-597.74 1305.9,-664.43"/>
<polygon fill="black" stroke="black" points="1303.08,-666.55 1311.13,-673.43 1309.13,-663.03 1303.08,-666.55"/>
<text text-anchor="middle" x="1150.95" y="-517.85" font-family="Times,serif" font-size="14.00">schema:supersededBy</text>
</g>
<!-- https://w3id.org/oseg/ont/otrl#Odrl&#45;&gt;https://w3id.org/oseg/ont/otrl#ODRL -->
<g id="edge37" class="edge">
<title>https://w3id.org/oseg/ont/otrl#Odrl&#45;&gt;https://w3id.org/oseg/ont/otrl#ODRL</title>
<path fill="none" stroke="black" d="M1162.94,-363.65C1195.72,-418.84 1285.29,-597.09 1314.13,-664.07"/>
<polygon fill="black" stroke="black" points="1310.98,-665.61 1318.08,-673.47 1317.44,-662.9 1310.98,-665.61"/>
<text text-anchor="middle" x="1196.04" y="-502.66" font-family="Times,serif" font-size="14.00">owl:sameAs</text>
</g>
<!-- https://w3id.org/oseg/ont/otrl#Otrl5 -->
<g id="node34" class="node">
<title>https://w3id.org/oseg/ont/otrl#Otrl5</title>
<ellipse fill="none" stroke="black" cx="619.37" cy="-1730.5" rx="194.41" ry="16.03"/>
<text text-anchor="middle" x="619.37" y="-1726.8" font-family="Times,serif" font-size="14.00">https://w3id.org/oseg/ont/otrl#Otrl5</text>
</g>
<!-- https://w3id.org/oseg/ont/otrl#Otrl5&#45;&gt;https://w3id.org/oseg/ont/otrl#OTRL5 -->
<g id="edge30" class="edge">
<title>https://w3id.org/oseg/ont/otrl#Otrl5&#45;&gt;https://w3id.org/oseg/ont/otrl#OTRL5</title>
<path fill="none" stroke="black" d="M629.11,-1713.83C656.64,-1655.3 732.25,-1459.11 755,-1387.82"/>
<polygon fill="black" stroke="black" points="758.35,-1388.83 757.96,-1378.24 751.66,-1386.76 758.35,-1388.83"/>
<text text-anchor="middle" x="649.55" y="-1554.62" font-family="Times,serif" font-size="14.00">owl:sameAs</text>
</g>
<!-- https://w3id.org/oseg/ont/otrl#Otrl5&#45;&gt;https://w3id.org/oseg/ont/otrl#OTRL5 -->
<g id="edge38" class="edge">
<title>https://w3id.org/oseg/ont/otrl#Otrl5&#45;&gt;https://w3id.org/oseg/ont/otrl#OTRL5</title>
<path fill="none" stroke="black" d="M622.56,-1714.08C639.84,-1655.7 715.51,-1458.16 747.36,-1387.25"/>
<polygon fill="black" stroke="black" points="750.57,-1388.66 751.56,-1378.11 744.21,-1385.74 750.57,-1388.66"/>
<text text-anchor="middle" x="604.96" y="-1539.46" font-family="Times,serif" font-size="14.00">schema:supersededBy</text>
</g>
<!-- https://w3id.org/oseg/ont/otrl#Odrl5 -->
<g id="node35" class="node">
<title>https://w3id.org/oseg/ont/otrl#Odrl5</title>
<ellipse fill="none" stroke="black" cx="1740.85" cy="-1054.54" rx="196.65" ry="16.03"/>
<text text-anchor="middle" x="1740.85" y="-1050.84" font-family="Times,serif" font-size="14.00">https://w3id.org/oseg/ont/otrl#Odrl5</text>
</g>
<!-- https://w3id.org/oseg/ont/otrl#Odrl5&#45;&gt;https://w3id.org/oseg/ont/otrl#Odrl4 -->
<g id="edge33" class="edge">
<title>https://w3id.org/oseg/ont/otrl#Odrl5&#45;&gt;https://w3id.org/oseg/ont/otrl#Odrl4</title>
<path fill="none" stroke="black" d="M1729.21,-1038.19C1726.33,-1035.57 1723.11,-1032.83 1719.73,-1030.14"/>
<polygon fill="black" stroke="black" points="1721.73,-1027.26 1711.65,-1023.98 1717.49,-1032.82 1721.73,-1027.26"/>
<text text-anchor="middle" x="1804.47" y="-1022.96" font-family="Times,serif" font-size="14.00">schema:supersededBy</text>
</g>
<!-- https://w3id.org/oseg/ont/otrl#Odrl5&#45;&gt;https://w3id.org/oseg/ont/otrl#Odrl4 -->
<g id="edge40" class="edge">
<title>https://w3id.org/oseg/ont/otrl#Odrl5&#45;&gt;https://w3id.org/oseg/ont/otrl#Odrl4</title>
<path fill="none" stroke="black" d="M1708.53,-1038.49C1705.95,-1036.56 1703.39,-1034.56 1700.93,-1032.56"/>
<polygon fill="black" stroke="black" points="1702.97,-1029.69 1693.11,-1025.82 1698.4,-1035 1702.97,-1029.69"/>
<text text-anchor="middle" x="1662.23" y="-1024.33" font-family="Times,serif" font-size="14.00">owl:sameAs</text>
</g>
<!-- https://w3id.org/oseg/ont/otrl#Otrl -->
<g id="node36" class="node">
<title>https://w3id.org/oseg/ont/otrl#Otrl</title>
<ellipse fill="none" stroke="black" cx="861.13" cy="-1046.88" rx="188.18" ry="16.03"/>
<text text-anchor="middle" x="861.13" y="-1043.18" font-family="Times,serif" font-size="14.00">https://w3id.org/oseg/ont/otrl#Otrl</text>
</g>
<!-- https://w3id.org/oseg/ont/otrl#Otrl&#45;&gt;https://w3id.org/oseg/ont/otrl#OTRL -->
<g id="edge39" class="edge">
<title>https://w3id.org/oseg/ont/otrl#Otrl&#45;&gt;https://w3id.org/oseg/ont/otrl#OTRL</title>
<path fill="none" stroke="black" d="M851.83,-1063.27C851.58,-1064.35 851.35,-1065.46 851.14,-1066.58"/>
<polygon fill="black" stroke="black" points="847.65,-1066.26 849.84,-1076.63 854.59,-1067.16 847.65,-1066.26"/>
<text text-anchor="middle" x="771.48" y="-1068.72" font-family="Times,serif" font-size="14.00">schema:supersededBy</text>
</g>
<!-- https://w3id.org/oseg/ont/otrl#Otrl&#45;&gt;https://w3id.org/oseg/ont/otrl#OTRL -->
<g id="edge46" class="edge">
<title>https://w3id.org/oseg/ont/otrl#Otrl&#45;&gt;https://w3id.org/oseg/ont/otrl#OTRL</title>
<path fill="none" stroke="black" d="M864.97,-1063.26C864.9,-1064.35 864.79,-1065.46 864.67,-1066.58"/>
<polygon fill="black" stroke="black" points="861.18,-1066.24 862.96,-1076.68 868.08,-1067.41 861.18,-1066.24"/>
<text text-anchor="middle" x="907.32" y="-1068.72" font-family="Times,serif" font-size="14.00">owl:sameAs</text>
</g>
<!-- https://w3id.org/oseg/ont/otrl#Odrl2 -->
<g id="node37" class="node">
<title>https://w3id.org/oseg/ont/otrl#Odrl2</title>
<ellipse fill="none" stroke="black" cx="1551.8" cy="-576.36" rx="196.65" ry="16.03"/>
<text text-anchor="middle" x="1551.8" y="-572.66" font-family="Times,serif" font-size="14.00">https://w3id.org/oseg/ont/otrl#Odrl2</text>
</g>
<!-- https://w3id.org/oseg/ont/otrl#Odrl2&#45;&gt;https://w3id.org/oseg/ont/otrl#ODRL2 -->
<g id="edge42" class="edge">
<title>https://w3id.org/oseg/ont/otrl#Odrl2&#45;&gt;https://w3id.org/oseg/ont/otrl#ODRL2</title>
<path fill="none" stroke="black" d="M1503.13,-592.17C1498.3,-594.48 1493.51,-596.89 1489,-599.28"/>
<polygon fill="black" stroke="black" points="1487.24,-596.25 1480.17,-604.13 1490.61,-602.38 1487.24,-596.25"/>
<text text-anchor="middle" x="1538.56" y="-599.52" font-family="Times,serif" font-size="14.00">owl:sameAs</text>
</g>
<!-- https://w3id.org/oseg/ont/otrl#Odrl2&#45;&gt;https://w3id.org/oseg/ont/otrl#ODRL2 -->
<g id="edge49" class="edge">
<title>https://w3id.org/oseg/ont/otrl#Odrl2&#45;&gt;https://w3id.org/oseg/ont/otrl#ODRL2</title>
<path fill="none" stroke="black" d="M1531.41,-592.72C1525.67,-595.97 1519.17,-599.37 1512.48,-602.64"/>
<polygon fill="black" stroke="black" points="1510.84,-599.54 1503.3,-606.99 1513.84,-605.87 1510.84,-599.54"/>
<text text-anchor="middle" x="1601.94" y="-601.48" font-family="Times,serif" font-size="14.00">schema:supersededBy</text>
</g>
<!-- https://w3id.org/oseg/ont/otrl#Odrl3Star -->
<g id="node38" class="node">
<title>https://w3id.org/oseg/ont/otrl#Odrl3Star</title>
<ellipse fill="none" stroke="black" cx="1743.92" cy="-65.03" rx="218.49" ry="16.03"/>
<text text-anchor="middle" x="1743.92" y="-61.33" font-family="Times,serif" font-size="14.00">https://w3id.org/oseg/ont/otrl#Odrl3Star</text>
</g>
<!-- https://w3id.org/oseg/ont/otrl#Odrl3Star&#45;&gt;https://w3id.org/oseg/ont/otrl#ODRL3Star -->
<g id="edge44" class="edge">
<title>https://w3id.org/oseg/ont/otrl#Odrl3Star&#45;&gt;https://w3id.org/oseg/ont/otrl#ODRL3Star</title>
<path fill="none" stroke="black" d="M1727.9,-81.49C1679.9,-139.09 1538.84,-331.24 1493.75,-400.21"/>
<polygon fill="black" stroke="black" points="1490.73,-398.43 1488.27,-408.73 1496.62,-402.21 1490.73,-398.43"/>
<text text-anchor="middle" x="1568.32" y="-244.65" font-family="Times,serif" font-size="14.00">owl:sameAs</text>
</g>
<!-- https://w3id.org/oseg/ont/otrl#Odrl3Star&#45;&gt;https://w3id.org/oseg/ont/otrl#ODRL3Star -->
<g id="edge52" class="edge">
<title>https://w3id.org/oseg/ont/otrl#Odrl3Star&#45;&gt;https://w3id.org/oseg/ont/otrl#ODRL3Star</title>
<path fill="none" stroke="black" d="M1735.56,-81.29C1699.42,-138.79 1557.91,-332.22 1502.32,-400.78"/>
<polygon fill="black" stroke="black" points="1499.31,-398.92 1495.67,-408.87 1504.72,-403.36 1499.31,-398.92"/>
<text text-anchor="middle" x="1698.94" y="-244.83" font-family="Times,serif" font-size="14.00">schema:supersededBy</text>
</g>
</g>
</svg>
