<?xml version="1.0" encoding="UTF-8" standalone="no"?>
<!DOCTYPE svg PUBLIC "-//W3C//DTD SVG 1.1//EN"
 "http://www.w3.org/Graphics/SVG/1.1/DTD/svg11.dtd">
<!-- Generated by graphviz version 2.43.0 (0)
 -->
<!-- Title: G Pages: 1 -->
<svg width="1838pt" height="1550pt"
 viewBox="0.00 0.00 1838.00 1550.00" xmlns="http://www.w3.org/2000/svg" xmlns:xlink="http://www.w3.org/1999/xlink">
<g id="graph0" class="graph" transform="scale(1 1) rotate(0) translate(4 1546)">
<title>G</title>
<polygon fill="white" stroke="transparent" points="-4,4 -4,-1546 1834,-1546 1834,4 -4,4"/>
<!-- https://w3id.org/oseg/ont/otrl#ODRL -->
<g id="node1" class="node">
<title>https://w3id.org/oseg/ont/otrl#ODRL</title>
<ellipse fill="none" stroke="#e377c2" cx="993.93" cy="-618.15" rx="62.87" ry="16.03"/>
<text text-anchor="middle" x="993.93" y="-614.45" font-family="Times,serif" font-size="14.00">otrl:ODRL</text>
</g>
<!-- https://w3id.org/oseg/ont/otrl#OTRL -->
<g id="node2" class="node">
<title>https://w3id.org/oseg/ont/otrl#OTRL</title>
<ellipse fill="none" stroke="#e377c2" cx="746" cy="-1035.83" rx="60.62" ry="16.03"/>
<text text-anchor="middle" x="746" y="-1032.13" font-family="Times,serif" font-size="14.00">otrl:OTRL</text>
</g>
<!-- https://w3id.org/oseg/ont/otrl#ODRL4 -->
<g id="node3" class="node">
<title>https://w3id.org/oseg/ont/otrl#ODRL4</title>
<ellipse fill="none" stroke="#e377c2" cx="1191.16" cy="-717.39" rx="69.09" ry="16.03"/>
<text text-anchor="middle" x="1191.16" y="-713.69" font-family="Times,serif" font-size="14.00">otrl:ODRL4</text>
</g>
<!-- https://w3id.org/oseg/ont/otrl#ODRL4&#45;&gt;https://w3id.org/oseg/ont/otrl#ODRL -->
<g id="edge34" class="edge">
<title>https://w3id.org/oseg/ont/otrl#ODRL4&#45;&gt;https://w3id.org/oseg/ont/otrl#ODRL</title>
<path fill="none" stroke="black" d="M1161.63,-702.54C1127.06,-685.14 1069.72,-656.29 1031.87,-637.24"/>
<polygon fill="black" stroke="black" points="1033.2,-634 1022.7,-632.63 1030.06,-640.25 1033.2,-634"/>
</g>
<!-- https://w3id.org/oseg/ont/otrl#ODRL3 -->
<g id="node4" class="node">
<title>https://w3id.org/oseg/ont/otrl#ODRL3</title>
<ellipse fill="none" stroke="#e377c2" cx="916.42" cy="-407.9" rx="69.09" ry="16.03"/>
<text text-anchor="middle" x="916.42" y="-404.2" font-family="Times,serif" font-size="14.00">otrl:ODRL3</text>
</g>
<!-- https://w3id.org/oseg/ont/otrl#ODRL3&#45;&gt;https://w3id.org/oseg/ont/otrl#ODRL -->
<g id="edge17" class="edge">
<title>https://w3id.org/oseg/ont/otrl#ODRL3&#45;&gt;https://w3id.org/oseg/ont/otrl#ODRL</title>
<path fill="none" stroke="black" d="M922.5,-424.4C935.94,-460.86 968.27,-548.54 984.41,-592.34"/>
<polygon fill="black" stroke="black" points="981.13,-593.56 987.88,-601.73 987.7,-591.14 981.13,-593.56"/>
</g>
<!-- https://w3id.org/oseg/ont/otrl#OTRL5 -->
<g id="node5" class="node">
<title>https://w3id.org/oseg/ont/otrl#OTRL5</title>
<ellipse fill="none" stroke="#e377c2" cx="895.32" cy="-1199.7" rx="67.35" ry="16.03"/>
<text text-anchor="middle" x="895.32" y="-1196" font-family="Times,serif" font-size="14.00">otrl:OTRL5</text>
</g>
<!-- https://w3id.org/oseg/ont/otrl#OTRL5&#45;&gt;https://w3id.org/oseg/ont/otrl#OTRL -->
<g id="edge2" class="edge">
<title>https://w3id.org/oseg/ont/otrl#OTRL5&#45;&gt;https://w3id.org/oseg/ont/otrl#OTRL</title>
<path fill="none" stroke="black" d="M880.73,-1183.69C854.24,-1154.61 798.11,-1093.01 767.32,-1059.22"/>
<polygon fill="black" stroke="black" points="769.75,-1056.7 760.43,-1051.66 764.58,-1061.41 769.75,-1056.7"/>
</g>
<!-- https://w3id.org/oseg/ont/otrl#OTRL1 -->
<g id="node6" class="node">
<title>https://w3id.org/oseg/ont/otrl#OTRL1</title>
<ellipse fill="none" stroke="#e377c2" cx="526.37" cy="-1091.72" rx="67.35" ry="16.03"/>
<text text-anchor="middle" x="526.37" y="-1088.02" font-family="Times,serif" font-size="14.00">otrl:OTRL1</text>
</g>
<!-- https://w3id.org/oseg/ont/otrl#OTRL1&#45;&gt;https://w3id.org/oseg/ont/otrl#OTRL -->
<g id="edge10" class="edge">
<title>https://w3id.org/oseg/ont/otrl#OTRL1&#45;&gt;https://w3id.org/oseg/ont/otrl#OTRL</title>
<path fill="none" stroke="black" d="M572.68,-1079.94C607.42,-1071.09 655.08,-1058.97 691.63,-1049.66"/>
<polygon fill="black" stroke="black" points="692.8,-1052.98 701.63,-1047.12 691.08,-1046.2 692.8,-1052.98"/>
</g>
<!-- https://w3id.org/oseg/ont/otrl#OTRL6 -->
<g id="node7" class="node">
<title>https://w3id.org/oseg/ont/otrl#OTRL6</title>
<ellipse fill="none" stroke="#e377c2" cx="752.06" cy="-1237.56" rx="67.35" ry="16.03"/>
<text text-anchor="middle" x="752.06" y="-1233.86" font-family="Times,serif" font-size="14.00">otrl:OTRL6</text>
</g>
<!-- https://w3id.org/oseg/ont/otrl#OTRL6&#45;&gt;https://w3id.org/oseg/ont/otrl#OTRL -->
<g id="edge45" class="edge">
<title>https://w3id.org/oseg/ont/otrl#OTRL6&#45;&gt;https://w3id.org/oseg/ont/otrl#OTRL</title>
<path fill="none" stroke="black" d="M751.56,-1221.05C750.52,-1186.16 748.07,-1104.69 746.8,-1062.38"/>
<polygon fill="black" stroke="black" points="750.3,-1062.17 746.5,-1052.28 743.3,-1062.38 750.3,-1062.17"/>
</g>
<!-- https://w3id.org/oseg/ont/otrl#OTRL4 -->
<g id="node8" class="node">
<title>https://w3id.org/oseg/ont/otrl#OTRL4</title>
<ellipse fill="none" stroke="#e377c2" cx="536.59" cy="-965.06" rx="67.35" ry="16.03"/>
<text text-anchor="middle" x="536.59" y="-961.36" font-family="Times,serif" font-size="14.00">otrl:OTRL4</text>
</g>
<!-- https://w3id.org/oseg/ont/otrl#OTRL4&#45;&gt;https://w3id.org/oseg/ont/otrl#OTRL -->
<g id="edge1" class="edge">
<title>https://w3id.org/oseg/ont/otrl#OTRL4&#45;&gt;https://w3id.org/oseg/ont/otrl#OTRL</title>
<path fill="none" stroke="black" d="M575.98,-978.37C610.78,-990.14 661.62,-1007.31 698.63,-1019.82"/>
<polygon fill="black" stroke="black" points="697.61,-1023.17 708.2,-1023.06 699.85,-1016.54 697.61,-1023.17"/>
</g>
<!-- https://w3id.org/oseg/ont/otrl#OTRL2 -->
<g id="node9" class="node">
<title>https://w3id.org/oseg/ont/otrl#OTRL2</title>
<ellipse fill="none" stroke="#e377c2" cx="670.64" cy="-1101.27" rx="67.35" ry="16.03"/>
<text text-anchor="middle" x="670.64" y="-1097.57" font-family="Times,serif" font-size="14.00">otrl:OTRL2</text>
</g>
<!-- https://w3id.org/oseg/ont/otrl#OTRL2&#45;&gt;https://w3id.org/oseg/ont/otrl#OTRL -->
<g id="edge6" class="edge">
<title>https://w3id.org/oseg/ont/otrl#OTRL2&#45;&gt;https://w3id.org/oseg/ont/otrl#OTRL</title>
<path fill="none" stroke="black" d="M688.88,-1085.43C698.32,-1077.23 710.01,-1067.08 720.35,-1058.11"/>
<polygon fill="black" stroke="black" points="722.67,-1060.72 727.93,-1051.52 718.08,-1055.44 722.67,-1060.72"/>
</g>
<!-- https://w3id.org/oseg/ont/otrl#ODRL2 -->
<g id="node10" class="node">
<title>https://w3id.org/oseg/ont/otrl#ODRL2</title>
<ellipse fill="none" stroke="#e377c2" cx="1183.61" cy="-496.06" rx="69.09" ry="16.03"/>
<text text-anchor="middle" x="1183.61" y="-492.36" font-family="Times,serif" font-size="14.00">otrl:ODRL2</text>
</g>
<!-- https://w3id.org/oseg/ont/otrl#ODRL2&#45;&gt;https://w3id.org/oseg/ont/otrl#ODRL -->
<g id="edge43" class="edge">
<title>https://w3id.org/oseg/ont/otrl#ODRL2&#45;&gt;https://w3id.org/oseg/ont/otrl#ODRL</title>
<path fill="none" stroke="black" d="M1159.59,-511.53C1125.72,-533.33 1063.85,-573.15 1026.06,-597.47"/>
<polygon fill="black" stroke="black" points="1023.98,-594.65 1017.46,-603.01 1027.76,-600.54 1023.98,-594.65"/>
</g>
<!-- https://w3id.org/oseg/ont/otrl#ODRL3Star -->
<g id="node11" class="node">
<title>https://w3id.org/oseg/ont/otrl#ODRL3Star</title>
<ellipse fill="none" stroke="#e377c2" cx="1096.12" cy="-391.14" rx="90.52" ry="16.03"/>
<text text-anchor="middle" x="1096.12" y="-387.44" font-family="Times,serif" font-size="14.00">otrl:ODRL3Star</text>
</g>
<!-- https://w3id.org/oseg/ont/otrl#ODRL3Star&#45;&gt;https://w3id.org/oseg/ont/otrl#ODRL -->
<g id="edge25" class="edge">
<title>https://w3id.org/oseg/ont/otrl#ODRL3Star&#45;&gt;https://w3id.org/oseg/ont/otrl#ODRL</title>
<path fill="none" stroke="black" d="M1088.77,-407.46C1071.17,-446.57 1026.49,-545.83 1005.35,-592.79"/>
<polygon fill="black" stroke="black" points="1002.13,-591.42 1001.21,-601.97 1008.51,-594.29 1002.13,-591.42"/>
</g>
<!-- https://w3id.org/oseg/ont/otrl#OTRL3 -->
<g id="node12" class="node">
<title>https://w3id.org/oseg/ont/otrl#OTRL3</title>
<ellipse fill="none" stroke="#e377c2" cx="609.5" cy="-1224.81" rx="67.35" ry="16.03"/>
<text text-anchor="middle" x="609.5" y="-1221.11" font-family="Times,serif" font-size="14.00">otrl:OTRL3</text>
</g>
<!-- https://w3id.org/oseg/ont/otrl#OTRL3&#45;&gt;https://w3id.org/oseg/ont/otrl#OTRL -->
<g id="edge13" class="edge">
<title>https://w3id.org/oseg/ont/otrl#OTRL3&#45;&gt;https://w3id.org/oseg/ont/otrl#OTRL</title>
<path fill="none" stroke="black" d="M621.14,-1208.7C645.12,-1175.5 700.13,-1099.33 728.45,-1060.13"/>
<polygon fill="black" stroke="black" points="731.38,-1062.06 734.39,-1051.9 725.7,-1057.96 731.38,-1062.06"/>
</g>
<!-- https://w3id.org/oseg/ont/otrl#ODRL1 -->
<g id="node13" class="node">
<title>https://w3id.org/oseg/ont/otrl#ODRL1</title>
<ellipse fill="none" stroke="#e377c2" cx="808.45" cy="-553.73" rx="69.09" ry="16.03"/>
<text text-anchor="middle" x="808.45" y="-550.03" font-family="Times,serif" font-size="14.00">otrl:ODRL1</text>
</g>
<!-- https://w3id.org/oseg/ont/otrl#ODRL1&#45;&gt;https://w3id.org/oseg/ont/otrl#ODRL -->
<g id="edge19" class="edge">
<title>https://w3id.org/oseg/ont/otrl#ODRL1&#45;&gt;https://w3id.org/oseg/ont/otrl#ODRL</title>
<path fill="none" stroke="black" d="M847.33,-567.23C876.18,-577.26 915.68,-590.97 946.41,-601.65"/>
<polygon fill="black" stroke="black" points="945.46,-605.02 956.05,-605 947.75,-598.41 945.46,-605.02"/>
</g>
<!-- https://w3id.org/oseg/ont/otrl#exitCriteria -->
<g id="node14" class="node">
<title>https://w3id.org/oseg/ont/otrl#exitCriteria</title>
<ellipse fill="none" stroke="#e377c2" cx="920.51" cy="-861.87" rx="91.43" ry="16.03"/>
<text text-anchor="middle" x="920.51" y="-858.17" font-family="Times,serif" font-size="14.00">otrl:exitCriteria</text>
</g>
<!-- https://w3id.org/oseg/ont/otrl#exitCriteria&#45;&gt;https://w3id.org/oseg/ont/otrl#ODRL -->
<g id="edge4" class="edge">
<title>https://w3id.org/oseg/ont/otrl#exitCriteria&#45;&gt;https://w3id.org/oseg/ont/otrl#ODRL</title>
<path fill="none" stroke="black" d="M925.44,-845.5C937.93,-804.05 970.88,-694.67 986.06,-644.27"/>
<polygon fill="black" stroke="black" points="989.49,-645.04 989.02,-634.45 982.79,-643.02 989.49,-645.04"/>
<text text-anchor="middle" x="869.75" y="-748.68" font-family="Times,serif" font-size="14.00">schema:domainIncludes</text>
</g>
<!-- https://w3id.org/oseg/ont/otrl#exitCriteria&#45;&gt;https://w3id.org/oseg/ont/otrl#OTRL -->
<g id="edge11" class="edge">
<title>https://w3id.org/oseg/ont/otrl#exitCriteria&#45;&gt;https://w3id.org/oseg/ont/otrl#OTRL</title>
<path fill="none" stroke="black" d="M904.4,-877.92C873.29,-908.94 804.82,-977.19 768.95,-1012.95"/>
<polygon fill="black" stroke="black" points="766.43,-1010.53 761.82,-1020.07 771.37,-1015.48 766.43,-1010.53"/>
<text text-anchor="middle" x="750.68" y="-949.24" font-family="Times,serif" font-size="14.00">schema:domainIncludes</text>
</g>
<!-- http://schema.org/Text -->
<g id="node20" class="node">
<title>http://schema.org/Text</title>
<ellipse fill="none" stroke="#e377c2" cx="1053.22" cy="-821.24" rx="74.91" ry="16.03"/>
<text text-anchor="middle" x="1053.22" y="-817.54" font-family="Times,serif" font-size="14.00">schema:Text</text>
</g>
<!-- https://w3id.org/oseg/ont/otrl#exitCriteria&#45;&gt;http://schema.org/Text -->
<g id="edge48" class="edge">
<title>https://w3id.org/oseg/ont/otrl#exitCriteria&#45;&gt;http://schema.org/Text</title>
<path fill="none" stroke="black" d="M966.55,-847.77C977.21,-844.51 988.65,-841.01 999.6,-837.66"/>
<polygon fill="black" stroke="black" points="1000.95,-840.9 1009.49,-834.63 998.91,-834.21 1000.95,-840.9"/>
<text text-anchor="middle" x="962.08" y="-831.52" font-family="Times,serif" font-size="14.00">range</text>
</g>
<!-- https://w3id.org/oseg/ont/1.1.0/otrl -->
<g id="node15" class="node">
<title>https://w3id.org/oseg/ont/1.1.0/otrl</title>
<ellipse fill="none" stroke="#e377c2" cx="1331.27" cy="-1331.48" rx="50.82" ry="16.03"/>
<text text-anchor="middle" x="1331.27" y="-1327.78" font-family="Times,serif" font-size="14.00">ns1:otrl</text>
</g>
<!-- https://orcid.org/0009&#45;0004&#45;3559&#45;6542 -->
<g id="node16" class="node">
<title>https://orcid.org/0009&#45;0004&#45;3559&#45;6542</title>
<ellipse fill="none" stroke="#e377c2" cx="1716.48" cy="-1432.9" rx="113.69" ry="16.03"/>
<text text-anchor="middle" x="1716.48" y="-1429.2" font-family="Times,serif" font-size="14.00">orcid:0009&#45;0004&#45;3...</text>
</g>
<!-- https://www.gnu.org/licenses/gpl&#45;3.0.txt -->
<g id="node17" class="node">
<title>https://www.gnu.org/licenses/gpl&#45;3.0.txt</title>
<ellipse fill="none" stroke="#e377c2" cx="1484.27" cy="-1281.69" rx="85.62" ry="16.03"/>
<text text-anchor="middle" x="1484.27" y="-1277.99" font-family="Times,serif" font-size="14.00">ns2:gpl&#45;3.0.txt</text>
</g>
<!-- https://orcid.org/0000&#45;0002&#45;1611&#45;7129 -->
<g id="node18" class="node">
<title>https://orcid.org/0000&#45;0002&#45;1611&#45;7129</title>
<ellipse fill="none" stroke="#e377c2" cx="1504.48" cy="-1364.73" rx="113.69" ry="16.03"/>
<text text-anchor="middle" x="1504.48" y="-1361.03" font-family="Times,serif" font-size="14.00">orcid:0000&#45;0002&#45;1...</text>
</g>
<!-- https://w3id.org/oseg/ont/otrl#Odrl4 -->
<g id="node19" class="node">
<title>https://w3id.org/oseg/ont/otrl#Odrl4</title>
<ellipse fill="none" stroke="#e377c2" cx="1309.81" cy="-886.02" rx="61.54" ry="16.03"/>
<text text-anchor="middle" x="1309.81" y="-882.32" font-family="Times,serif" font-size="14.00">otrl:Odrl4</text>
</g>
<!-- https://w3id.org/oseg/ont/otrl#Odrl4&#45;&gt;https://w3id.org/oseg/ont/otrl#ODRL4 -->
<g id="edge7" class="edge">
<title>https://w3id.org/oseg/ont/otrl#Odrl4&#45;&gt;https://w3id.org/oseg/ont/otrl#ODRL4</title>
<path fill="none" stroke="black" d="M1303.13,-869.66C1286.11,-839.74 1241.99,-776.37 1214.38,-741.51"/>
<polygon fill="black" stroke="black" points="1216.75,-738.88 1207.75,-733.3 1211.31,-743.28 1216.75,-738.88"/>
<text text-anchor="middle" x="1216.25" y="-794.39" font-family="Times,serif" font-size="14.00">owl:sameAs</text>
</g>
<!-- https://w3id.org/oseg/ont/otrl#Odrl4&#45;&gt;https://w3id.org/oseg/ont/otrl#ODRL4 -->
<g id="edge27" class="edge">
<title>https://w3id.org/oseg/ont/otrl#Odrl4&#45;&gt;https://w3id.org/oseg/ont/otrl#ODRL4</title>
<path fill="none" stroke="black" d="M1293.29,-870.19C1268.88,-840.73 1224.32,-777.61 1202.93,-742.37"/>
<polygon fill="black" stroke="black" points="1205.87,-740.47 1197.78,-733.63 1199.84,-744.03 1205.87,-740.47"/>
<text text-anchor="middle" x="1328.11" y="-810.08" font-family="Times,serif" font-size="14.00">schema:supersededBy</text>
</g>
<!-- https://w3id.org/oseg/ont/otrl#goal -->
<g id="node21" class="node">
<title>https://w3id.org/oseg/ont/otrl#goal</title>
<ellipse fill="none" stroke="#e377c2" cx="864.38" cy="-821.27" rx="54.39" ry="16.03"/>
<text text-anchor="middle" x="864.38" y="-817.57" font-family="Times,serif" font-size="14.00">otrl:goal</text>
</g>
<!-- https://w3id.org/oseg/ont/otrl#goal&#45;&gt;https://w3id.org/oseg/ont/otrl#ODRL -->
<g id="edge3" class="edge">
<title>https://w3id.org/oseg/ont/otrl#goal&#45;&gt;https://w3id.org/oseg/ont/otrl#ODRL</title>
<path fill="none" stroke="black" d="M874.76,-805C897.41,-769.47 951.4,-684.84 978.23,-642.76"/>
<polygon fill="black" stroke="black" points="981.25,-644.54 983.68,-634.23 975.35,-640.78 981.25,-644.54"/>
<text text-anchor="middle" x="840.5" y="-727.68" font-family="Times,serif" font-size="14.00">schema:domainIncludes</text>
</g>
<!-- https://w3id.org/oseg/ont/otrl#goal&#45;&gt;https://w3id.org/oseg/ont/otrl#OTRL -->
<g id="edge8" class="edge">
<title>https://w3id.org/oseg/ont/otrl#goal&#45;&gt;https://w3id.org/oseg/ont/otrl#OTRL</title>
<path fill="none" stroke="black" d="M855.48,-837.4C835.04,-874.44 784.61,-965.85 759.99,-1010.49"/>
<polygon fill="black" stroke="black" points="756.77,-1009.07 755,-1019.52 762.9,-1012.45 756.77,-1009.07"/>
<text text-anchor="middle" x="721.73" y="-927.74" font-family="Times,serif" font-size="14.00">schema:domainIncludes</text>
</g>
<!-- https://w3id.org/oseg/ont/otrl#goal&#45;&gt;http://schema.org/Text -->
<g id="edge35" class="edge">
<title>https://w3id.org/oseg/ont/otrl#goal&#45;&gt;http://schema.org/Text</title>
<path fill="none" stroke="black" d="M919,-821.27C934.24,-821.26 951.18,-821.26 967.75,-821.26"/>
<polygon fill="black" stroke="black" points="968,-824.76 978,-821.26 968,-817.76 968,-824.76"/>
<text text-anchor="middle" x="953.87" y="-810.06" font-family="Times,serif" font-size="14.00">range</text>
</g>
<!-- http://id.loc.gov/vocabulary/iso639&#45;1/en -->
<g id="node22" class="node">
<title>http://id.loc.gov/vocabulary/iso639&#45;1/en</title>
<ellipse fill="none" stroke="#e377c2" cx="1577.15" cy="-1167.79" rx="45.01" ry="16.03"/>
<text text-anchor="middle" x="1577.15" y="-1164.09" font-family="Times,serif" font-size="14.00">ns3:en</text>
</g>
<!-- https://w3id.org/oseg/ont/otrl -->
<g id="node23" class="node">
<title>https://w3id.org/oseg/ont/otrl</title>
<ellipse fill="none" stroke="#e377c2" cx="1507.57" cy="-1324.09" rx="50.82" ry="16.03"/>
<text text-anchor="middle" x="1507.57" y="-1320.39" font-family="Times,serif" font-size="14.00">ns4:otrl</text>
</g>
<!-- https://w3id.org/oseg/ont/otrl&#45;&gt;https://w3id.org/oseg/ont/1.1.0/otrl -->
<g id="edge9" class="edge">
<title>https://w3id.org/oseg/ont/otrl&#45;&gt;https://w3id.org/oseg/ont/1.1.0/otrl</title>
<path fill="none" stroke="black" d="M1457.05,-1326.21C1436.76,-1327.06 1413.2,-1328.04 1391.99,-1328.93"/>
<polygon fill="black" stroke="black" points="1391.64,-1325.44 1381.8,-1329.36 1391.93,-1332.44 1391.64,-1325.44"/>
<text text-anchor="middle" x="1398.77" y="-1316.37" font-family="Times,serif" font-size="14.00">owl:versionIRI</text>
</g>
<!-- https://w3id.org/oseg/ont/otrl&#45;&gt;https://orcid.org/0009&#45;0004&#45;3559&#45;6542 -->
<g id="edge14" class="edge">
<title>https://w3id.org/oseg/ont/otrl&#45;&gt;https://orcid.org/0009&#45;0004&#45;3559&#45;6542</title>
<path fill="none" stroke="black" d="M1534.46,-1338.09C1570.73,-1356.98 1635.58,-1390.76 1677.28,-1412.48"/>
<polygon fill="black" stroke="black" points="1675.84,-1415.67 1686.32,-1417.19 1679.07,-1409.47 1675.84,-1415.67"/>
<text text-anchor="middle" x="1663.37" y="-1379.09" font-family="Times,serif" font-size="14.00">dcterms:creator</text>
</g>
<!-- https://w3id.org/oseg/ont/otrl&#45;&gt;https://www.gnu.org/licenses/gpl&#45;3.0.txt -->
<g id="edge21" class="edge">
<title>https://w3id.org/oseg/ont/otrl&#45;&gt;https://www.gnu.org/licenses/gpl&#45;3.0.txt</title>
<path fill="none" stroke="black" d="M1505.75,-1307.62C1505.62,-1307.32 1505.48,-1307.01 1505.35,-1306.7"/>
<polygon fill="black" stroke="black" points="1508.39,-1304.97 1500.73,-1297.66 1502.16,-1308.16 1508.39,-1304.97"/>
<text text-anchor="middle" x="1562.05" y="-1295.96" font-family="Times,serif" font-size="14.00">dcterms:license</text>
</g>
<!-- https://w3id.org/oseg/ont/otrl&#45;&gt;https://www.gnu.org/licenses/gpl&#45;3.0.txt -->
<g id="edge46" class="edge">
<title>https://w3id.org/oseg/ont/otrl&#45;&gt;https://www.gnu.org/licenses/gpl&#45;3.0.txt</title>
<path fill="none" stroke="black" d="M1491.41,-1308.6C1491.16,-1308.17 1490.91,-1307.74 1490.66,-1307.31"/>
<polygon fill="black" stroke="black" points="1493.69,-1305.53 1486.1,-1298.14 1487.42,-1308.65 1493.69,-1305.53"/>
<text text-anchor="middle" x="1456.04" y="-1296.76" font-family="Times,serif" font-size="14.00">cc:license</text>
</g>
<!-- https://w3id.org/oseg/ont/otrl&#45;&gt;https://orcid.org/0000&#45;0002&#45;1611&#45;7129 -->
<g id="edge26" class="edge">
<title>https://w3id.org/oseg/ont/otrl&#45;&gt;https://orcid.org/0000&#45;0002&#45;1611&#45;7129</title>
<path fill="none" stroke="black" d="M1506.31,-1340.62C1506.3,-1340.78 1506.29,-1340.94 1506.28,-1341.1"/>
<polygon fill="black" stroke="black" points="1503,-1338.11 1505.73,-1348.34 1509.98,-1338.64 1503,-1338.11"/>
<text text-anchor="middle" x="1563.8" y="-1329.66" font-family="Times,serif" font-size="14.00">dcterms:creator</text>
</g>
<!-- https://w3id.org/oseg/ont/otrl&#45;&gt;http://id.loc.gov/vocabulary/iso639&#45;1/en -->
<g id="edge41" class="edge">
<title>https://w3id.org/oseg/ont/otrl&#45;&gt;http://id.loc.gov/vocabulary/iso639&#45;1/en</title>
<path fill="none" stroke="black" d="M1514.76,-1307.95C1526.84,-1280.81 1551.32,-1225.81 1565.77,-1193.36"/>
<polygon fill="black" stroke="black" points="1569.03,-1194.63 1569.9,-1184.07 1562.64,-1191.78 1569.03,-1194.63"/>
<text text-anchor="middle" x="1475.76" y="-1254.46" font-family="Times,serif" font-size="14.00">dcterms:language</text>
</g>
<!-- https://w3id.org/oseg/ont/otrl#Otrl4 -->
<g id="node24" class="node">
<title>https://w3id.org/oseg/ont/otrl#Otrl4</title>
<ellipse fill="none" stroke="black" cx="194.21" cy="-912.77" rx="194.41" ry="16.03"/>
<text text-anchor="middle" x="194.21" y="-909.07" font-family="Times,serif" font-size="14.00">https://w3id.org/oseg/ont/otrl#Otrl4</text>
</g>
<!-- https://w3id.org/oseg/ont/otrl#Otrl4&#45;&gt;https://w3id.org/oseg/ont/otrl#OTRL4 -->
<g id="edge5" class="edge">
<title>https://w3id.org/oseg/ont/otrl#Otrl4&#45;&gt;https://w3id.org/oseg/ont/otrl#OTRL4</title>
<path fill="none" stroke="black" d="M258.99,-928.17C316.65,-938.66 401,-951.62 461.57,-959.35"/>
<polygon fill="black" stroke="black" points="461.48,-962.86 471.84,-960.63 462.35,-955.92 461.48,-962.86"/>
<text text-anchor="middle" x="280.28" y="-947.56" font-family="Times,serif" font-size="14.00">schema:supersededBy</text>
</g>
<!-- https://w3id.org/oseg/ont/otrl#Otrl4&#45;&gt;https://w3id.org/oseg/ont/otrl#OTRL4 -->
<g id="edge50" class="edge">
<title>https://w3id.org/oseg/ont/otrl#Otrl4&#45;&gt;https://w3id.org/oseg/ont/otrl#OTRL4</title>
<path fill="none" stroke="black" d="M319.28,-925.28C374.58,-933.16 436.82,-943.12 480.47,-951.25"/>
<polygon fill="black" stroke="black" points="479.85,-954.7 490.32,-953.12 481.15,-947.82 479.85,-954.7"/>
<text text-anchor="middle" x="442.38" y="-927.07" font-family="Times,serif" font-size="14.00">owl:sameAs</text>
</g>
<!-- https://w3id.org/oseg/ont/otrl#Odrl1 -->
<g id="node25" class="node">
<title>https://w3id.org/oseg/ont/otrl#Odrl1</title>
<ellipse fill="none" stroke="black" cx="673.29" cy="-513.05" rx="196.65" ry="16.03"/>
<text text-anchor="middle" x="673.29" y="-509.35" font-family="Times,serif" font-size="14.00">https://w3id.org/oseg/ont/otrl#Odrl1</text>
</g>
<!-- https://w3id.org/oseg/ont/otrl#Odrl1&#45;&gt;https://w3id.org/oseg/ont/otrl#ODRL1 -->
<g id="edge12" class="edge">
<title>https://w3id.org/oseg/ont/otrl#Odrl1&#45;&gt;https://w3id.org/oseg/ont/otrl#ODRL1</title>
<path fill="none" stroke="black" d="M706.03,-529.13C717.26,-533.13 730.27,-537.31 743.16,-541.11"/>
<polygon fill="black" stroke="black" points="742.39,-544.53 752.97,-543.94 744.33,-537.81 742.39,-544.53"/>
<text text-anchor="middle" x="644.59" y="-538.92" font-family="Times,serif" font-size="14.00">schema:supersededBy</text>
</g>
<!-- https://w3id.org/oseg/ont/otrl#Odrl1&#45;&gt;https://w3id.org/oseg/ont/otrl#ODRL1 -->
<g id="edge30" class="edge">
<title>https://w3id.org/oseg/ont/otrl#Odrl1&#45;&gt;https://w3id.org/oseg/ont/otrl#ODRL1</title>
<path fill="none" stroke="black" d="M747.17,-528.25C754.78,-530.58 762.28,-533.01 769.29,-535.4"/>
<polygon fill="black" stroke="black" points="768.56,-538.86 779.15,-538.88 770.88,-532.25 768.56,-538.86"/>
<text text-anchor="middle" x="715.73" y="-535.62" font-family="Times,serif" font-size="14.00">owl:sameAs</text>
</g>
<!-- https://w3id.org/oseg/ont/otrl#Odrl3 -->
<g id="node26" class="node">
<title>https://w3id.org/oseg/ont/otrl#Odrl3</title>
<ellipse fill="none" stroke="black" cx="783.23" cy="-84.49" rx="196.65" ry="16.03"/>
<text text-anchor="middle" x="783.23" y="-80.79" font-family="Times,serif" font-size="14.00">https://w3id.org/oseg/ont/otrl#Odrl3</text>
</g>
<!-- https://w3id.org/oseg/ont/otrl#Odrl3&#45;&gt;https://w3id.org/oseg/ont/otrl#ODRL3 -->
<g id="edge15" class="edge">
<title>https://w3id.org/oseg/ont/otrl#Odrl3&#45;&gt;https://w3id.org/oseg/ont/otrl#ODRL3</title>
<path fill="none" stroke="black" d="M786.64,-100.82C803.33,-153.42 870.99,-318.49 901.62,-382.35"/>
<polygon fill="black" stroke="black" points="898.66,-384.26 906.21,-391.7 904.95,-381.18 898.66,-384.26"/>
<text text-anchor="middle" x="801.63" y="-245.38" font-family="Times,serif" font-size="14.00">owl:sameAs</text>
</g>
<!-- https://w3id.org/oseg/ont/otrl#Odrl3&#45;&gt;https://w3id.org/oseg/ont/otrl#ODRL3 -->
<g id="edge23" class="edge">
<title>https://w3id.org/oseg/ont/otrl#Odrl3&#45;&gt;https://w3id.org/oseg/ont/otrl#ODRL3</title>
<path fill="none" stroke="black" d="M793.64,-101.08C820.15,-153.83 887.85,-317.8 909.8,-381.88"/>
<polygon fill="black" stroke="black" points="906.56,-383.23 913.03,-391.62 913.21,-381.03 906.56,-383.23"/>
<text text-anchor="middle" x="771.72" y="-230.28" font-family="Times,serif" font-size="14.00">schema:supersededBy</text>
</g>
<!-- https://w3id.org/oseg/ont/otrl#Otrl3 -->
<g id="node27" class="node">
<title>https://w3id.org/oseg/ont/otrl#Otrl3</title>
<ellipse fill="none" stroke="black" cx="436.59" cy="-1526.17" rx="194.41" ry="16.03"/>
<text text-anchor="middle" x="436.59" y="-1522.47" font-family="Times,serif" font-size="14.00">https://w3id.org/oseg/ont/otrl#Otrl3</text>
</g>
<!-- https://w3id.org/oseg/ont/otrl#Otrl3&#45;&gt;https://w3id.org/oseg/ont/otrl#OTRL3 -->
<g id="edge16" class="edge">
<title>https://w3id.org/oseg/ont/otrl#Otrl3&#45;&gt;https://w3id.org/oseg/ont/otrl#OTRL3</title>
<path fill="none" stroke="black" d="M449.84,-1509.92C483.26,-1460.32 569.13,-1310.96 599.18,-1250.54"/>
<polygon fill="black" stroke="black" points="602.44,-1251.84 603.66,-1241.31 596.15,-1248.78 602.44,-1251.84"/>
<text text-anchor="middle" x="444.51" y="-1384.03" font-family="Times,serif" font-size="14.00">schema:supersededBy</text>
</g>
<!-- https://w3id.org/oseg/ont/otrl#Otrl3&#45;&gt;https://w3id.org/oseg/ont/otrl#OTRL3 -->
<g id="edge20" class="edge">
<title>https://w3id.org/oseg/ont/otrl#Otrl3&#45;&gt;https://w3id.org/oseg/ont/otrl#OTRL3</title>
<path fill="none" stroke="black" d="M442.43,-1509.65C466.03,-1459.53 551.92,-1309.23 590.63,-1249.57"/>
<polygon fill="black" stroke="black" points="593.62,-1251.4 596.2,-1241.12 587.77,-1247.54 593.62,-1251.4"/>
<text text-anchor="middle" x="474.03" y="-1368.41" font-family="Times,serif" font-size="14.00">owl:sameAs</text>
</g>
<!-- https://w3id.org/oseg/ont/otrl#Otrl1 -->
<g id="node28" class="node">
<title>https://w3id.org/oseg/ont/otrl#Otrl1</title>
<ellipse fill="none" stroke="black" cx="207.85" cy="-1231.24" rx="194.41" ry="16.03"/>
<text text-anchor="middle" x="207.85" y="-1227.54" font-family="Times,serif" font-size="14.00">https://w3id.org/oseg/ont/otrl#Otrl1</text>
</g>
<!-- https://w3id.org/oseg/ont/otrl#Otrl1&#45;&gt;https://w3id.org/oseg/ont/otrl#OTRL1 -->
<g id="edge18" class="edge">
<title>https://w3id.org/oseg/ont/otrl#Otrl1&#45;&gt;https://w3id.org/oseg/ont/otrl#OTRL1</title>
<path fill="none" stroke="black" d="M256.15,-1215.47C321.11,-1189.82 435.02,-1139.75 491.96,-1111.68"/>
<polygon fill="black" stroke="black" points="493.87,-1114.64 501.25,-1107.04 490.74,-1108.38 493.87,-1114.64"/>
<text text-anchor="middle" x="331.55" y="-1167.37" font-family="Times,serif" font-size="14.00">owl:sameAs</text>
</g>
<!-- https://w3id.org/oseg/ont/otrl#Otrl1&#45;&gt;https://w3id.org/oseg/ont/otrl#OTRL1 -->
<g id="edge51" class="edge">
<title>https://w3id.org/oseg/ont/otrl#Otrl1&#45;&gt;https://w3id.org/oseg/ont/otrl#OTRL1</title>
<path fill="none" stroke="black" d="M234.77,-1215.01C287.98,-1188.18 407.29,-1135.57 475.67,-1108.44"/>
<polygon fill="black" stroke="black" points="477.35,-1111.55 485.38,-1104.63 474.79,-1105.03 477.35,-1111.55"/>
<text text-anchor="middle" x="275.22" y="-1150.53" font-family="Times,serif" font-size="14.00">schema:supersededBy</text>
</g>
<!-- https://w3id.org/oseg/ont/otrl#Otrl6 -->
<g id="node29" class="node">
<title>https://w3id.org/oseg/ont/otrl#Otrl6</title>
<ellipse fill="none" stroke="black" cx="791.11" cy="-1279.17" rx="194.41" ry="16.03"/>
<text text-anchor="middle" x="791.11" y="-1275.47" font-family="Times,serif" font-size="14.00">https://w3id.org/oseg/ont/otrl#Otrl6</text>
</g>
<!-- https://w3id.org/oseg/ont/otrl#Otrl6&#45;&gt;https://w3id.org/oseg/ont/otrl#OTRL6 -->
<g id="edge22" class="edge">
<title>https://w3id.org/oseg/ont/otrl#Otrl6&#45;&gt;https://w3id.org/oseg/ont/otrl#OTRL6</title>
<path fill="none" stroke="black" d="M784.14,-1262.66C783.59,-1261.95 783.02,-1261.23 782.44,-1260.51"/>
<polygon fill="black" stroke="black" points="784.9,-1258.01 775.65,-1252.84 779.66,-1262.65 784.9,-1258.01"/>
<text text-anchor="middle" x="825.79" y="-1250.38" font-family="Times,serif" font-size="14.00">owl:sameAs</text>
</g>
<!-- https://w3id.org/oseg/ont/otrl#Otrl6&#45;&gt;https://w3id.org/oseg/ont/otrl#OTRL6 -->
<g id="edge31" class="edge">
<title>https://w3id.org/oseg/ont/otrl#Otrl6&#45;&gt;https://w3id.org/oseg/ont/otrl#OTRL6</title>
<path fill="none" stroke="black" d="M766.66,-1262.98C766.32,-1262.62 765.98,-1262.25 765.64,-1261.88"/>
<polygon fill="black" stroke="black" points="768.16,-1259.44 759.03,-1254.07 762.82,-1263.96 768.16,-1259.44"/>
<text text-anchor="middle" x="686.15" y="-1251.23" font-family="Times,serif" font-size="14.00">schema:supersededBy</text>
</g>
<!-- https://w3id.org/oseg/ont/otrl#Otrl2 -->
<g id="node30" class="node">
<title>https://w3id.org/oseg/ont/otrl#Otrl2</title>
<ellipse fill="none" stroke="black" cx="618.61" cy="-1143.05" rx="194.41" ry="16.03"/>
<text text-anchor="middle" x="618.61" y="-1139.35" font-family="Times,serif" font-size="14.00">https://w3id.org/oseg/ont/otrl#Otrl2</text>
</g>
<!-- https://w3id.org/oseg/ont/otrl#Otrl2&#45;&gt;https://w3id.org/oseg/ont/otrl#OTRL2 -->
<g id="edge24" class="edge">
<title>https://w3id.org/oseg/ont/otrl#Otrl2&#45;&gt;https://w3id.org/oseg/ont/otrl#OTRL2</title>
<path fill="none" stroke="black" d="M649.46,-1126.93C650.55,-1126.05 651.63,-1125.15 652.7,-1124.25"/>
<polygon fill="black" stroke="black" points="655.27,-1126.64 660.33,-1117.34 650.57,-1121.45 655.27,-1126.64"/>
<text text-anchor="middle" x="608.58" y="-1114.39" font-family="Times,serif" font-size="14.00">owl:sameAs</text>
</g>
<!-- https://w3id.org/oseg/ont/otrl#Otrl2&#45;&gt;https://w3id.org/oseg/ont/otrl#OTRL2 -->
<g id="edge33" class="edge">
<title>https://w3id.org/oseg/ont/otrl#Otrl2&#45;&gt;https://w3id.org/oseg/ont/otrl#OTRL2</title>
<path fill="none" stroke="black" d="M629.27,-1126.64C630.6,-1125.35 632.02,-1124.04 633.5,-1122.73"/>
<polygon fill="black" stroke="black" points="635.83,-1125.34 641.24,-1116.23 631.33,-1119.98 635.83,-1125.34"/>
<text text-anchor="middle" x="711.38" y="-1113.48" font-family="Times,serif" font-size="14.00">schema:supersededBy</text>
</g>
<!-- https://w3id.org/oseg/ont/otrl#Odrl -->
<g id="node31" class="node">
<title>https://w3id.org/oseg/ont/otrl#Odrl</title>
<ellipse fill="none" stroke="black" cx="1017.88" cy="-277.5" rx="190.42" ry="16.03"/>
<text text-anchor="middle" x="1017.88" y="-273.8" font-family="Times,serif" font-size="14.00">https://w3id.org/oseg/ont/otrl#Odrl</text>
</g>
<!-- https://w3id.org/oseg/ont/otrl#Odrl&#45;&gt;https://w3id.org/oseg/ont/otrl#ODRL -->
<g id="edge28" class="edge">
<title>https://w3id.org/oseg/ont/otrl#Odrl&#45;&gt;https://w3id.org/oseg/ont/otrl#ODRL</title>
<path fill="none" stroke="black" d="M1013.55,-294.18C1005.11,-349.05 992.57,-524.33 991.97,-591.56"/>
<polygon fill="black" stroke="black" points="988.47,-591.75 991.99,-601.74 995.47,-591.74 988.47,-591.75"/>
<text text-anchor="middle" x="922.76" y="-446.67" font-family="Times,serif" font-size="14.00">schema:supersededBy</text>
</g>
<!-- https://w3id.org/oseg/ont/otrl#Odrl&#45;&gt;https://w3id.org/oseg/ont/otrl#ODRL -->
<g id="edge36" class="edge">
<title>https://w3id.org/oseg/ont/otrl#Odrl&#45;&gt;https://w3id.org/oseg/ont/otrl#ODRL</title>
<path fill="none" stroke="black" d="M1019.82,-294.15C1020.57,-348.99 1008.5,-524.25 999.67,-591.52"/>
<polygon fill="black" stroke="black" points="996.16,-591.32 998.22,-601.71 1003.09,-592.3 996.16,-591.32"/>
<text text-anchor="middle" x="967.25" y="-431.63" font-family="Times,serif" font-size="14.00">owl:sameAs</text>
</g>
<!-- https://w3id.org/oseg/ont/otrl#Otrl5 -->
<g id="node32" class="node">
<title>https://w3id.org/oseg/ont/otrl#Otrl5</title>
<ellipse fill="none" stroke="black" cx="1027.98" cy="-1521.21" rx="194.41" ry="16.03"/>
<text text-anchor="middle" x="1027.98" y="-1517.51" font-family="Times,serif" font-size="14.00">https://w3id.org/oseg/ont/otrl#Otrl5</text>
</g>
<!-- https://w3id.org/oseg/ont/otrl#Otrl5&#45;&gt;https://w3id.org/oseg/ont/otrl#OTRL5 -->
<g id="edge29" class="edge">
<title>https://w3id.org/oseg/ont/otrl#Otrl5&#45;&gt;https://w3id.org/oseg/ont/otrl#OTRL5</title>
<path fill="none" stroke="black" d="M1024.46,-1504.52C1007.63,-1451.82 940.75,-1288.96 910.23,-1225.42"/>
<polygon fill="black" stroke="black" points="913.21,-1223.55 905.66,-1216.11 906.93,-1226.63 913.21,-1223.55"/>
<text text-anchor="middle" x="924.84" y="-1353.77" font-family="Times,serif" font-size="14.00">owl:sameAs</text>
</g>
<!-- https://w3id.org/oseg/ont/otrl#Otrl5&#45;&gt;https://w3id.org/oseg/ont/otrl#OTRL5 -->
<g id="edge37" class="edge">
<title>https://w3id.org/oseg/ont/otrl#Otrl5&#45;&gt;https://w3id.org/oseg/ont/otrl#OTRL5</title>
<path fill="none" stroke="black" d="M1017.61,-1504.73C991.24,-1452.42 924.06,-1290.05 902.05,-1226.02"/>
<polygon fill="black" stroke="black" points="905.29,-1224.66 898.81,-1216.27 898.64,-1226.87 905.29,-1224.66"/>
<text text-anchor="middle" x="879.83" y="-1369.17" font-family="Times,serif" font-size="14.00">schema:supersededBy</text>
</g>
<!-- https://w3id.org/oseg/ont/otrl#Odrl5 -->
<g id="node33" class="node">
<title>https://w3id.org/oseg/ont/otrl#Odrl5</title>
<ellipse fill="none" stroke="black" cx="1338.83" cy="-928.5" rx="196.65" ry="16.03"/>
<text text-anchor="middle" x="1338.83" y="-924.8" font-family="Times,serif" font-size="14.00">https://w3id.org/oseg/ont/otrl#Odrl5</text>
</g>
<!-- https://w3id.org/oseg/ont/otrl#Odrl5&#45;&gt;https://w3id.org/oseg/ont/otrl#Odrl4 -->
<g id="edge32" class="edge">
<title>https://w3id.org/oseg/ont/otrl#Odrl5&#45;&gt;https://w3id.org/oseg/ont/otrl#Odrl4</title>
<path fill="none" stroke="black" d="M1335.15,-911.98C1334.79,-911.34 1334.43,-910.69 1334.05,-910.03"/>
<polygon fill="black" stroke="black" points="1336.92,-908.03 1328.56,-901.54 1331.04,-911.83 1336.92,-908.03"/>
<text text-anchor="middle" x="1414.6" y="-899.81" font-family="Times,serif" font-size="14.00">schema:supersededBy</text>
</g>
<!-- https://w3id.org/oseg/ont/otrl#Odrl5&#45;&gt;https://w3id.org/oseg/ont/otrl#Odrl4 -->
<g id="edge39" class="edge">
<title>https://w3id.org/oseg/ont/otrl#Odrl5&#45;&gt;https://w3id.org/oseg/ont/otrl#Odrl4</title>
<path fill="none" stroke="black" d="M1319.43,-912.06C1319.23,-911.76 1319.02,-911.47 1318.82,-911.17"/>
<polygon fill="black" stroke="black" points="1321.7,-909.17 1313.47,-902.5 1315.74,-912.85 1321.7,-909.17"/>
<text text-anchor="middle" x="1276.63" y="-900.41" font-family="Times,serif" font-size="14.00">owl:sameAs</text>
</g>
<!-- https://w3id.org/oseg/ont/otrl#Otrl -->
<g id="node34" class="node">
<title>https://w3id.org/oseg/ont/otrl#Otrl</title>
<ellipse fill="none" stroke="black" cx="1065.51" cy="-1158.87" rx="188.18" ry="16.03"/>
<text text-anchor="middle" x="1065.51" y="-1155.17" font-family="Times,serif" font-size="14.00">https://w3id.org/oseg/ont/otrl#Otrl</text>
</g>
<!-- https://w3id.org/oseg/ont/otrl#Otrl&#45;&gt;https://w3id.org/oseg/ont/otrl#OTRL -->
<g id="edge38" class="edge">
<title>https://w3id.org/oseg/ont/otrl#Otrl&#45;&gt;https://w3id.org/oseg/ont/otrl#OTRL</title>
<path fill="none" stroke="black" d="M1035.52,-1142.79C981.32,-1118.66 866.47,-1074.12 798.84,-1050.71"/>
<polygon fill="black" stroke="black" points="799.81,-1047.34 789.22,-1047.41 797.54,-1053.96 799.81,-1047.34"/>
<text text-anchor="middle" x="837.18" y="-1085.55" font-family="Times,serif" font-size="14.00">schema:supersededBy</text>
</g>
<!-- https://w3id.org/oseg/ont/otrl#Otrl&#45;&gt;https://w3id.org/oseg/ont/otrl#OTRL -->
<g id="edge44" class="edge">
<title>https://w3id.org/oseg/ont/otrl#Otrl&#45;&gt;https://w3id.org/oseg/ont/otrl#OTRL</title>
<path fill="none" stroke="black" d="M1010.53,-1143.25C945.26,-1120.56 838.28,-1079.14 782.46,-1054.76"/>
<polygon fill="black" stroke="black" points="783.54,-1051.41 772.98,-1050.56 780.7,-1057.81 783.54,-1051.41"/>
<text text-anchor="middle" x="854" y="-1102.8" font-family="Times,serif" font-size="14.00">owl:sameAs</text>
</g>
<!-- https://w3id.org/oseg/ont/otrl#Odrl2 -->
<g id="node35" class="node">
<title>https://w3id.org/oseg/ont/otrl#Odrl2</title>
<ellipse fill="none" stroke="black" cx="1466.73" cy="-293.06" rx="196.65" ry="16.03"/>
<text text-anchor="middle" x="1466.73" y="-289.36" font-family="Times,serif" font-size="14.00">https://w3id.org/oseg/ont/otrl#Odrl2</text>
</g>
<!-- https://w3id.org/oseg/ont/otrl#Odrl2&#45;&gt;https://w3id.org/oseg/ont/otrl#ODRL2 -->
<g id="edge40" class="edge">
<title>https://w3id.org/oseg/ont/otrl#Odrl2&#45;&gt;https://w3id.org/oseg/ont/otrl#ODRL2</title>
<path fill="none" stroke="black" d="M1436.88,-309.3C1380.46,-345.54 1259.4,-432.37 1207.72,-473.68"/>
<polygon fill="black" stroke="black" points="1205.32,-471.12 1199.76,-480.14 1209.73,-476.56 1205.32,-471.12"/>
<text text-anchor="middle" x="1279.8" y="-395.29" font-family="Times,serif" font-size="14.00">owl:sameAs</text>
</g>
<!-- https://w3id.org/oseg/ont/otrl#Odrl2&#45;&gt;https://w3id.org/oseg/ont/otrl#ODRL2 -->
<g id="edge47" class="edge">
<title>https://w3id.org/oseg/ont/otrl#Odrl2&#45;&gt;https://w3id.org/oseg/ont/otrl#ODRL2</title>
<path fill="none" stroke="black" d="M1450.23,-309.27C1405.7,-345.97 1282.67,-434.61 1220.5,-475.26"/>
<polygon fill="black" stroke="black" points="1218.29,-472.52 1211.79,-480.89 1222.09,-478.4 1218.29,-472.52"/>
<text text-anchor="middle" x="1415.37" y="-396.06" font-family="Times,serif" font-size="14.00">schema:supersededBy</text>
</g>
<!-- https://w3id.org/oseg/ont/otrl#Odrl3Star -->
<g id="node36" class="node">
<title>https://w3id.org/oseg/ont/otrl#Odrl3Star</title>
<ellipse fill="none" stroke="black" cx="1221.51" cy="-16.53" rx="218.49" ry="16.03"/>
<text text-anchor="middle" x="1221.51" y="-12.83" font-family="Times,serif" font-size="14.00">https://w3id.org/oseg/ont/otrl#Odrl3Star</text>
</g>
<!-- https://w3id.org/oseg/ont/otrl#Odrl3Star&#45;&gt;https://w3id.org/oseg/ont/otrl#ODRL3Star -->
<g id="edge42" class="edge">
<title>https://w3id.org/oseg/ont/otrl#Odrl3Star&#45;&gt;https://w3id.org/oseg/ont/otrl#ODRL3Star</title>
<path fill="none" stroke="black" d="M1212.72,-33.12C1187.98,-92.16 1120.82,-292.24 1101.17,-364.69"/>
<polygon fill="black" stroke="black" points="1097.67,-364.24 1098.54,-374.8 1104.45,-366.01 1097.67,-364.24"/>
<text text-anchor="middle" x="1114.45" y="-202.7" font-family="Times,serif" font-size="14.00">owl:sameAs</text>
</g>
<!-- https://w3id.org/oseg/ont/otrl#Odrl3Star&#45;&gt;https://w3id.org/oseg/ont/otrl#ODRL3Star -->
<g id="edge49" class="edge">
<title>https://w3id.org/oseg/ont/otrl#Odrl3Star&#45;&gt;https://w3id.org/oseg/ont/otrl#ODRL3Star</title>
<path fill="none" stroke="black" d="M1219.05,-33.07C1204.37,-92.15 1137.47,-292.86 1108.78,-365.03"/>
<polygon fill="black" stroke="black" points="1105.37,-364.14 1104.84,-374.72 1111.85,-366.78 1105.37,-364.14"/>
<text text-anchor="middle" x="1243.92" y="-202.85" font-family="Times,serif" font-size="14.00">schema:supersededBy</text>
</g>
</g>
</svg>
